<svg xmlns="http://www.w3.org/2000/svg" xmlns:xlink="http://www.w3.org/1999/xlink" width="270" height="116" viewBox="0 0 270 116">
  <defs>
    <filter id="Rectangle_104" x="0" y="0" width="270" height="116" filterUnits="userSpaceOnUse">
      <feOffset dx="7" dy="8" input="SourceAlpha"/>
      <feGaussianBlur stdDeviation="5.5" result="blur"/>
      <feFlood flood-opacity="0.161"/>
      <feComposite operator="in" in2="blur"/>
      <feComposite in="SourceGraphic"/>
    </filter>
    <clipPath id="clip-path">
      <rect id="Rectangle_105" data-name="Rectangle 105" width="194" height="61" transform="translate(687 2442)" fill="#fff"/>
    </clipPath>
  </defs>
  <g id="IAS" transform="translate(-656.5 -2421.5)">
    <g transform="matrix(1, 0, 0, 1, 656.5, 2421.5)" filter="url(#Rectangle_104)">
      <rect id="Rectangle_104-2" data-name="Rectangle 104" width="237" height="83" rx="15" transform="translate(9.5 8.5)" fill="#3a86f5"/>
    </g>
    <g id="Mask_Group_8" data-name="Mask Group 8" clip-path="url(#clip-path)">
      <g id="IAC" transform="translate(784 2472.5)">
        <g id="Group_183" data-name="Group 183" transform="translate(-83.415 -15.85)">
          <path id="Path_114" data-name="Path 114" d="M181.73,25.149q-.005,2.121-.01,4.241l-23.268.017q-.007-2.133-.014-4.267Z" transform="translate(-14.941 -2.371)" fill="#fefefe"/>
          <path id="Path_115" data-name="Path 115" d="M182.7,15.315q-.005,2.121-.01,4.241l-13.946.019q0-2.136,0-4.271Z" transform="translate(-15.912 -1.443)" fill="#fefefe"/>
          <path id="Path_116" data-name="Path 116" d="M183.156,5.127q0,2.121,0,4.242l-9.545,0q0-2.126,0-4.252Z" transform="translate(-16.372 -0.483)" fill="#fefefe"/>
          <path id="Path_117" data-name="Path 117" d="M138.157,29.412q.005-2.137.011-4.275h9.321l0,4.279Z" transform="translate(-13.028 -2.37)" fill="#fefefe"/>
          <path id="Path_118" data-name="Path 118" d="M101.3,25.141q.008,2.134.015,4.269L94.476,29.4q0-2.122,0-4.245Z" transform="translate(-8.909 -2.371)" fill="#fefefe"/>
          <path id="Path_119" data-name="Path 119" d="M161.34,9.386q-.007-2.138-.014-4.278h6.735q0,2.137,0,4.276Z" transform="translate(-15.213 -0.482)" fill="#fefefe"/>
          <path id="Path_120" data-name="Path 120" d="M153.87,19.576l-.006-4.269,6.776-.005q0,2.138-.005,4.276Z" transform="translate(-14.509 -1.443)" fill="#fefefe"/>
          <path id="Path_121" data-name="Path 121" d="M140.143,5.123q-.008,2.121-.018,4.242l-4.514.015q-.008-2.134-.015-4.269Z" transform="translate(-12.787 -0.482)" fill="#fefefe"/>
          <path id="Path_122" data-name="Path 122" d="M117.8,19.577q0-2.137,0-4.272l4.431,0q0,2.14-.006,4.279Z" transform="translate(-11.108 -1.443)" fill="#fefefe"/>
          <g id="Group_182" data-name="Group 182">
            <path id="Path_123" data-name="Path 123" d="M166.819,31.669q-82.642,0-165.285.031C.283,31.7-.007,31.422,0,30.184.059,20.123.033,10.062.033,0H162.218c4.723,0,4.723,0,4.567,4.644l-9.542-.006-4.394-.012h-6.735l-18.757.014-4.548-.011q-20.563-.005-41.127,0c-3.309.007-2.884-.7-2.959,2.975-.019.968.265,1.36,1.311,1.358q21.394-.064,42.79-.067l4.514-.015,18.79.021,6.719,0,4.394-.012,9.545,0,0,4.985-13.958-.011-6.7,0-6.776.005-28.241-.006-4.431,0c-8.887-.015-17.773-.018-26.658-.064-1.058-.006-1.385.41-1.294,1.368a6.039,6.039,0,0,1,0,1.317c-.159,1.252.272,1.7,1.635,1.692,8.774-.063,17.55-.037,26.325-.04l4.42,0,28.253,0h6.764l6.709,0,13.946-.019.01,4.665L143.5,22.77l-9.035,0H125.14l-32.744,0-6.828.014c-1.272-.016-2.543-.069-3.813-.041-3.4.074-2.951-.708-3.034,3.061-.023,1.048.413,1.309,1.375,1.277,1.822-.062,3.647-.04,5.471-.053l6.844.011,32.717,0,9.331,0,9.052-.007,23.268-.017ZM32.606,4.656c-.889.424-2.432-.785-3.22,1.064q-4.335,10.165-8.822,20.263c-.462,1.047-.267,1.29.863,1.313,4.208.088,4.242.136,5.891-3.649a1.705,1.705,0,0,1,1.876-1.191c2.276.056,4.555.062,6.83,0a1.8,1.8,0,0,1,2.007,1.268c1.519,3.65,1.554,3.579,5.56,3.579,1.569,0,1.618-.493,1.074-1.737C42,19.471,39.4,13.345,36.763,7.239,35.388,4.06,36.1,4.751,32.606,4.656ZM59.412,4.24c-8.678.021-14.21,7.1-12,15.36,1.559,5.817,7.674,9.353,14.259,8.281,4.173-.679,7.207-2.68,8.507-6.853.341-1.09.267-1.68-1.1-1.579-.994.074-2,.033-3,.009a1.139,1.139,0,0,0-1.29.763c-1.066,2.773-3.246,3.722-6.083,3.531a5.947,5.947,0,0,1-5.573-4.444,9.8,9.8,0,0,1,.125-6.784A5.959,5.959,0,0,1,58.5,8.52c2.489-.249,4.77.242,6.065,2.509a2.312,2.312,0,0,0,2.61,1.4c1.065-.141,2.612.562,3.1-.415.6-1.21-.406-2.531-1.2-3.572C66.655,5.282,63.27,4.2,59.412,4.24ZM15.254,16.056V9.134c0-4.539,0-4.5-4.518-4.5-1.232,0-1.635.337-1.622,1.58.059,5.548.025,11.1.025,16.646,0,4.549,0,4.516,4.583,4.438,1.145-.02,1.571-.361,1.551-1.519C15.216,22.539,15.254,19.3,15.254,16.056Z" transform="translate(0)" fill="#fefefe"/>
            <path id="Path_124" data-name="Path 124" d="M32.369,19.526l3.4-8.3c1.108,2.792,2.036,5.1,2.934,7.421.255.658-.123.88-.747.878C36.191,19.521,34.424,19.526,32.369,19.526Z" transform="translate(-3.052 -1.059)" fill="#fefefe"/>
          </g>
        </g>
      </g>
    </g>
  </g>
</svg>
