<svg xmlns="http://www.w3.org/2000/svg" xmlns:xlink="http://www.w3.org/1999/xlink" width="270" height="116" viewBox="0 0 270 116">
  <defs>
    <filter id="Rectangle_104" x="0" y="0" width="270" height="116" filterUnits="userSpaceOnUse">
      <feOffset dx="7" dy="8" input="SourceAlpha"/>
      <feGaussianBlur stdDeviation="5.5" result="blur"/>
      <feFlood flood-opacity="0.161"/>
      <feComposite operator="in" in2="blur"/>
      <feComposite in="SourceGraphic"/>
    </filter>
    <clipPath id="clip-path">
      <rect id="Rectangle_105" data-name="Rectangle 105" width="194" height="61" transform="translate(687 2442)" fill="#fff"/>
    </clipPath>
  </defs>
  <g id="Laird" transform="translate(-656.5 -2421.5)">
    <g transform="matrix(1, 0, 0, 1, 656.5, 2421.5)" filter="url(#Rectangle_104)">
      <rect id="Rectangle_104-2" data-name="Rectangle 104" width="237" height="83" rx="15" transform="translate(9.5 8.5)" fill="#3a86f5"/>
    </g>
    <g id="Mask_Group_6" data-name="Mask Group 6" clip-path="url(#clip-path)">
      <g id="Laird-2" data-name="Laird" transform="translate(784 2472.5)">
        <g id="Group_181" data-name="Group 181" transform="translate(-63.816 -19.473)">
          <path id="Path_106" data-name="Path 106" d="M119.985,37.274c-1.288.3-2.574.606-3.866.884-1.6.344-3.213.667-4.822.987-1.334.266-2.668.538-4.01.765-1.373.232-2.753.424-4.133.612-1.686.229-3.375.43-5.061.651-1.042.137-2.08.31-3.124.427-2.543.285-5.085.626-7.636.789-1.507.1-3,.268-4.508.37-3.838.26-7.672.631-11.513.762-3.137.107-6.271.286-9.409.392-9.308.315-18.617.263-27.926.178-5.277-.048-10.558-.237-15.828-.538-4.123-.236-8.251-.485-12.365-.848-1.927-.171-3.862-.233-5.783-.459v-1.2c2.622.045,5.232.284,7.845.486.938.072,1.884.039,2.824.094,11.809.689,23.629.6,35.449.51,3.167-.024,6.341-.123,9.5-.3,4.211-.232,8.435-.277,12.634-.743,1.64-.182,3.3-.163,4.947-.316,2.292-.212,4.572-.549,6.866-.739,1.957-.162,3.9-.415,5.842-.679,2.217-.3,4.429-.645,6.638-1,1.735-.282,3.477-.547,5.189-.936,4.321-.983,8.682-1.878,12.563-4.175a13.094,13.094,0,0,0,2.343-1.791,3.661,3.661,0,0,0-.148-5.446,13.194,13.194,0,0,0-4.7-2.661,83.733,83.733,0,0,0-9.777-2.78,30.628,30.628,0,0,0-3.476-.7c.226-.282.473-.2.679-.195,2.408.09,4.786.472,7.177.737,1.5.165,2.988.395,4.475.628,1.423.223,2.849.438,4.264.728,1.523.312,3.054.591,4.575.92,1.438.311,2.862.667,4.28,1.052C127.546,25.791,132.518,33.163,119.985,37.274Z" transform="translate(0 -5.206)" fill="#fff"/>
          <path id="Path_107" data-name="Path 107" d="M108.416,8.185c0-2.38.038-4.8-.021-7.214-.02-.806.215-1,.989-.967,1.6.063,3.2.035,4.8.008.489-.009.629.144.627.631q-.02,13.023,0,26.044c0,.495-.162.631-.642.623-1.656-.024-3.315-.039-4.969.01-.665.02-.876-.2-.786-.831a8.709,8.709,0,0,0,.007-1.075c-.995.625-1.8,1.279-2.719,1.743a7.67,7.67,0,0,1-10.956-5.037,17.1,17.1,0,0,1-.452-6.6c.559-3.9,2.592-7.091,6.9-8.249a9.892,9.892,0,0,1,6.855.865C108.14,8.183,108.215,8.284,108.416,8.185Zm0,9h0V13.93c0-1.611.018-1.669-1.477-2.11-1.693-.5-4.605.213-5.477,2.21a9.435,9.435,0,0,0-.445,6.384,3.207,3.207,0,0,0,2.055,2.416,5.7,5.7,0,0,0,4.875-.543.9.9,0,0,0,.475-.912C108.4,19.977,108.412,18.58,108.412,17.182Z" transform="translate(-24.938 0)" fill="#fff"/>
          <path id="Path_108" data-name="Path 108" d="M46.722,22.227c0,2.256-.021,4.512.015,6.767.01.62-.126.848-.795.826-1.626-.051-3.256-.047-4.883,0-.627.018-.821-.2-.741-.778a3.7,3.7,0,0,0,0-.6c-.011-.464-.187-.471-.513-.2a8.467,8.467,0,0,1-3.9,1.938c-3.12.537-7.071.113-8.46-3.709-1.188-3.271-.126-6.587,3.434-8.087a18.884,18.884,0,0,1,5.274-1.173,32.3,32.3,0,0,1,3.659-.254c.394,0,.544-.135.534-.559a2.186,2.186,0,0,0-1.608-2.159,11.845,11.845,0,0,0-6.873.132c-.823.279-1.656.528-2.479.809-.416.143-.617-.018-.621-.416-.014-1.285-.01-2.57,0-3.854a.516.516,0,0,1,.4-.579,30.9,30.9,0,0,1,10.241-.695,11.717,11.717,0,0,1,4.447,1.211,5.405,5.405,0,0,1,2.851,4.79C46.764,17.829,46.721,20.028,46.722,22.227Zm-6.4.512h0c0-.57-.013-1.142.005-1.712.01-.335-.11-.485-.448-.425a28.774,28.774,0,0,0-4.848.822,2.305,2.305,0,0,0-1.647,2.4,1.91,1.91,0,0,0,1.267,2,5.733,5.733,0,0,0,4.142-.151c1.1-.432,1.778-1.05,1.539-2.33A3.315,3.315,0,0,1,40.324,22.739Z" transform="translate(-7.148 -2.502)" fill="#fff"/>
          <path id="Path_109" data-name="Path 109" d="M.5,14.638C.5,10.556.517,6.475.491,2.393c0-.625.142-.84.8-.821,1.711.049,3.427.065,5.138,0,.845-.035.975.295.973,1.035-.024,6.365,0,12.731-.032,19.1,0,.809.233.989,1,.979,3.369-.04,6.739.013,10.107-.039.819-.013,1,.242.961,1-.063,1.11-.036,2.227-.007,3.339.014.521-.079.757-.695.754q-8.779-.036-17.559,0c-.631,0-.684-.259-.683-.764C.512,22.859.506,18.749.5,14.638Z" transform="translate(-0.13 -0.414)" fill="#fff"/>
          <path id="Path_110" data-name="Path 110" d="M73.919,20.111c0-3.024.019-6.048-.015-9.072-.007-.637.154-.842.8-.825q2.438.065,4.879,0c.6-.015.733.206.69.738a13.705,13.705,0,0,0,0,1.454c0,.188-.112.438.089.553.265.151.4-.151.559-.276a9.418,9.418,0,0,1,3.694-2.016,9.006,9.006,0,0,1,3.018-.415c.493.052.71.2.7.72-.022,1.626-.014,3.252,0,4.878,0,.395-.107.591-.537.537-.79-.1-1.587-.1-2.382-.195a12.7,12.7,0,0,0-4.921.719c-.408.115-.215.484-.217.73-.013,3.823-.026,7.645.005,11.467.006.681-.119.945-.871.914-1.567-.064-3.138-.046-4.707,0-.656.018-.812-.213-.8-.839.031-3.024.014-6.048.014-9.071Z" transform="translate(-19.575 -2.705)" fill="#fff"/>
          <path id="Path_111" data-name="Path 111" d="M65.887,20.12c0,3.026-.016,6.054.014,9.079.006.606-.092.856-.778.834-1.655-.056-3.312-.04-4.968-.01-.516.01-.685-.111-.683-.657q.028-9.208,0-18.416c0-.515.078-.756.69-.739q2.525.071,5.054,0c.624-.019.684.241.681.745-.015,3.055-.007,6.11-.007,9.165Z" transform="translate(-15.753 -2.704)" fill="#fff"/>
          <path id="Path_112" data-name="Path 112" d="M62.553,4.785c-.912,0-1.825-.018-2.736.007-.454.012-.676-.088-.662-.608q.05-1.794,0-3.59c-.012-.468.164-.579.595-.576q2.864.024,5.729,0c.457-.005.587.157.577.6q-.039,1.794,0,3.59c.01.459-.162.6-.6.586C64.492,4.77,63.523,4.785,62.553,4.785Z" transform="translate(-15.669 -0.005)" fill="#fff"/>
          <path id="Path_113" data-name="Path 113" d="M124.87,2c-.42-1.612-.42-1.612-1-1.907,1.245-.046,2.649-.487,3.116,1.467.057-.548.352-.882.409-1.294a.257.257,0,0,1,.274-.259c.221,0,.306.134.295.329a9.17,9.17,0,0,1-.074,1.872c-.431-.2-.117-.611-.332-.853-.277-.018-.351.182-.44.4-.067.168-.271.376-.4.143-.635-1.141-.543.093-.812.282-.29-.438-.084-.9-.162-1.316-.042-.223.187-.617-.3-.6-.39.012-.626.195-.586.646C124.9,1.273,124.87,1.64,124.87,2Z" transform="translate(-32.813 -0.003)" fill="#fff"/>
        </g>
      </g>
    </g>
  </g>
</svg>
