<svg xmlns="http://www.w3.org/2000/svg" xmlns:xlink="http://www.w3.org/1999/xlink" width="270" height="116" viewBox="0 0 270 116">
  <defs>
    <filter id="Rectangle_104" x="0" y="0" width="270" height="116" filterUnits="userSpaceOnUse">
      <feOffset dx="7" dy="8" input="SourceAlpha"/>
      <feGaussianBlur stdDeviation="5.5" result="blur"/>
      <feFlood flood-opacity="0.161"/>
      <feComposite operator="in" in2="blur"/>
      <feComposite in="SourceGraphic"/>
    </filter>
    <clipPath id="clip-path">
      <rect id="Rectangle_105" data-name="Rectangle 105" width="194" height="61" transform="translate(687 2442)" fill="#fff"/>
    </clipPath>
  </defs>
  <g id="Scosche" transform="translate(-656.5 -2421.5)">
    <g transform="matrix(1, 0, 0, 1, 656.5, 2421.5)" filter="url(#Rectangle_104)">
      <rect id="Rectangle_104-2" data-name="Rectangle 104" width="237" height="83" rx="15" transform="translate(9.5 8.5)" fill="#3a86f5"/>
    </g>
    <g id="Mask_Group_1" data-name="Mask Group 1" clip-path="url(#clip-path)">
      <g id="Scosche-2" data-name="Scosche" transform="translate(784 2472.5)">
        <g id="Group_175" data-name="Group 175" transform="translate(-84.253 -11.187)">
          <path id="Path_98" data-name="Path 98" d="M149.726,6.435a3.558,3.558,0,0,1-2.768,2.587,10.768,10.768,0,0,1-2.651.3c-2.518.038-5.038.045-7.555,0a2.119,2.119,0,0,0-2.106,1.032,18.855,18.855,0,0,0-1.367,3.352c-.232.783.19,1.366,1.1,1.367,4.043.009,8.087.02,12.129-.022.268,0,.641-.4.779-.7,1.082-2.342,2.152-4.691,3.149-7.07a1.136,1.136,0,0,1,1.41-.842c.554.093,1.122.108,1.672.212,1.174.221,1.6.862,1.224,2-.464,1.412-1.027,2.792-1.545,4.187-.055.149-.093.3-.175.58,2.224,0,4.364.023,6.5-.03.255-.006.591-.373.733-.653a22.711,22.711,0,0,0,1.172-2.626,5.2,5.2,0,0,1,4.59-3.564c.813-.108,1.636-.144,2.632-.229-.739,1.818-1.414,3.491-2.1,5.159-.793,1.926-1.6,3.844-2.389,5.773a1.135,1.135,0,0,1-1.27.846c-.659-.055-1.325-.008-1.988-.013-1.932-.015-2.149-.206-2.38-2.176-2.093,0-4.2-.016-6.311.025-.213,0-.485.31-.62.54a2.957,2.957,0,0,1-2.737,1.495q-9.1.024-18.194-.006a6.753,6.753,0,0,1-1.757-.291,2.135,2.135,0,0,1-1.646-2.4,11.7,11.7,0,0,1,3.47-7.176,6.211,6.211,0,0,1,4.315-1.739c4.738-.031,9.478-.016,14.217-.015A2.991,2.991,0,0,1,149.726,6.435Z" transform="translate(-19.111 -0.949)" fill="#fff"/>
          <path id="Path_99" data-name="Path 99" d="M21.587,11.176q0,3.228,0,6.456a2.859,2.859,0,0,1-1.9,2.856,21.859,21.859,0,0,1-17.818-.025A2.813,2.813,0,0,1,.008,17.7C-.005,13.359,0,9.021,0,4.685A2.814,2.814,0,0,1,1.857,1.9a21.876,21.876,0,0,1,17.812-.016A2.9,2.9,0,0,1,21.592,4.82C21.574,6.939,21.587,9.057,21.587,11.176ZM13.76.932,13.654.7c-1.735,0-3.471-.016-5.2.019a1.231,1.231,0,0,0-.75.4C5.459,3.461,3.222,5.81,1.027,8.2a2.149,2.149,0,0,0-.495,1.31C.486,12.125.533,14.743.5,17.36A2.723,2.723,0,0,0,2,20.028a2.5,2.5,0,0,0,3.154-.373c.377-.322.76-.642,1.1-1,2.776-2.888,5.532-5.8,8.331-8.66.281-.287.813-.329,1.229-.484.166.486.563,1.038.446,1.441a4.826,4.826,0,0,1-1.118,1.83c-2.136,2.308-4.325,4.567-6.488,6.849-.552.582-1.08,1.187-1.618,1.781l.115.391c1.707,0,3.415.008,5.123-.012a.934.934,0,0,0,.6-.259c2.6-2.732,5.2-5.466,7.765-8.236a2.021,2.021,0,0,0,.416-1.248c.039-2.351,0-4.7.026-7.057a2.72,2.72,0,0,0-1.876-2.729C18,1.726,17,1.5,15.938,2.639c-2.908,3.125-5.9,6.176-8.853,9.255a11.959,11.959,0,0,1-1.409,1.391,1.383,1.383,0,0,1-1.147.274,1.331,1.331,0,0,1-.59-1.106,5.175,5.175,0,0,1,.991-2.184C7.035,7.934,9.242,5.692,11.41,3.414Q12.589,2.176,13.76.932Z" transform="translate(0 0)" fill="#fff"/>
          <path id="Path_100" data-name="Path 100" d="M102.462,18.032a6.79,6.79,0,0,1,5.631-2.8c2.383-.059,4.769-.006,7.154-.02a3.8,3.8,0,0,0,1.463-.173c.354-.156.581-.6.865-.923-.344-.162-.685-.46-1.032-.467-2.252-.042-4.5-.021-6.756-.022-.265,0-.53,0-.8,0-2.983-.046-3.755-1.284-2.446-3.966.868-1.778,2.219-3.092,4.252-3.131,4.993-.1,9.99-.031,15.033-.031a2.5,2.5,0,0,1-1.938,2.153,14.171,14.171,0,0,1-3.4.547c-2.747.076-5.5-.005-8.246.051a3.033,3.033,0,0,0-1.605.573c-.511.368-.317.917.314,1.061a4.023,4.023,0,0,0,.89.048c2.815,0,5.63-.013,8.445.007,2.658.019,3.3.951,2.333,3.405a5.206,5.206,0,0,1-5.111,3.683C112.577,18.045,107.644,18.032,102.462,18.032Z" transform="translate(-15.391 -0.973)" fill="#fff"/>
          <path id="Path_101" data-name="Path 101" d="M55.17,6.494a3.005,3.005,0,0,1-2.52,2.341,19.782,19.782,0,0,1-3.542.37c-2.45.054-4.9.014-7.354.02a2.13,2.13,0,0,0-1.069.1,5.661,5.661,0,0,0-.982,1.089,3.412,3.412,0,0,0,1.152.5c2.849.043,5.7.02,8.546.025s3.533,1.026,2.39,3.659A5.059,5.059,0,0,1,47,18.006c-4.9.046-9.8.022-14.708.024a2.294,2.294,0,0,1-.382-.088,4.987,4.987,0,0,1,3.008-2.27,9.722,9.722,0,0,1,2.825-.437c2.317-.059,4.637-.005,6.956-.03a4.094,4.094,0,0,0,1.546-.255c.282-.122.422-.574.626-.879-.291-.149-.58-.422-.873-.427-2.451-.035-4.9-.009-7.354-.027a9.652,9.652,0,0,1-1.872-.171,1.658,1.658,0,0,1-1.47-2.157,5.319,5.319,0,0,1,4.859-4.755C45.119,6.392,50.086,6.494,55.17,6.494Z" transform="translate(-4.793 -0.97)" fill="#fff"/>
          <path id="Path_102" data-name="Path 102" d="M93.478,6.4c1.654,0,3.312-.073,4.961.017,2.817.153,3.939,1.6,3.136,4.292-1.425,4.79-4.224,7.413-9.351,7.438q-4.166.02-8.331-.173a7.842,7.842,0,0,1-2.459-.668,2.014,2.014,0,0,1-1.221-2.093c.1-3.5,2.848-8.646,8.3-8.787,1.653-.042,3.307-.006,4.961-.006Zm-3.484,9.089v.005c.86,0,1.726-.065,2.579.014a3.212,3.212,0,0,0,3.446-2.121,13.531,13.531,0,0,0,.882-2.515c.316-1.347-.255-2.037-1.617-2.053C93.6,8.8,91.909,8.81,90.221,8.81a5.131,5.131,0,0,0-5.249,4.643c-.175,1.289.352,1.972,1.647,2.024C87.742,15.521,88.869,15.486,89.994,15.486Z" transform="translate(-12.048 -0.956)" fill="#fff"/>
          <path id="Path_103" data-name="Path 103" d="M79.214,6.426a3.715,3.715,0,0,1-3.691,2.808c-2.876.118-5.757.1-8.636.11-1.016,0-1.979-.01-2.666.937A6.264,6.264,0,0,0,62.8,14.11c.016.753.562.942,1.25.937,2.549-.019,5.1-.029,7.647.007a9.326,9.326,0,0,1,2.148.3A1.377,1.377,0,0,1,74.9,17.1c-.128.887-.7.945-1.431.941-4.138-.025-8.276,0-12.414-.023a11.862,11.862,0,0,1-2.359-.232,2.105,2.105,0,0,1-1.825-2.525c.476-3.092,1.542-5.924,4.268-7.751a5.66,5.66,0,0,1,2.822-1.04C69.016,6.372,74.076,6.426,79.214,6.426Z" transform="translate(-8.537 -0.963)" fill="#fff"/>
          <path id="Path_104" data-name="Path 104" d="M194.542,6.423a3.248,3.248,0,0,1-3.02,2.6c-2.21.126-4.427.134-6.641.176-1.059.02-2.119.031-3.177,0a2.03,2.03,0,0,0-2.05,1.125,32.3,32.3,0,0,0-1.507,3.549c-.343.977-.019,1.351,1.022,1.355,2.946.011,5.892,0,8.84.008,1.494.007,2.246.583,2.32,1.745.042.651-.15,1.06-.938,1.054-4.071-.031-8.145.038-12.215-.056-3.55-.082-4.691-1.982-3.215-5.191a35.186,35.186,0,0,1,1.766-3.322,6.216,6.216,0,0,1,5.637-3.1c4.27-.035,8.541-.014,12.811-.013A1.853,1.853,0,0,1,194.542,6.423Z" transform="translate(-26.036 -0.952)" fill="#fff"/>
          <path id="Path_105" data-name="Path 105" d="M192.168,12.517c-.342,1.954-.443,2.043-2.223,2.043-1.655,0-3.312.015-4.967-.01a4.9,4.9,0,0,1-1.355-.222.994.994,0,0,1-.764-1.208c.1-.693.572-.7,1.1-.7,2.484.006,4.968,0,7.452.007A6.524,6.524,0,0,1,192.168,12.517Z" transform="translate(-27.464 -1.865)" fill="#fff"/>
        </g>
      </g>
    </g>
  </g>
</svg>
