<svg xmlns="http://www.w3.org/2000/svg" xmlns:xlink="http://www.w3.org/1999/xlink" width="46" height="46" viewBox="0 0 46 46">
  <defs>
    <clipPath id="clip-path">
      <circle id="Ellipse_149" data-name="Ellipse 149" cx="23" cy="23" r="23" fill="#fdb82c"/>
    </clipPath>
  </defs>
  <g id="Artwork_18" data-name="Artwork 18" transform="translate(14.266 14.266)">
    <g id="Group_3135" data-name="Group 3135" transform="translate(-14.266 -14.266)">
      <circle id="Ellipse_148" data-name="Ellipse 148" cx="23" cy="23" r="23" fill="#fdb82c"/>
      <g id="Group_3134" data-name="Group 3134" clip-path="url(#clip-path)">
        <path id="Path_4369" data-name="Path 4369" d="M6.073,9.073l10.1,15.178c.714-.487,1.408-.961,2.1-1.433l7.173-4.86,5.92-4.009.018-.012a1.594,1.594,0,0,1,1.622-.377,8.275,8.275,0,0,1,4.081,1.634,4.376,4.376,0,0,1,1.781,2.525,1.655,1.655,0,0,1-.379,1.516,1.093,1.093,0,0,1-.736.376c.089.378.181.744.261,1.112a5.937,5.937,0,0,1,.132,2.005,2.2,2.2,0,0,0,.6,1.845,11.463,11.463,0,0,1,1.553,2.81,5.97,5.97,0,0,1,.308.82,1.218,1.218,0,0,1-.428,1.373,1.594,1.594,0,0,1-1.121.361c-.166-.008-.333,0-.564,0a4.331,4.331,0,0,0,.13.666,1.766,1.766,0,0,1,.146.918.712.712,0,0,1-.155.376.5.5,0,0,0-.137.491,1.172,1.172,0,0,1-.417,1.016.472.472,0,0,0-.133.367,7.7,7.7,0,0,1-.073,1.568,2.894,2.894,0,0,1-2.431,2.211,7.636,7.636,0,0,1-1.265.1c-.431.023-.863.028-1.294.053a.921.921,0,0,0-.992.971c-.031.342-.024.689-.073,1.028-.09.626,1.987,5.917,1.36,5.917-.922,0,.922,1.878,0,1.878-2.575,0-4.935,2.815-7.51,2.816-.939.939-6.213-.939-6.571-.939a40.2,40.2,0,0,1-5.633-3.755c-.181-.245,4.568-6.139,4.683-6.425.324-.806.651-1.612,1-2.409a9.712,9.712,0,0,0,.83-3.142,4.194,4.194,0,0,0-.445-2.185c-.476-.978-.988-1.94-1.51-2.894a18.491,18.491,0,0,1-1.643-3.532c-.07-.237-.127-.478-.191-.715-.443.025-.872.072-1.3.073a9,9,0,0,1-8.119-4.494,11.831,11.831,0,0,1-1.692-5.366,9.432,9.432,0,0,1,.191-3.4c.2-.7.484-1.374.73-2.06Z" transform="translate(-0.305 -0.555)" fill="#fff"/>
      </g>
    </g>
  </g>
</svg>
