<svg xmlns="http://www.w3.org/2000/svg" xmlns:xlink="http://www.w3.org/1999/xlink" width="466.438" height="300.995" viewBox="0 0 466.438 300.995">
  <defs>
    <filter id="Path_5708" x="0" y="0" width="466.438" height="300.995" filterUnits="userSpaceOnUse">
      <feOffset dx="7" dy="7" input="SourceAlpha"/>
      <feGaussianBlur stdDeviation="5" result="blur"/>
      <feFlood flood-opacity="0.302"/>
      <feComposite operator="in" in2="blur"/>
      <feComposite in="SourceGraphic"/>
    </filter>
  </defs>
  <g id="Artwork_37" data-name="Artwork 37" transform="translate(226.219 143.498)">
    <g transform="matrix(1, 0, 0, 1, -226.22, -143.5)" filter="url(#Path_5708)">
      <path id="Path_5708-2" data-name="Path 5708" d="M334.1,222.927c-3.815,16.215-12.689,28.334-29.751,33.437-17.12,5.12-31.778.137-44.873-11.506-14.634,17.6-33.319,27.407-57.191,26.005-23.676-1.391-41.025-12.86-53.265-32.265-2.394,1.266-4.529,2.4-6.666,3.524-30.043,15.849-66.977.327-74.233-31.367-.907-3.958-2.721-5.135-6.839-5.673C26.423,200.523,1.2,174.39.041,141.983-1.116,109.635,22.4,81.914,56.777,75.258c3.258-.631,5.078-1.709,6.131-5.037,11.777-37.238,53.9-54.338,90.945-37.1,1.63.759,3.3,1.452,5.331,2.345,1.3-2.035,2.484-3.9,3.674-5.772C186.252-7.01,240.38-10.356,268.335,23.391c3.508,4.235,5.831,4.553,10.816,2.183C318.1,7.055,363.733,28.8,371.134,69.253c.629,3.436,1.968,4.677,5.664,5.009,29.189,2.625,52,21.036,58.044,46.6,6.151,26-5.75,51.048-30.966,65.664a7.722,7.722,0,0,0-3.462,4.991c-3.542,29.942-31.64,45.3-61.19,33.307C337.714,224.206,336.162,223.685,334.1,222.927Z" transform="translate(8 8)" fill="#fff"/>
    </g>
  </g>
</svg>
