<svg xmlns="http://www.w3.org/2000/svg" width="385.805" height="386.319" viewBox="0 0 385.805 386.319">
  <g id="Artwork_41" data-name="Artwork 41" transform="translate(192.902 193.159)" opacity="0.3">
    <g id="Group_3879" data-name="Group 3879" transform="translate(-192.902 -193.159)">
      <path id="Path_5850" data-name="Path 5850" d="M4.452,241.469c-.01.833-.593.919-1.235.919-1,0-2,.01-3,.019L.05,239.191A7.877,7.877,0,0,0,.6,237.507c.115-1.206,1.034-2.546-.45-3.551q.029-3.776.057-7.532a11.364,11.364,0,0,1,1.732-.412c2.929-.239,3.331.144,3.321,3.082a29.06,29.06,0,0,0,.029,3.981C5.706,235.966,4.452,238.646,4.452,241.469Z" transform="translate(-0.002 -9.701)" fill="#744c32"/>
      <path id="Path_5851" data-name="Path 5851" d="M4.059,364.16c.077,1.177-.45,1.732-1.646,1.675-.727-.038-1.464,0-2.192.01-.067-1.34-.134-2.68-.191-4.029a15.349,15.349,0,0,0,.057-4.393q.043-3.374.105-6.766c.756-.163.5-1.378,1.771-1.311,1.828.1,2.574.5,2.555,2.5C4.48,355.949,3.782,360.035,4.059,364.16Z" transform="translate(-0.001 -14.999)" fill="#744c32"/>
      <path id="Path_5852" data-name="Path 5852" d="M205.014,373.93a53.471,53.471,0,0,0-8.9,7.749,5.648,5.648,0,0,0-1.417,5.709c.121.441.172.9.257,1.353a13.245,13.245,0,0,1-7.15-1.32,5.372,5.372,0,0,1-3.184-5.062c-.07-2.125-.04-4.253-.055-6.379l.83-4.839a4.3,4.3,0,0,0,2.2,3.008,15.585,15.585,0,0,0,9.595,1.9c2.779-.38,5.473-1.114,6.983-3.886C204.813,372.606,204.824,373.311,205.014,373.93Z" transform="translate(-7.925 -15.935)" fill="#1d1b28"/>
      <path id="Path_5853" data-name="Path 5853" d="M205.051,373.919c-.189-.619-.2-1.324-.842-1.764-1.509,2.772-4.2,3.506-6.983,3.886a15.585,15.585,0,0,1-9.595-1.9,4.3,4.3,0,0,1-2.2-3.008l0-.157c1.686-.466,2.944.924,4.564,1,4.667.223,9.306.379,13.88-.818l.276.283.063-.305a.766.766,0,0,1,.325.114q.84.93,1.681,1.86Z" transform="translate(-7.962 -15.924)" fill="#e7e7e7"/>
      <path id="Path_5854" data-name="Path 5854" d="M280.98,390.3c-.553-.229-1.21-.36-.582-1.21,2.194-2.971,2.08-4.681-.138-7.367a40.945,40.945,0,0,0-6.271-5.872,3.633,3.633,0,0,1-.828-1.073c.488-.561.858-.267,1.338.09,6.016,4.474,12.362,4.18,17.885-.8.732-.66.341.342.587.4l.056,1.218c-.032.568-.191,1.182.515,1.5q.02.474.041.946c-.039,1.976.078,3.971-.152,5.925-.417,3.538-2.881,5.638-6.836,6.069-1.05.114-2.108.155-3.162.229a1.922,1.922,0,0,0-1.447.01Z" transform="translate(-11.729 -16.051)" fill="#1d1b28"/>
      <path id="Path_5855" data-name="Path 5855" d="M282.381,391.1a1.922,1.922,0,0,1,1.447-.01C283.35,391.738,282.867,391.718,282.381,391.1Z" transform="translate(-12.125 -16.786)" fill="#8f714f"/>
      <path id="Path_5856" data-name="Path 5856" d="M273.213,372.6c3.259.45,6.513.936,9.776,1.339a21.183,21.183,0,0,0,9.942-1.39c.286.621.662,1.242.009,1.868-.246-.062.145-1.064-.587-.4-5.522,4.976-11.869,5.271-17.885.8-.48-.357-.85-.651-1.338-.09-.26.033-.559.19-.685-.212A2.446,2.446,0,0,1,273.213,372.6Z" transform="translate(-11.697 -15.996)" fill="#e7e7e7"/>
      <path id="Path_5857" data-name="Path 5857" d="M294.431,377.272c-.706-.315-.546-.928-.515-1.5C294.828,376.019,294.588,376.66,294.431,377.272Z" transform="translate(-12.618 -16.134)" fill="#dfb7a5"/>
      <path id="Path_5858" data-name="Path 5858" d="M205.045,371.145l-.063.305-.276-.283A.466.466,0,0,1,205.045,371.145Z" transform="translate(-8.789 -15.934)" fill="#8f714f"/>
      <path id="Path_5859" data-name="Path 5859" d="M305.081,178.183a4.351,4.351,0,0,0-.7.938c-3.024,1.263-5.943,2.842-9.226,3.331-2,.3-3.962,1.034-6.039.622q-.029-21.663-.048-43.336c0-3.79.019-7.551-1.225-11.245a27.692,27.692,0,0,0-12.078-15.428A2.644,2.644,0,0,0,273.8,111.9a29,29,0,0,0-7.743-2.747h-.01a26.441,26.441,0,0,0-5.015-.5c-17.466-.048-34.942-.019-52.409-.029a26.869,26.869,0,0,0-7.484,1.081c-.479.144-.957.287-1.426.459a28.111,28.111,0,0,0-18.9,26.683c.048,3.465.01,6.929.01,10.4q-.043,16.9-.086,33.794c-7.025.871-14.011,1.3-20.663-1.934-7.073-5.292-7.733-12.4-5.876-20.317a182.983,182.983,0,0,1,6.221-19.486c.613-1.273,1.589-2.45,1.2-4.02a1.769,1.769,0,0,0,1.043-.881,165.894,165.894,0,0,1,8.527-17.5A220.011,220.011,0,0,1,183.276,96.6,25.887,25.887,0,0,1,197.335,86.41c.431-.135.852-.258,1.282-.374a65.992,65.992,0,0,1,9.58-1.77c.967-.124,1.943-.23,2.919-.345l2.909-.345a7.719,7.719,0,0,0,6.47-4.833,8.658,8.658,0,0,1,.785-1.11,3.672,3.672,0,0,0,.794,0,45.523,45.523,0,0,1,12.069-.861c4.154.163,8.154,1.215,12.279,1.4,1.627.067,2.383.785,2.6,2.536.3,2.316,1.732,3.292,4.087,3.6,3.828.5,7.656.976,11.456,1.646,5.714,1,10.729,3.34,14.366,8.087.278.364.546.727.794,1.09.479.671.938,1.35,1.369,2.039.22.325.431.66.632,1,.239.392.479.793.718,1.2.3.507.6,1.024.89,1.541.392.68.785,1.369,1.168,2.058.488.861.976,1.723,1.474,2.584,3.962,6.862,7.9,13.752,11.5,20.816,1.531,3.005,3.149,5.963,4.728,8.939.01,1.617,1.081,2.766,1.8,4.058q2.527,6.46,5.044,12.911c.68,2.957,1.531,5.9,2.01,8.891C312.144,167.865,310.757,173.79,305.081,178.183Z" transform="translate(-6.583 -3.293)" fill="#fdb82a"/>
      <path id="Path_5860" data-name="Path 5860" d="M79.964,182.454a.741.741,0,0,1,.289-1.01C80.4,181.851,80.4,182.214,79.964,182.454Z" transform="translate(-3.429 -7.79)" fill="#d0bbb0"/>
      <path id="Path_5861" data-name="Path 5861" d="M102.082,309.669c0-4.948,0-4.958-5.072-4.958q-14.815,0-29.621-.01a25.286,25.286,0,0,0-4.584.306l-.823.029c-.756-.833-1.914.038-2.708-.632-.316.01-.632.01-.947.01-.794.651-1.952-.211-2.708.622l-.823-.029-3.694.029c-.163.029-.316.057-.479.1-.383-.067-.8-.01-1.053-.412l-.038-.057c-1.617-.029-3.225-.067-4.843-.1-.507.182-1.014.354-1.512.536-.632,1.091-1.168.794-1.646-.124-.258-.105-.507-.22-.756-.335-.526.01-1.053.01-1.57.01-.124.067-.239.134-.364.2-10-.306-20-.1-30-.105-.134,0-.268.067-.4.067-1.646-.057-2.173.622-2.163,2.374q.115,30.42,0,60.841c0,1.933.526,2.421,2.441,2.412q45.437-.086,90.864.01c2.039,0,2.565-.507,2.555-2.546C102.043,348.5,102.082,329.078,102.082,309.669Zm-40.914,5.407c-3.838-.077-7.685-.057-11.523-.077l-2.163.086c-2.546.086-2.8-.172-2.747-2.766.01-.823.833-1.225,1.014-1.962.23-.01.45-.029.68-.038l4.785-.115a7.375,7.375,0,0,0,4.364,0c1.857.029,3.7.048,5.561.1,1.608.038,2.8,1.1,2.661,2.5A2.286,2.286,0,0,1,61.167,315.076Z" transform="translate(-0.269 -13.07)" fill="#f9bb7d"/>
      <path id="Path_5862" data-name="Path 5862" d="M101.911,270.683c1.206-1.206.459-2.335-.134-3.474-1.2-.66-2.019-1.349-.029-2.048,1-.345.6-1.139.622-1.8a.212.212,0,0,0-.134-.162c-.038-.306-.077-.6-.124-.909-.756-.45-.431-1.2-.431-1.809q-.029-13.48,0-26.951a7.687,7.687,0,0,0-.794-.078q-46.413,0-92.826-.037c-1.694,0-1.761.766-1.761,2.058q.043,29.616.019,59.213c0,2.776,0,2.785,2.766,2.795q16.208,0,32.406-.01a8.518,8.518,0,0,0,1.483-.038,2.257,2.257,0,0,0,.68-.22c.067-.067.124-.134.182-.191a1.625,1.625,0,0,1,.182-.182c.057-.057.115-.115.172-.163a1.6,1.6,0,0,1,2.106-.058c1.3.738,3.015-.229,4.469.479.392.049.785.1,1.187.154l.144-.134,2.622.029c1.129.306,2.163-.306,3.244-.364.479.613,1.244.287,1.818.554.6-.171,1.2-.353,1.79-.525.947.833,1.9-.144,2.852.01.345.172.689.335,1.034.5.7-.3,1.589.153,2.2-.536.287.029.584.057.881.1,10.595.01,21.189,0,31.784.067,1.474.01,1.8-.555,1.78-1.885-.057-4.728.01-9.465-.038-14.193A100.38,100.38,0,0,0,101.911,270.683ZM61.475,243.6c-2.46-.029-4.919-.01-7.379-.01-2.393,0-4.785-.01-7.178,0a1.93,1.93,0,0,1-2.211-2.182c-.038-1.5.622-2.536,2.106-2.565q7.379-.129,14.758,0a2.237,2.237,0,0,1,2.211,2.565A2.093,2.093,0,0,1,61.475,243.6Z" transform="translate(-0.271 -10.022)" fill="#f9bb7d"/>
      <path id="Path_5863" data-name="Path 5863" d="M102.13,202.175c.029-1.943-.651-2.287-2.4-2.278-15.217.057-30.435.038-45.652.038q-21.922,0-43.843-.01a7.951,7.951,0,0,1-2.192-.057c-1.637-.479-1.742.354-1.742,1.637.038,7.944.067,15.887-.019,23.821-.019,1.665.565,1.981,2.067,1.981q45.752-.057,91.5,0c1.78.01,2.287-.574,2.268-2.307C102.034,217.393,102.005,209.784,102.13,202.175ZM61.369,208.5c-2.393-.038-4.785-.01-7.178-.01s-4.785-.029-7.178.01a1.993,1.993,0,0,1-2.316-2.287c.01-1.512.7-2.45,2.22-2.469q7.278-.072,14.557,0a2.238,2.238,0,0,1,2.307,2.469A2.128,2.128,0,0,1,61.369,208.5Z" transform="translate(-0.27 -8.575)" fill="#f9bb7d"/>
      <path id="Path_5864" data-name="Path 5864" d="M107.22,254.284c-1.024,2.613-.268,5.379-.833,8.011-.756-.45-.431-1.2-.431-1.809q-.029-13.48,0-26.951c.928.488.651,1.378.651,2.134.01,5.666.067,11.332-.086,16.988C106.493,253.538,107.421,253.777,107.22,254.284Z" transform="translate(-4.546 -10.027)" fill="#dfb7a5"/>
      <path id="Path_5865" data-name="Path 5865" d="M174.157,185.636c-7.025.871-14.011,1.3-20.663-1.934q-38.876,0-77.752.011-8.542-.029-17.084-.067H57.615l-30.387.105c-1.053.689-2.106,1.483-3.187.048-1.952-.019-3.9-.048-5.848-.077-5.264.01-10.528.086-15.792-.02-1.771-.028-2.354.374-2.335,2.279.067,12.729.01,25.448-.019,38.177.057.153.105.3.153.45a11.364,11.364,0,0,1,1.732-.412c2.929-.239,3.331.144,3.321,3.082a29.06,29.06,0,0,0,.029,3.981c.421,2.89-.833,5.57-.833,8.393-.01.833-.593.919-1.235.919-1,0-2,.01-3,.019a1.549,1.549,0,0,0-.211-.01c.038.794.1,1.589.1,2.393q.014,48.466,0,96.931c0,.794-.038,1.6-.057,2.393.048.412.1.833.144,1.244.756-.163.5-1.378,1.771-1.311,1.828.1,2.574.5,2.555,2.5-.038,4.107-.737,8.193-.459,12.318.077,1.177-.45,1.732-1.646,1.675-.727-.038-1.464,0-2.192.01-.067,0-.134-.01-.2-.01A46.665,46.665,0,0,1,0,365.564c.029,3.656.057,7.322.115,10.978.01.67-.3,1.646.861,1.646,1.589,0,3.4.574,4.69-.258,1-.641.211-2.354.373-3.579.038-.268.048-.536.067-.8-.2-3.579-.2-3.579,3.254-3.579l83.2.029h1.263c1.168.01,2.335.01,3.512.01a15.129,15.129,0,0,1,5.9.431c.565.163,1.292.3,1.158,1.09-.105.6-.565,1.159-1.273.948-.947-.278-1.034.23-1.034.909,0,1.139.019,2.268-.01,3.4-.019.833.325,1.254,1.168,1.225a1.416,1.416,0,0,1,.2.01c4.048.335,4.01.335,4.068-3.752.019-1.436-.335-2.909.258-4.326-.077-1-.23-1.991-.23-2.986.038-10.739.153-21.477.144-32.215q-.029-34.024-.144-68.038c0-1.062.124-2.134.182-3.2-.01-.469-.01-.938-.019-1.407-.057-2.929-.153-5.857-.163-8.786-.01-17.2.029-34.4-.048-51.586-.01-2.029.517-2.565,2.565-2.555,21.39.077,42.781.048,64.181.057Q174.19,192.436,174.157,185.636ZM6.029,200.815c0-1.282.105-2.115,1.742-1.637a7.951,7.951,0,0,0,2.192.057q21.922.014,43.843.01c15.217,0,30.435.019,45.652-.038,1.751-.01,2.431.335,2.4,2.278-.124,7.609-.1,15.217-.019,22.826.019,1.732-.488,2.316-2.268,2.307q-45.752-.057-91.5,0c-1.5,0-2.086-.316-2.067-1.981C6.1,216.7,6.068,208.758,6.029,200.815ZM99.3,365.267q-45.437-.1-90.864-.01c-1.914.01-2.441-.479-2.441-2.412q.115-30.42,0-60.841c-.01-1.751.517-2.431,2.163-2.374.134,0,.268-.067.4-.067,10,.01,20-.2,30,.105.124-.067.239-.134.364-.2.038-.431-.048-1.014.507-1.081.7-.086.947.479,1.062,1.072.249.115.5.23.756.335.574-.288,1.129-.44,1.646.124.5-.182,1-.354,1.512-.536,1.617.029,3.225.067,4.843.1l.038.057c.526.048,1.1-.172,1.531.316l3.694-.029.823.029c.756-.833,1.914.029,2.708-.622.316,0,.632,0,.947-.01.794.67,1.952-.2,2.708.632l.823-.029a25.286,25.286,0,0,1,4.584-.306q14.8.029,29.621.01c5.072,0,5.072.01,5.072,4.958,0,19.409-.038,38.828.048,58.237C101.87,364.76,101.343,365.267,99.3,365.267Zm3.369-113.125c-1.024,2.613-.268,5.379-.833,8.011.048.306.086.6.124.909a.212.212,0,0,1,.134.162c-.019.661.383,1.456-.622,1.8-1.991.7-1.168,1.388.029,2.048.593,1.139,1.34,2.268.134,3.474a100.379,100.379,0,0,1,.153,10.183c.048,4.728-.019,9.465.038,14.193.019,1.33-.306,1.895-1.78,1.885-10.595-.067-21.189-.057-31.784-.067-.3-.038-.593-.067-.881-.1-.613.689-1.5.239-2.2.536-.345-.163-.689-.325-1.034-.5-.947-.153-1.9.823-2.852-.01-.593.172-1.187.354-1.79.525-.574-.267-1.34.058-1.818-.554-1.081.057-2.115.67-3.244.364l-2.622-.029-.144.134c-.4-.057-.794-.105-1.187-.154-1.455-.707-3.168.259-4.469-.479a1.6,1.6,0,0,0-2.106.058c-.057.048-.115.105-.172.163a1.628,1.628,0,0,0-.182.182c-.057.057-.115.124-.182.191v.01a2.536,2.536,0,0,1-.68.211,8.518,8.518,0,0,1-1.483.038q-16.208.014-32.406.01c-2.766-.01-2.766-.019-2.766-2.795q0-29.6-.019-59.214c0-1.292.067-2.058,1.761-2.058q46.413.072,92.826.037a7.687,7.687,0,0,1,.794.078c.928.488.651,1.378.651,2.134.01,5.666.067,11.332-.086,16.988C101.946,251.4,102.875,251.635,102.674,252.142Z" transform="translate(0 -7.885)" fill="#fecd98"/>
      <path id="Path_5866" data-name="Path 5866" d="M42.25,304.607c-.526.01-1.053.01-1.57.01.038-.431-.048-1.014.507-1.081C41.886,303.448,42.135,304.013,42.25,304.607Z" transform="translate(-1.747 -13.032)" fill="#d0bbb0"/>
      <path id="Path_5867" data-name="Path 5867" d="M44.756,305.118c-.632,1.091-1.168.794-1.646-.124C43.684,304.705,44.239,304.553,44.756,305.118Z" transform="translate(-1.851 -13.084)" fill="#d0bbb0"/>
      <path id="Path_5868" data-name="Path 5868" d="M207.918,21.689a65.79,65.79,0,0,0-.212,13.065c-.244.491-.318.959.19,1.344l.123,1.518c-.747.044-.791-1.407-1.721-.86a2.324,2.324,0,0,0-1.264,2.26,1.17,1.17,0,0,1-.364,1.066c-2.26,0-4.52.017-6.78,0-1.025-.01-1.651.321-1.661,1.467-.042,4.375.187,8.756-.375,13.117-.179,1.387.515,1.876,1.87,1.86,4.12-.048,8.242-.055,12.362.011a2.251,2.251,0,0,0,2.089-1.2A116.762,116.762,0,0,0,219.5,72.225a3.353,3.353,0,0,1,.749,2.925,7.776,7.776,0,0,0-.787,1.107A7.721,7.721,0,0,1,213,81.091c-5.595.691-11.229,1.122-16.7,2.83a25.888,25.888,0,0,0-14.055,10.2,220.4,220.4,0,0,0-12.085,20.3,166.7,166.7,0,0,0-8.529,17.5,1.727,1.727,0,0,1-1.046.877c-7.739.011-15.48-.084-23.215.076-4.961.1-8.079-3.2-8.06-8.175.12-32.689.076-65.38.037-98.069a7.543,7.543,0,0,1,3.358-6.8,5.887,5.887,0,0,1,3.4-.905c11.673-.071,23.349-.079,35.023-.092a2.376,2.376,0,0,1,.715.245c.518.78,1.031.8,1.535-.013a2.386,2.386,0,0,1,.715-.239q15.737.027,31.472.088a2.282,2.282,0,0,1,.568.153C207.357,19.514,207.33,20.81,207.918,21.689Z" transform="translate(-5.552 -0.808)" fill="#e7e7e7"/>
      <path id="Path_5869" data-name="Path 5869" d="M398.478,375.919c-.16,2.424-.162,2.313-3.629,2.4-2.081.05-2.013-1.179-2-2.562,0-.329-.023-.659-.036-.99.175-2.007-.229-3.993-.246-5.986-.123-14.21-.807-28.4-1.185-42.6-.368-13.869-.91-27.732-1.242-41.6-.306-12.8-.883-25.6-1.155-38.4-.316-14.873-.92-29.734-1.291-44.6-.048-1.92-.512-2.411-2.441-2.407q-43.949.1-87.9.049c-.733,0-1.467.036-2.2.056q.026-5.8.054-11.6c2.075.409,4.041-.329,6.038-.626,3.285-.488,6.208-2.062,9.229-3.331l53.021-.011a4.111,4.111,0,0,0,2.311.424q11.946-.009,23.892.01a7.3,7.3,0,0,0,2.528-.412c1.4.007,2.808.118,4.2,0,1.553-.138,2.028.35,2.018,1.965-.068,12.069-.032,24.138-.032,36.208q0,76.115,0,152.232C398.407,374.721,398.453,375.32,398.478,375.919Z" transform="translate(-12.673 -7.887)" fill="#fecd98"/>
      <path id="Path_5870" data-name="Path 5870" d="M224.3,77.508a3.353,3.353,0,0,0-.749-2.925c1.017-.1,2.153.372,2.991-.634.1-.124.394-.245.5-.187,4.469,2.342,9.335.919,13.991,1.47,2.834.336,5.691-.5,8.545-.077q-.072,1.441-.143,2.883c-4.121-.18-8.128-1.232-12.277-1.393a45.219,45.219,0,0,0-12.072.858A3.565,3.565,0,0,1,224.3,77.508Z" transform="translate(-9.599 -3.166)" fill="#f2ae8e"/>
      <path id="Path_5871" data-name="Path 5871" d="M196.486,14.887a1.947,1.947,0,0,0-.391-.079c-20.473,0-40.946-.033-61.419.018-4.7.011-8.234,3.176-9.174,7.853l-.011.413q.02,17.859.035,35.72-.009-17.86-.035-35.72c-.621.744-.143,1.673-.419,2.474q.013,14.151.025,28.3.039,3.1.073,6.2a.839.839,0,0,0,.16-.123.838.838,0,0,1-.163.128l-.053.09a3.92,3.92,0,0,1,.279,2.144q.053,32.348.08,64.7a5.951,5.951,0,0,1-.059.594c.457,6.1,5.515,9.108,10.389,9.06,7.8-.078,15.607-.01,23.41,0,.607-1.281,1.589-2.45,1.191-4.027-7.739.011-15.48-.084-23.215.076-4.961.1-8.079-3.2-8.06-8.175.12-32.689.076-65.38.037-98.069a7.543,7.543,0,0,1,3.358-6.8,5.887,5.887,0,0,1,3.4-.905c11.674-.071,23.349-.079,35.023-.092a2.376,2.376,0,0,1,.715.245,2.19,2.19,0,0,1,1.535-.013,2.386,2.386,0,0,1,.715-.239q15.737.027,31.472.088a2.264,2.264,0,0,1,.568.153c.72-.435,1.538-.047,2.284-.274,1.3-.914,1.444-2.508,2.215-3.733Q203.467,14.622,196.486,14.887Z" transform="translate(-5.37 -0.633)" fill="#282f39"/>
      <path id="Path_5872" data-name="Path 5872" d="M211.365,21.687c-.589-.879-.562-2.174-1.784-2.622.719-.435,1.537-.047,2.283-.274.051.282.1.566.15.848-.674.124-.774.528-.534,1.1Z" transform="translate(-8.999 -0.806)" fill="#fefefe"/>
      <path id="Path_5873" data-name="Path 5873" d="M263.139,37.219c1.43-.689,2.888-.634,2.995,1.168.209,3.583.4,7.222-1.2,10.647a2.915,2.915,0,0,1-1.394,1.576,13.254,13.254,0,0,0-3.612,2.33c.136-2.736,1.164-5.3,1.592-7.98.407-2.558.846-5.108,1.06-7.692Z" transform="translate(-11.16 -1.58)" fill="#f2ae8e"/>
      <path id="Path_5874" data-name="Path 5874" d="M209.276,48.946a6.478,6.478,0,0,1-.935-2.54c-.036-.772.333-1.6-.33-2.286q.019-1.621.039-3.241a1.17,1.17,0,0,0,.364-1.066,2.324,2.324,0,0,1,1.264-2.26c.93-.546.974.9,1.721.86.79,3.044.815,6.215,1.658,9.275a24.858,24.858,0,0,1,1.271,4.731,2.784,2.784,0,0,0-2.631-1.214C211.449,49.855,211.151,48.557,209.276,48.946Z" transform="translate(-8.931 -1.607)" fill="#a67c52"/>
      <path id="Path_5875" data-name="Path 5875" d="M263.447,27.845c.163,1.305.58,2.626-.235,3.872C263.009,30.409,262.677,29.094,263.447,27.845Z" transform="translate(-11.291 -1.195)" fill="#d0bbb0"/>
      <path id="Path_5876" data-name="Path 5876" d="M263.213,22.556c.791.968.4,2.027.239,3.069C262.715,24.654,263,23.6,263.213,22.556Z" transform="translate(-11.291 -0.968)" fill="#d0bbb0"/>
      <path id="Path_5877" data-name="Path 5877" d="M263.329,20.824a.778.778,0,0,1-.3.076,3.022,3.022,0,0,1-.591-2.018c.286-.06.579-.162.806.133Q263.286,19.92,263.329,20.824Z" transform="translate(-11.268 -0.807)" fill="#d0bbb0"/>
      <path id="Path_5878" data-name="Path 5878" d="M263.253,37.175l-.56.05A1.265,1.265,0,0,1,263,35.787Q263.128,36.48,263.253,37.175Z" transform="translate(-11.275 -1.536)" fill="#d0bbb0"/>
      <path id="Path_5879" data-name="Path 5879" d="M211.4,36.812c-.508-.385-.434-.853-.19-1.344A.94.94,0,0,1,211.4,36.812Z" transform="translate(-9.061 -1.522)" fill="#f2ae8e"/>
      <path id="Path_5880" data-name="Path 5880" d="M211.56,20.774c-.24-.568-.14-.972.534-1.1A.931.931,0,0,1,211.56,20.774Z" transform="translate(-9.079 -0.844)" fill="#e7e7e7"/>
      <path id="Path_5881" data-name="Path 5881" d="M263.365,20.833l-.086-1.81,1.264.059Z" transform="translate(-11.304 -0.816)" fill="#fefefe"/>
      <path id="Path_5882" data-name="Path 5882" d="M312.661,19.075c-.434.714-.869.8-1.307,0A1.415,1.415,0,0,1,312.661,19.075Z" transform="translate(-13.369 -0.812)" fill="#fefefe"/>
      <path id="Path_5883" data-name="Path 5883" d="M350.454,134.39c-.115-.335-.131-.641.24-.836C351.068,133.964,350.855,134.2,350.454,134.39Z" transform="translate(-15.044 -5.734)" fill="#8f714f"/>
      <path id="Path_5884" data-name="Path 5884" d="M311.455,141.1H340.96v.212H311.444Z" transform="translate(-13.372 -6.058)" fill="#1d1b28"/>
      <path id="Path_5885" data-name="Path 5885" d="M346.932,53.206h0a5.687,5.687,0,0,0,.026-2.561q-.056-.382-.11-.766h0q.108-2.766.216-5.535l-.35-.368c.48-.8.147-1.709.364-2.544q-.258-1.8-.519-3.606a3.54,3.54,0,0,0,.428-2.309q0-5.2,0-10.4c-.011-6.5-3.848-10.318-10.386-10.362-4.727-.032-9.454-.087-14.18-.132-.726.045-1.452.129-2.178.13q-28.553.01-57.106.01c-.8,0-1.593.064-2.389.1.389,1.343,1.41,2.418,1.619,3.838.286-.06.579-.162.806.133l1.264.059a10.549,10.549,0,0,1,1.364-.175q20.931-.047,41.862-.066c.51,0,1.07-.178,1.521.243a1.415,1.415,0,0,1,1.307,0,34,34,0,0,1,6.17-.167c6.4-.036,12.8.011,19.205-.022a6.809,6.809,0,0,1,7.087,5.169q.01,11.416.02,22.834l.652.027a9.89,9.89,0,0,0,1,1.638,9.89,9.89,0,0,1-1-1.638l-.652-.027q.032,2.212.062,4.424c.618.006,1.019.236,1.1.8-.077-.568-.478-.8-1.1-.8-.011.415-.13.846.171,1.217l-.172,1.16c-.01,1.524-.028,3.046-.028,4.57,0,22.257-.093,44.516.068,66.771.038,5.242-3.538,7.867-7.865,7.8-9.461-.144-18.924-.029-28.386-.019.015,1.615,1.08,2.763,1.8,4.063,9.442-.012,18.884-.054,28.326-.025,4.6.014,9.078-3.162,9.653-7.385-.115-.335-.131-.641.24-.836.349-3.918.13-7.846.142-11.769q.073-25.166.074-50.333Q347,59.776,346.932,53.206Zm-37.664,82.672.01-.212h29.505v.212Zm35.5-93.48a2.659,2.659,0,0,0-.74,1.974A2.659,2.659,0,0,1,344.764,42.4Zm-.583,9.807c-.027.638-.072,1.278-.094,1.916.022-.639.066-1.278.094-1.917Z" transform="translate(-11.196 -0.628)" fill="#282f39"/>
      <path id="Path_5886" data-name="Path 5886" d="M302.981,274.131c4.056-2.273,4.653-6.2,4.822-10.273.324-7.823-.591-15.565-1.646-23.295-.873-6.4-2.057-12.734-3.286-19.067a4.989,4.989,0,0,0-2.887-3.893c-3.239-1.645-4.844-4.594-5.371-8.152-.145-.984.073-1.5,1.21-1.481q9.805.126,19.611.164c1.12,0,1.368.49,1.262,1.475a10.074,10.074,0,0,1-5.924,8.37c-1.5.739-1.906,1.422-1.516,3.168,1.3,5.834,2.461,11.71,3.436,17.609,1.618,9.8,3.006,19.623,1.47,29.589-.9,5.84-4.663,9.315-9.646,11.795-.933.464-2.028.657-2.606,1.67-1.5-.91-2.574.481-3.859.729-7.2,1.391-14.4,2.663-21.788,2.5a8.2,8.2,0,0,0-4.182.81,5.742,5.742,0,0,0-3.137-.342c-7.13.309-14.261.324-21.389-.015-1.307-.062-1.884.167-1.881,1.69q.073,34.915.006,69.831c0,1.345.424,1.862,1.72,2.082a50.575,50.575,0,0,1,12.9,3.988c2.394,1.115,4.692,2.437,7.033,3.666.126.4.425.244.685.212a3.633,3.633,0,0,0,.828,1.073,40.945,40.945,0,0,1,6.271,5.872c2.217,2.686,2.331,4.4.138,7.367-.628.85.029.981.582,1.21-.039,1.421,1.014,2.706.292,4.259a4.8,4.8,0,0,1-4.009,3.146,4.453,4.453,0,0,1-4.448-2.088,4.72,4.72,0,0,1,.067-5.114c.361-.581.769-.872.047-1.359a2.787,2.787,0,0,1-1.218-2.77c.1-1.175-.6-1.463-1.63-1.461-7.274.015-14.547.027-21.821-.006-1.148-.006-1.533.428-1.479,1.541.068,1.4-.026,2.8.019,4.2.041,1.264-.134,2.406-1.36,3.069-.912.493-.353.856-.006,1.374a5.269,5.269,0,0,1-.051,5.464,4.73,4.73,0,0,1-5.374,1.552c-1.93-.583-3.29-2.244-2.976-3.984a13.543,13.543,0,0,0-.465-7.216c-.476-1.37-.125-3.042-.071-4.575.035-1.015-.318-1.432-1.374-1.428q-12.613.04-25.225.008c-1.135,0-1.559.526-1.5,1.6.022.4.112,1.006-.1,1.161-2.115,1.575-.562,3.3-.35,5.021a4.414,4.414,0,0,1-2.307,4.512,4.732,4.732,0,0,1-5.25-.522c-1.466-1.351-2.276-2.941-1.512-4.985a3.837,3.837,0,0,1,.535-1.279c1.015-1.093.153-1.3-.662-1.566-.084-.452-.136-.912-.257-1.353a5.648,5.648,0,0,1,1.417-5.709,53.471,53.471,0,0,1,8.9-7.749l1.172-.811c.952.009,1.51-.785,2.266-1.168a56.307,56.307,0,0,1,15.609-5.2c1.141-.2,1.493-.719,1.491-1.875q-.049-35.087,0-70.177c0-1.314-.4-1.7-1.705-1.71-6.261-.039-12.52-.173-18.78-.274-2.784-.147-5.562-.064-8.357-.364-7.9-.846-15.86-1.083-23.6-3.179-.807-.218-1.636-.992-2.615-.478-2.009-1.287-4.378-1.8-6.4-3.107-2.722-1.753-5.2-3.795-6.536-6.734a23.148,23.148,0,0,1-1.731-8.346c-.426-7.7.716-15.263,2.042-22.818,1.255-7.141,2.884-14.2,4.507-21.254.279-1.211-.287-1.542-1.125-1.916-3.616-1.616-5.515-4.553-6.458-8.276-.341-1.344.017-1.784,1.41-1.773q9.7.072,19.4,0c1.287-.008,1.8.216,1.445,1.7-.909,3.759-2.775,6.682-6.42,8.294a3.031,3.031,0,0,0-1.823,2.328c-1.877,7.493-3.193,15.095-4.436,22.7a106.265,106.265,0,0,0-1.4,23.891c.245,3.874,2.763,6.928,5.993,7.315l-.011-.014c.2.8.407.29.615.008a.881.881,0,0,0,.234.131c.792,1.7,2.511,1.828,3.993,2.226a86.245,86.245,0,0,0,15.02,2.576c5.413.467,10.8,1.18,16.246,1.031,5.106.006,10.212.022,15.318.014,5.209-.007,5.209-.017,5.122-5.168,1.793-.013,3.59-.111,5.377-.013,1.429.078,1.8-.473,1.784-1.835-.07-5.645-.041-11.29-.048-16.935q.006-6.635.011-13.27c0-2.268-.027-4.537.024-6.8.024-1.035-.19-1.565-1.4-1.611-2.221-.085-3.009-1-3.012-3.277q-.023-17.411,0-34.822c0-2.267,1.193-3.489,3.421-3.519q4.6-.062,9.205,0a3.493,3.493,0,0,1,3.751,3.752q.034,17.211,0,34.422a3.077,3.077,0,0,1-3.21,3.452c-1.113.075-1.542.509-1.524,1.594.037,2.268.02,4.536.025,6.8q0,6.648,0,13.3c-.006,5.537.046,11.073-.052,16.608-.03,1.71.593,2.236,2.212,2.145,1.661-.094,3.332.007,5,.022-.007,1.266.056,2.537-.041,3.8-.09,1.176.412,1.417,1.489,1.473,8.324.427,16.649.457,24.978.295C282.646,278.886,293.2,278.758,302.981,274.131Z" transform="translate(-6.584 -8.23)" fill="#8f714f"/>
      <path id="Path_5887" data-name="Path 5887" d="M231.928,243.446q-.006,6.634-.011,13.269-27.851-.013-55.7-.034c-2.782,0-5.576-.209-8.137,1.214a69.471,69.471,0,0,1,1.416-16.438,9.031,9.031,0,0,1,3.739-5.79,35.442,35.442,0,0,1,8.206-4.246c-.088,6.144,6.29,12.228,12.65,12.107C206.7,243.285,219.315,243.449,231.928,243.446Z" transform="translate(-7.217 -9.936)" fill="#31334c"/>
      <path id="Path_5888" data-name="Path 5888" d="M257.8,252.37" transform="translate(-11.069 -10.836)" fill="#8d7601"/>
      <path id="Path_5889" data-name="Path 5889" d="M257.627,248c.407-.586,1.9-.644,1-1.679-.571-.661-1.522-.271-2.165.248a2.018,2.018,0,0,0-.657,2.336Z" transform="translate(-10.978 -10.561)" fill="#8d7601"/>
      <path id="Path_5890" data-name="Path 5890" d="M268.864,243.248l.614-.009c4.256.023,8.524.256,12.765.017,5.271-.3,10.427-5.972,10.583-11.238.032-1.063.049-2.128.073-3.192a23.487,23.487,0,0,1,12.823,9.73c1.42,2.281,1.135,5.175,1.3,7.8.261,4.047.131,8.121.167,12.182-1.549-.872-3.011-1.96-4.908-1.958l-59.893.04q0-6.648,0-13.3l16.411.086Z" transform="translate(-10.408 -9.825)" fill="#31334c"/>
      <path id="Path_5891" data-name="Path 5891" d="M268.161,243.981" transform="translate(-11.514 -10.475)" fill="#8d7601"/>
      <path id="Path_5892" data-name="Path 5892" d="M264.685,243.977l1.074-.022" transform="translate(-11.365 -10.474)" fill="none"/>
      <path id="Path_5893" data-name="Path 5893" d="M167.941,259.027c2.561-1.422,5.355-1.217,8.137-1.214q27.849.039,55.7.034c.007,5.646-.022,11.291.048,16.936.016,1.362-.355,1.912-1.784,1.835-1.787-.1-3.584,0-5.377.013l-20.454.014q-14.385-.03-28.77-.061c-2.178,0-4.375.171-6.475-.633a.881.881,0,0,1-.234-.131l-.615-.008.011.014c-.422-1.292-1.983-1.779-2.317-3.063C164.546,267.9,163.864,263.082,167.941,259.027Z" transform="translate(-7.077 -11.069)" fill="#f5584c"/>
      <path id="Path_5894" data-name="Path 5894" d="M65.6,313.059a2.286,2.286,0,0,1-2.632,2.278c-3.838-.077-7.685-.057-11.523-.077a5.4,5.4,0,0,0,.775-.6c.469-.517,1.656-.737.842-1.828-.536-.718-1.014-1.178-2.134-.6-1.455.737-2.335-.211-2.7-1.646l4.785-.115a7.375,7.375,0,0,0,4.364,0c1.857.029,3.7.048,5.561.1C64.548,310.6,65.744,311.661,65.6,313.059Z" transform="translate(-2.071 -13.33)" fill="#1d1b28"/>
      <path id="Path_5895" data-name="Path 5895" d="M52.145,314.662a5.4,5.4,0,0,1-.775.6l-2.163.086c-2.546.086-2.8-.172-2.747-2.766.01-.823.833-1.225,1.014-1.962.23-.01.45-.029.68-.038.364,1.436,1.244,2.383,2.7,1.646,1.12-.575,1.6-.115,2.134.6C53.8,313.925,52.614,314.145,52.145,314.662Z" transform="translate(-1.995 -13.335)" fill="#8f714f"/>
      <path id="Path_5896" data-name="Path 5896" d="M53.041,305.05c-.163.029-.316.057-.479.1-.383-.067-.8-.01-1.053-.412C52.036,304.782,52.611,304.562,53.041,305.05Z" transform="translate(-2.212 -13.083)" fill="#d0bbb0"/>
      <path id="Path_5897" data-name="Path 5897" d="M65.5,241.647a2.093,2.093,0,0,1-2.307,2.192c-2.46-.029-4.919-.01-7.379-.01-2.393,0-4.785-.01-7.178,0a1.93,1.93,0,0,1-2.211-2.182c-.038-1.5.622-2.536,2.106-2.565q7.379-.129,14.758,0A2.237,2.237,0,0,1,65.5,241.647Z" transform="translate(-1.993 -10.262)" fill="#1d1b28"/>
      <path id="Path_5898" data-name="Path 5898" d="M55.916,208.669c-2.393,0-4.785-.026-7.178.008a1.99,1.99,0,0,1-2.314-2.288c0-1.51.692-2.448,2.217-2.463q7.278-.07,14.556,0a2.24,2.24,0,0,1,2.311,2.47,2.132,2.132,0,0,1-2.413,2.285C60.7,208.639,58.31,208.669,55.916,208.669Z" transform="translate(-1.993 -8.754)" fill="#1d1b28"/>
      <path id="Path_5899" data-name="Path 5899" d="M342.569,58.255c0-1.524.018-3.046.028-4.57l.172-1.16c-.3-.371-.182-.8-.171-1.217q-.03-2.214-.062-4.424-.01-11.417-.02-22.834a6.809,6.809,0,0,0-7.087-5.169c-6.4.033-12.8-.014-19.205.022a34,34,0,0,0-6.17.167c-.434.714-.868.8-1.307,0-.451-.421-1.011-.243-1.521-.243q-20.931.019-41.862.066a10.549,10.549,0,0,0-1.364.175l-1.178,1.75a.778.778,0,0,1-.3.076q.082.748.162,1.5c.791.968.4,2.027.239,3.069q0,1,0,1.993c.163,1.305.58,2.626-.235,3.872q-.1,1.865-.194,3.728l.252,1.389c1.43-.689,2.888-.634,2.995,1.168.209,3.583.4,7.222-1.2,10.647a2.915,2.915,0,0,1-1.394,1.576,13.269,13.269,0,0,0-3.612,2.33c-.372,1.193-.894,2.329-1.286,3.521-1.956,5.935-4.094,11.8-7.5,17.11q-.072,1.44-.143,2.882c1.626.071,2.379.788,2.6,2.54.3,2.312,1.73,3.288,4.087,3.6,3.824.5,7.656.98,11.453,1.646,5.712,1,10.734,3.338,14.363,8.085,2.745,3.59,4.793,7.612,7.044,11.5,3.97,6.864,7.9,13.752,11.509,20.819,1.532,3,3.148,5.961,4.725,8.939,9.462-.01,18.926-.124,28.386.019,4.327.065,7.9-2.56,7.865-7.8C342.476,102.771,342.567,80.512,342.569,58.255ZM322.358,71.23l.03-.034Z" transform="translate(-10.76 -0.807)" fill="#f6ebe5"/>
      <g id="Group_3877" data-name="Group 3877" transform="translate(166.292 18.124)">
        <path id="Path_5900" data-name="Path 5900" d="M173.752,19.082c.518.78,1.031.8,1.535-.013A2.19,2.19,0,0,0,173.752,19.082Z" transform="translate(-173.752 -18.937)" fill="#e7e7e7"/>
        <path id="Path_5901" data-name="Path 5901" d="M213.932,52.573A2.785,2.785,0,0,0,211.3,51.36a4.434,4.434,0,0,1-.769,1.686,4.414,4.414,0,0,0,.768-1.685c-.248-1.351-.546-2.649-2.42-2.26a6.489,6.489,0,0,1-.936-2.54h0c-.036-.772.333-1.6-.33-2.286q.019-1.621.039-3.241c-2.26,0-4.52.017-6.78,0-1.025-.01-1.651.321-1.661,1.467-.042,4.375.187,8.756-.375,13.117-.179,1.387.515,1.876,1.87,1.86,4.12-.048,8.242-.055,12.362.011a2.252,2.252,0,0,0,2.089-1.2Z" transform="translate(-174.828 -19.885)" fill="#e7e7e7"/>
      </g>
      <path id="Path_5902" data-name="Path 5902" d="M242.392,257.864l59.893-.04c1.9,0,3.359,1.086,4.908,1.958,3.164,4.54,2.915,10.515-.653,15.66a18.366,18.366,0,0,1-7.609,1.17c-7.534-.05-15.069.016-22.6.037l-26.776-.011c-1.667-.015-3.339-.116-5-.022-1.618.091-2.241-.434-2.212-2.145C242.438,268.937,242.386,263.4,242.392,257.864Z" transform="translate(-10.405 -11.07)" fill="#f5584c"/>
      <path id="Path_5903" data-name="Path 5903" d="M277.836,277.441c7.535-.021,15.07-.087,22.6-.037a18.366,18.366,0,0,0,7.609-1.17q.132.764.263,1.529c-9.786,4.626-20.336,4.754-30.825,5.231Q277.662,280.217,277.836,277.441Z" transform="translate(-11.914 -11.86)" fill="#31334c"/>
      <path id="Path_5904" data-name="Path 5904" d="M169.151,276.767c2.1.8,4.3.628,6.475.633q14.385.034,28.77.061.007,2.57.014,5.139c-5.449.149-10.833-.564-16.246-1.031a86.245,86.245,0,0,1-15.02-2.576C171.662,278.6,169.943,278.468,169.151,276.767Z" transform="translate(-7.263 -11.883)" fill="#31334c"/>
      <path id="Path_5905" data-name="Path 5905" d="M168.263,276.622l.615.008C168.67,276.912,168.458,277.423,168.263,276.622Z" transform="translate(-7.225 -11.877)" fill="#f2d9cc"/>
      <path id="Path_5906" data-name="Path 5906" d="M257.8,252.362l.006.007" transform="translate(-11.069 -10.835)" fill="none"/>
      <path id="Path_5907" data-name="Path 5907" d="M281,232.332c.509.1.622.466.57.893a.939.939,0,0,1-.862.94c-.525.045-.688-.317-.67-.762A1.031,1.031,0,0,1,281,232.332Z" transform="translate(-12.024 -9.975)" fill="#f1695a"/>
      <path id="Path_5908" data-name="Path 5908" d="M279.744,231.2a.921.921,0,0,1-.627.768c-.279.105-.332-.13-.345-.316a.551.551,0,0,1,.557-.644C279.471,231,279.619,231.142,279.744,231.2Z" transform="translate(-11.969 -9.918)" fill="#f1695a"/>
      <path id="Path_5909" data-name="Path 5909" d="M261.181,248.551" transform="translate(-11.214 -10.672)" fill="#8d7601"/>
      <path id="Path_5910" data-name="Path 5910" d="M205.46,359.521a6.827,6.827,0,0,1,0,4.3A5.811,5.811,0,0,1,205.46,359.521Z" transform="translate(-8.804 -15.436)" fill="#8f714f"/>
      <path id="Path_5911" data-name="Path 5911" d="M205.519,356.936a.8.8,0,0,1-.053,1.171C204.957,357.692,205.018,357.3,205.519,356.936Z" transform="translate(-8.807 -15.325)" fill="#8f714f"/>
      <path id="Path_5912" data-name="Path 5912" d="M277.8,364.259c-.663-.088-1.708.268-1.842-.863-.14-1.181.853-1.122,1.647-1.123,1.15,0,1.47-.679,1.435-1.678-.025-.693.2-1.139,1-1.14.972,0,.977.636.994,1.342A3.12,3.12,0,0,1,277.8,364.259Z" transform="translate(-11.848 -15.433)" fill="#8f714f"/>
      <path id="Path_5913" data-name="Path 5913" d="M273.028,369.813c-.97-1.774-.783-3.777.416-4.467A12.63,12.63,0,0,1,273.028,369.813Z" transform="translate(-11.696 -15.686)" fill="#e7e7e7"/>
      <g id="Group_3878" data-name="Group 3878" transform="translate(162.573 235.181)">
        <path id="Path_5914" data-name="Path 5914" d="M254.035,255.435c.053.267.206.576.236.844l1.837-2.816C254.855,252.841,253.75,253.977,254.035,255.435Z" transform="translate(-173.479 -246.056)" fill="#31334c"/>
        <path id="Path_5915" data-name="Path 5915" d="M254.268,256.413l-.355.545A.464.464,0,0,0,254.268,256.413Z" transform="translate(-173.476 -246.19)" fill="#31334c"/>
        <path id="Path_5916" data-name="Path 5916" d="M250.707,248.929c-.582.512-.3,1.091-.078,1.641l1.685-1.4C251.839,248.86,251.325,248.386,250.707,248.929Z" transform="translate(-173.323 -245.858)" fill="#31334c"/>
        <path id="Path_5917" data-name="Path 5917" d="M196.079,288.641c-7.9-.846-15.86-1.083-23.6-3.179-.807-.218-1.636-.992-2.615-.478,1.146,7.755,2.164,15.532,3.47,23.26,1.438,8.506,3.089,16.978,4.739,25.447,2.183,11.2,4.455,22.391,6.689,33.586,1.686-.467,2.944.924,4.564,1,4.667.223,9.306.379,13.88-.818a.461.461,0,0,1,.339-.022.768.768,0,0,1,.326.115q.037-3.471.074-6.942a5.809,5.809,0,0,1,0-4.3q0-.652,0-1.3c-.508-.413-.447-.8.054-1.17.4-5.176.2-10.362.224-15.544.065-14.571.071-29.143.1-43.714h0l0-2.392.109-3.185C201.652,288.857,198.875,288.941,196.079,288.641Z" transform="translate(-169.867 -247.41)" fill="#31334c"/>
        <path id="Path_5918" data-name="Path 5918" d="M303.19,286.568c-7.2,1.391-14.4,2.663-21.788,2.5a8.2,8.2,0,0,0-4.182.809c-.674,1.144-.327,2.38-.326,3.585h0a1.287,1.287,0,0,0-.013,1.51q-.113,2.468-.226,4.936h0c-.67,1.528-.412,3.13-.363,4.715q-.7,14.442-1.4,28.884-.413,8.469-.842,16.935-.287,5.741-.58,11.481a12.607,12.607,0,0,1-.415,4.467l.184,2.48c3.259.45,6.513.936,9.776,1.339a21.183,21.183,0,0,0,9.942-1.39c.207-.907.437-1.809.617-2.721,1.61-8.148,3.234-16.293,4.8-24.449.652-3.39,1.175-6.8,1.757-10.209l2.978-16.587c1.543-9.639,2.932-19.3,3.936-29.011C305.546,284.927,304.475,286.32,303.19,286.568Zm-25.892,7.65a.774.774,0,0,1-.1.377A.774.774,0,0,0,277.3,294.217Zm-.331,8.082a4.689,4.689,0,0,1-.021.591A4.689,4.689,0,0,0,276.967,302.3Zm.705,58.786c-.663-.088-1.709.268-1.842-.863-.14-1.181.853-1.122,1.646-1.123,1.15,0,1.471-.679,1.436-1.678-.025-.693.2-1.139,1-1.14.972,0,.977.636.994,1.342A3.119,3.119,0,0,1,277.672,361.085Z" transform="translate(-174.298 -247.44)" fill="#31334c"/>
        <path id="Path_5919" data-name="Path 5919" d="M263.478,245.742a1.156,1.156,0,0,0-.983,1.082.639.639,0,0,0,.691.759c.638-.021.856-.506.942-1.056C264.1,246.09,263.99,245.66,263.478,245.742Z" transform="translate(-173.844 -245.732)" fill="#31334c"/>
      </g>
      <path id="Path_5920" data-name="Path 5920" d="M234.474.1s31.086-3.256,32.614,27.394,3.712,45.937,9.173,51.4,7.644,10.92,3.276,19.656-14.515,7.285-14.515,7.285L202,107.283s-6.125-8.145,4.581-19.36,1.32-50.18,3.283-62.365S217.8-.068,234.474.1Z" transform="translate(-8.599 0)" fill="#1a1a1a"/>
      <path id="Path_5921" data-name="Path 5921" d="M290.29,222.529c-.01.4.01.8.019,1.2-.029,1.062-.048,2.134-.077,3.2-.153,5.264-5.312,10.939-10.585,11.236l-8,.057h-.2l-15.236.1-16.414-.086c0-2.268.019-4.536-.019-6.8-.019-1.081.412-1.522,1.522-1.6a3.068,3.068,0,0,0,3.206-3.445q.029-17.213,0-34.426a3.494,3.494,0,0,0-3.752-3.753q-4.594-.056-9.207,0c-2.22.039-3.417,1.255-3.417,3.523q-.029,17.414,0,34.828c.01,2.278.794,3.187,3.015,3.273,1.215.048,1.426.574,1.407,1.608-.048,2.268-.019,4.536-.029,6.8-12.614,0-25.228-.163-37.833.077-6.364.124-12.739-5.962-12.652-12.107q0-15.059.01-30.138-.043-6.79-.077-13.59.043-16.9.086-33.794c0-3.474.038-6.939-.01-10.4a28.111,28.111,0,0,1,18.9-26.683c.469-.172.947-.316,1.426-.459a26.869,26.869,0,0,1,7.484-1.081c17.466.01,34.942-.019,52.409.029a26.441,26.441,0,0,1,5.015.5h.01a29,29,0,0,1,7.743,2.747A2.644,2.644,0,0,1,277,114.5a27.692,27.692,0,0,1,12.078,15.428c1.244,3.694,1.225,7.456,1.225,11.245q.014,21.663.048,43.336-.029,5.8-.057,11.609c0,4.986-.01,9.982,0,14.968Z" transform="translate(-7.813 -4.725)" fill="#f5584c"/>
    </g>
  </g>
</svg>
