<svg xmlns="http://www.w3.org/2000/svg" width="406.171" height="400.682" viewBox="0 0 406.171 400.682">
  <g id="Artwork_39" data-name="Artwork 39" transform="translate(203.085 200.341)">
    <g id="Group_3874" data-name="Group 3874" transform="translate(-203.085 -200.341)">
      <path id="Path_5710" data-name="Path 5710" d="M308.8,175.573a4.439,4.439,0,0,0-.736.985c-3.182,1.337-6.261,3-9.723,3.5-2.094.321-4.167,1.1-6.354.663q-.016-22.811-.052-45.632c0-3.991.031-7.94-1.285-11.828a29.164,29.164,0,0,0-12.719-16.254,2.761,2.761,0,0,0-2.063-1.223,29.2,29.2,0,0,0-13.435-3.41c-18.4-.052-36.789-.021-55.179-.031a28.333,28.333,0,0,0-7.878,1.14,29.6,29.6,0,0,0-21.406,28.569c.052,3.649.01,7.3.01,10.947q-.047,17.788-.083,35.587c-7.4.912-14.761,1.368-21.759-2.042-7.443-5.567-8.148-13.051-6.189-21.385a194.221,194.221,0,0,1,6.551-20.515c.643-1.348,1.669-2.581,1.254-4.24a1.781,1.781,0,0,0,1.1-.923,175.767,175.767,0,0,1,8.987-18.421A232.186,232.186,0,0,1,180.564,89.69,27.3,27.3,0,0,1,195.357,78.95c5.764-1.793,11.693-2.249,17.581-2.975a8.118,8.118,0,0,0,6.811-5.09,8.175,8.175,0,0,1,.829-1.161,3.682,3.682,0,0,0,.829-.01,47.482,47.482,0,0,1,12.709-.9c4.375.166,8.594,1.275,12.927,1.462,1.71.083,2.509.829,2.747,2.674.311,2.436,1.814,3.462,4.3,3.794,4.022.518,8.055,1.026,12.056,1.731,6.012,1.057,11.3,3.514,15.124,8.511,2.882,3.784,5.038,8.013,7.412,12.108,4.178,7.225,8.324,14.482,12.118,21.924,1.607,3.162,3.317,6.272,4.976,9.412.01,1.69,1.13,2.9,1.9,4.271q2.659,6.8,5.307,13.59c.715,3.12,1.607,6.209,2.115,9.361C316.236,164.71,314.775,170.95,308.8,175.573Z" transform="translate(5.456 2.517)" fill="#45a693"/>
      <path id="Path_5711" data-name="Path 5711" d="M77.733,171.609a.779.779,0,0,1,.3-1.063C78.194,170.974,78.193,171.357,77.733,171.609Z" transform="translate(2.843 6.245)" fill="#d0bbb0"/>
      <path id="Path_5712" data-name="Path 5712" d="M206.066,12.9c1.363-.962,1.519-2.64,2.33-3.93,3.7-5.2,9.019-7.344,15.1-8.32a53.07,53.07,0,0,1,17.56.161c5.653.978,10.761,3.133,14.159,8.142.409,1.414,1.484,2.547,1.705,4.041a3.186,3.186,0,0,0,.623,2.126l.17,1.574c-.223,1.1-.526,2.209.251,3.232q0,1.05-.005,2.1c-.811,1.314-.46,2.7-.247,4.077q-.1,1.962-.2,3.926a1.33,1.33,0,0,0-.324,1.513c-.226,2.72-.689,5.4-1.117,8.1-.45,2.827-1.532,5.521-1.675,8.4-.392,1.256-.941,2.452-1.355,3.707-2.06,6.247-4.309,12.426-7.892,18.012-3.005-.444-6.012.433-9,.081-4.9-.58-10.026.917-14.73-1.549-.115-.06-.423.066-.531.2-.881,1.059-2.077.559-3.148.668a122.809,122.809,0,0,1-7.716-17.786q-.647-1.953-1.293-3.907a26.147,26.147,0,0,0-1.338-4.98c-.887-3.222-.914-6.56-1.746-9.765q-.064-.8-.13-1.6a.987.987,0,0,0-.2-1.413,69.235,69.235,0,0,1,.223-13.755l.121-1a.979.979,0,0,0,.562-1.155Z" transform="translate(7.509 0)" fill="#744c32"/>
      <path id="Path_5713" data-name="Path 5713" d="M106.963,295.6c0-1.306,0-2.281-.083-3.017-.021-.187-.052-.352-.083-.508a3.979,3.979,0,0,0-.114-.415,1.525,1.525,0,0,0-.1-.228.882.882,0,0,0-.176-.259.712.712,0,0,0-.114-.135c-.663-.653-2-.653-4.675-.653q-15.58-.016-31.181-.01a25.875,25.875,0,0,0-4.82.321c-.29.01-.581.021-.871.021-2.4,2.343-4.7,2.343-6.7.01-.29-.01-.581-.031-.871-.041l-3.887.031c-.166.031-.332.073-.508.1,1.016,1.731,1.876,3.711,4.551,2.6.632-.259,1.006.321,1.306.767.612.9-.332,1.337-.632,1.97,1.949.031,3.908.052,5.857.1,1.7.041,2.954,1.161,2.8,2.623a2.4,2.4,0,0,1-2.768,2.4c-4.043-.073-8.1-.062-12.139-.083l-2.27.093c-2.685.093-2.954-.176-2.892-2.913-1.586-.715-2.55-2.55-4.571-2.509-.187,0-.591-.435-.549-.56.539-1.814-1.182-3.1-1.088-4.789-10.532-.321-21.064-.1-31.6-.114-.135,0-.27.073-.4.073H8.153a3.766,3.766,0,0,0-.5.031,1.609,1.609,0,0,0-.238.052,1.89,1.89,0,0,0-.259.073,1.238,1.238,0,0,0-.612.425,1.117,1.117,0,0,0-.207.342,1.652,1.652,0,0,0-.145.435c-.031.145-.062.311-.083.487-.01.2-.021.415-.021.653q.124,32.031.01,64.052c-.01,2.042.549,2.55,2.56,2.54q47.829-.093,95.659.01c2.146,0,2.706-.529,2.7-2.674C106.922,336.469,106.963,316.027,106.963,295.6ZM29.683,320.4a7.741,7.741,0,0,1-4.457,3.929,1.118,1.118,0,0,1-1.6-.549,1.269,1.269,0,0,1,.581-1.793c.974-.529,2.125-.819,2.8-1.793.342-.487.809-1.016.342-1.71a1.282,1.282,0,0,0-1.824-.425c-.643.29-1.285.56-1.938.809-2.84,1.068-5.225-.632-5.2-3.7.021-1.938,2.623-4.561,4.489-4.6.912-.021.954.653,1.192,1.213.259.6.249,1.037-.5,1.306A11.906,11.906,0,0,0,21.5,314.1a1.424,1.424,0,0,0-.549,1.69c.207.84.964.777,1.555.643a13.355,13.355,0,0,0,2.56-.881,3.292,3.292,0,0,1,3.991.985A3.2,3.2,0,0,1,29.683,320.4Zm8.884-7.08c-.726.726-1.109.363-1.659-.3-1.368-1.669-2.851-3.255-4.271-4.9a2.334,2.334,0,0,0-3.524-.352c-.829.632-1.316,1.441-.384,2.478,1.627,1.824,3.2,3.69,4.8,5.546.425.5,1.265.964.342,1.69-.736.57-1.472,1-2.332-.052-2.934-3.545-5.971-7.028-8.925-10.563-.477-.56-1.109-1.192-.663-2.052a1.427,1.427,0,0,1,1.109-.871c.767.2,1.016.892,1.431,1.441.912,1.192,1.6,2.26,3.255.456,1.762-1.918,4.343-1.648,6.157.2,1.721,1.752,3.3,3.628,5,5.39C39.728,312.3,39.117,312.751,38.567,313.321Zm8.075-7.858c-1.234,2.135-2.851,3.763-4.841,4.167a3.642,3.642,0,0,1-3.193-1.047c-1.773-1.887-3.483-3.825-5.276-5.681-.819-.85-.259-1.316.3-1.9.7-.726,1.265-.446,1.731.187a57.4,57.4,0,0,0,4.665,5.111c1.2,1.317,2.2.726,3.245-.155s.974-1.638.041-2.623c-1.565-1.679-2.954-3.535-4.509-5.225-.912-1.006-.166-1.472.425-2.042.8-.767,1.244-.073,1.7.446,1.793,2.042,3.545,4.126,5.39,6.126A1.956,1.956,0,0,1,46.642,305.464Z" transform="translate(0.223 10.631)" fill="#f2ae8e"/>
      <path id="Path_5714" data-name="Path 5714" d="M106.785,260.3c1.265-1.265.477-2.457-.145-3.659-1.265-.695-2.125-1.42-.031-2.156,1.047-.363.632-1.182.653-1.887v-.01a.2.2,0,0,0-.135-.166c-.041-.321-.093-.643-.135-.954-.8-.477-.456-1.265-.456-1.907q-.031-14.2,0-28.372a7.674,7.674,0,0,0-.84-.083q-48.856,0-97.722-.041c-1.783,0-1.856.809-1.845,2.167q.031,31.176.01,62.342c0,2.923,0,2.934,2.913,2.934q17.058.016,34.125,0a4.725,4.725,0,0,0,2.27-.27c.767-.881,1.42-1.41,2.788-.632s3.172-.238,4.7.508l1.254.156.155-.135c.912.01,1.835.021,2.757.021,1.192.332,2.27-.311,3.41-.384.508.653,1.306.3,1.918.591.632-.176,1.254-.363,1.887-.549,1,.871,2-.156,3.006.01.352.176.715.342,1.078.518.746-.311,1.679.166,2.312-.56-.166-.238-.321-.477-.477-.715.166.238.321.477.487.715l.923.093c11.154.021,22.318.01,33.472.083,1.545.01,1.887-.6,1.866-1.99-.062-4.986.01-9.962-.031-14.948C106.91,267.449,107.169,263.862,106.785,260.3ZM64.212,231.779c-2.592-.031-5.183-.01-7.775-.01-2.519,0-5.038-.01-7.557.01a2.036,2.036,0,0,1-2.322-2.3c-.041-1.586.653-2.674,2.218-2.7q7.775-.14,15.539-.01a2.358,2.358,0,0,1,2.322,2.706A2.191,2.191,0,0,1,64.212,231.779Z" transform="translate(0.224 8.094)" fill="#f9bb7d"/>
      <path id="Path_5715" data-name="Path 5715" d="M107.015,190.9c.031-2.052-.684-2.415-2.529-2.4-16.016.062-32.042.041-48.057.041q-23.075,0-46.16-.01a8.569,8.569,0,0,1-2.312-.062c-1.721-.508-1.835.373-1.824,1.721.031,8.365.062,16.721-.031,25.086-.021,1.752.591,2.084,2.177,2.084q48.172-.062,96.333,0c1.866,0,2.4-.612,2.384-2.426C106.911,206.917,106.89,198.9,107.015,190.9ZM64.1,197.556c-2.509-.041-5.038-.01-7.557-.01s-5.038-.031-7.557.01a2.1,2.1,0,0,1-2.436-2.415c0-1.586.736-2.581,2.343-2.592q7.65-.078,15.321,0a2.362,2.362,0,0,1,2.436,2.6A2.257,2.257,0,0,1,64.1,197.556Z" transform="translate(0.223 6.895)" fill="#f9bb7d"/>
      <path id="Path_5716" data-name="Path 5716" d="M56.793,296.159a7.629,7.629,0,0,1-4.592,0c-1.182-1.379-2.343-2.778-3.545-4.136-.342-.384-.653-.933-1.379-.715a2.7,2.7,0,0,0-1.358,4.364c.187.207.352.435.529.653-.2.767-1.057,1.2-1.068,2.063-1.586-.715-2.55-2.55-4.571-2.509-.187,0-.591-.435-.549-.56.539-1.814-1.182-3.1-1.088-4.789.124-.073.259-.145.384-.218H41.2c.27.114.529.238.8.352.508.964,1.068,1.275,1.731.124.529-.187,1.068-.373,1.6-.56,1.7.031,3.4.073,5.1.1l.041.052c.259.425.7.363,1.1.435,1.016,1.731,1.876,3.711,4.551,2.6.632-.259,1.006.321,1.306.767C58.037,295.092,57.093,295.527,56.793,296.159Z" transform="translate(1.434 10.627)" fill="#f2d9cc"/>
      <path id="Path_5717" data-name="Path 5717" d="M104.319,243.021c-1.068,2.747-.27,5.66-.871,8.438-.8-.477-.456-1.265-.456-1.907q-.031-14.2,0-28.372c.985.518.684,1.451.695,2.249.01,5.961.062,11.921-.1,17.882C103.563,242.234,104.537,242.493,104.319,243.021Z" transform="translate(3.768 8.099)" fill="#dfb7a5"/>
      <path id="Path_5718" data-name="Path 5718" d="M105.141,251.625a7.572,7.572,0,0,0-1.451-.145v-.01A7.583,7.583,0,0,1,105.141,251.625Z" transform="translate(3.797 9.208)" fill="#dfb7a5"/>
      <path id="Path_5719" data-name="Path 5719" d="M62.907,290.723c-2.4,2.343-4.7,2.343-6.7.01.8-.881,2.011.031,2.851-.663h1.006C60.906,290.765,62.119,289.852,62.907,290.723Z" transform="translate(2.058 10.621)" fill="#f2d9cc"/>
      <path id="Path_5720" data-name="Path 5720" d="M183.357,174.784c-7.4.912-14.761,1.368-21.759-2.042q-40.926.016-81.851.021-9-.047-17.985-.073c-.373,0-.736,0-1.1-.01l-31.99.114c-1.109.726-2.218,1.565-3.369.052-2.042-.021-4.095-.052-6.147-.073-5.546,0-11.081.083-16.627-.021-1.866-.041-2.478.394-2.467,2.395.083,13.393.01,26.8-.01,40.19.052.155.114.311.166.466a12.434,12.434,0,0,1,1.814-.425c3.079-.259,3.5.156,3.5,3.234a29.981,29.981,0,0,0,.031,4.209c.435,3.037-.881,5.857-.881,8.822-.01.891-.622.974-1.306.974-1.047,0-2.1.01-3.151.021a1.53,1.53,0,0,0-.218-.01c.041.84.1,1.679.1,2.519V337.191c0,.84-.041,1.679-.062,2.529.052.435.1.871.145,1.306.8-.176.529-1.451,1.866-1.389,1.928.1,2.706.529,2.685,2.633-.031,4.333-.767,8.635-.477,12.968.083,1.244-.466,1.824-1.731,1.762-.767-.031-1.534.01-2.312.01A1.388,1.388,0,0,1,.021,357a49.156,49.156,0,0,1-.021,7.2c.031,3.856.062,7.7.124,11.558.01.7-.311,1.731.9,1.731,1.669,0,3.576.6,4.934-.27,1.068-.674.228-2.478.4-3.773.031-.28.041-.56.062-.84-.207-3.763-.207-3.763,3.431-3.763l87.584.031c.446,0,.881,0,1.327-.01,1.234.01,2.467.01,3.7.01a16.085,16.085,0,0,1,6.209.456c.591.176,1.358.311,1.213,1.151a1.069,1.069,0,0,1-1.337,1c-1-.29-1.078.249-1.088.964,0,1.192.021,2.384,0,3.576-.031.871.332,1.316,1.223,1.285a1.321,1.321,0,0,1,.207.01c4.26.352,4.229.352,4.281-3.949.021-1.513-.342-3.068.27-4.551-.083-1.047-.238-2.094-.228-3.141.041-11.309.155-22.619.145-33.918q-.031-35.825-.145-71.641c-.01-1.12.124-2.239.187-3.359-.01-.5-.01-.985-.021-1.482-.062-3.089-.166-6.168-.166-9.257-.021-18.1.021-36.2-.062-54.308-.01-2.125.549-2.7,2.706-2.685,22.515.083,45.041.052,67.567.062Q183.4,181.937,183.357,174.784Zm-177,15.974c-.01-1.348.1-2.229,1.824-1.721a8.569,8.569,0,0,0,2.312.062q23.075.016,46.16.01c16.016,0,32.042.021,48.057-.041,1.845-.01,2.56.352,2.529,2.4-.124,8-.1,16.016-.021,24.029.021,1.814-.518,2.426-2.384,2.426q-48.172-.062-96.333,0c-1.586,0-2.2-.332-2.177-2.084C6.417,207.479,6.386,199.124,6.354,190.759Zm98.188,173.136q-47.829-.109-95.659-.01c-2.011.01-2.571-.5-2.56-2.54q.109-32.031-.01-64.052c0-.238.01-.456.021-.653.021-.176.052-.342.083-.487a1.652,1.652,0,0,1,.145-.435,1.117,1.117,0,0,1,.207-.342,1.238,1.238,0,0,1,.612-.425,1.549,1.549,0,0,1,.259-.073.887.887,0,0,1,.238-.052,3.548,3.548,0,0,1,.5-.031H8.6c.135,0,.27-.073.4-.073,10.532.01,21.064-.207,31.6.114.124-.073.259-.145.384-.218.041-.446-.052-1.068.539-1.13.736-.093,1,.5,1.109,1.13.27.114.529.238.8.352.508.964,1.068,1.275,1.731.124.529-.187,1.068-.373,1.6-.56,1.7.031,3.4.073,5.1.1l.041.052c.549.062,1.161-.176,1.607.332l3.887-.031c.29.01.581.031.871.041.8-.881,2.011.031,2.851-.663h1.006c.84.695,2.052-.218,2.84.653.29,0,.581-.01.871-.021a25.875,25.875,0,0,1,4.82-.321q15.6.016,31.181.01c2.674,0,4.012,0,4.675.653a.712.712,0,0,1,.114.135.882.882,0,0,1,.176.259,1.525,1.525,0,0,1,.1.228,3.979,3.979,0,0,1,.114.415c.031.155.062.321.083.508.083.736.083,1.71.083,3.017,0,20.432-.041,40.874.052,61.316C107.248,363.365,106.688,363.894,104.543,363.894Zm2.944-109.529c-.021.7.394,1.524-.653,1.887-2.094.736-1.234,1.462.031,2.156.622,1.2,1.41,2.395.145,3.659.384,3.566.124,7.153.166,10.719.041,4.986-.031,9.962.031,14.948.021,1.389-.321,2-1.866,1.99-11.154-.073-22.318-.062-33.472-.083l-.923-.093h-.01c-.632.726-1.565.249-2.312.56-.363-.176-.726-.342-1.078-.518-1.006-.166-2.011.86-3.006-.01-.632.187-1.254.373-1.887.549-.612-.29-1.41.062-1.918-.591-1.14.073-2.218.715-3.41.384-.923,0-1.845-.01-2.757-.021l-.155.135-1.254-.156c-1.524-.746-3.328.27-4.7-.508s-2.021-.249-2.788.632a4.725,4.725,0,0,1-2.27.27q-17.073.016-34.125,0c-2.913,0-2.913-.01-2.913-2.934q0-31.161-.01-62.342c-.01-1.358.062-2.167,1.845-2.167q48.871.078,97.722.041a7.674,7.674,0,0,1,.84.083c.985.518.684,1.451.695,2.249.01,5.961.062,11.921-.1,17.882-.021.923.954,1.182.736,1.71-1.068,2.747-.27,5.66-.871,8.438.041.311.093.632.135.954a.2.2,0,0,1,.135.166,7.583,7.583,0,0,1,1.451.155A7.572,7.572,0,0,0,107.487,254.365Z" transform="translate(0 6.323)" fill="#fecd98"/>
      <path id="Path_5721" data-name="Path 5721" d="M41.188,290.35H39.54c.041-.446-.052-1.068.539-1.13C40.815,289.127,41.074,289.718,41.188,290.35Z" transform="translate(1.448 10.59)" fill="#d0bbb0"/>
      <path id="Path_5722" data-name="Path 5722" d="M208.446,15.5a69.226,69.226,0,0,0-.223,13.754c-.257.517-.335,1.01.2,1.414l.131,1.6c-.787.047-.833-1.481-1.812-.906a2.447,2.447,0,0,0-1.331,2.379,1.235,1.235,0,0,1-.383,1.123c-2.379,0-4.759.019-7.138,0-1.079-.009-1.738.338-1.75,1.545-.044,4.606.2,9.219-.394,13.81-.189,1.46.541,1.974,1.967,1.957,4.338-.05,8.679-.058,13.016.011a2.37,2.37,0,0,0,2.2-1.264A122.856,122.856,0,0,0,220.644,68.7a3.528,3.528,0,0,1,.789,3.08,8.244,8.244,0,0,0-.827,1.165,8.13,8.13,0,0,1-6.814,5.089c-5.89.728-11.822,1.181-17.577,2.98a27.244,27.244,0,0,0-14.8,10.735A231.654,231.654,0,0,0,168.7,113.124a175.246,175.246,0,0,0-8.98,18.424,1.817,1.817,0,0,1-1.1.923c-8.147.012-16.3-.088-24.439.079-5.223.108-8.505-3.365-8.487-8.606.126-34.415.08-68.831.04-103.246a7.941,7.941,0,0,1,3.536-7.158,6.188,6.188,0,0,1,3.58-.954c12.29-.075,24.58-.084,36.871-.1a2.485,2.485,0,0,1,.753.257c.545.822,1.085.845,1.617-.013a2.5,2.5,0,0,1,.753-.252q16.566.028,33.133.092a2.414,2.414,0,0,1,.6.162C207.855,13.206,207.827,14.571,208.446,15.5Z" transform="translate(4.602 0.457)" fill="#e7e7e7"/>
      <path id="Path_5723" data-name="Path 5723" d="M395.666,375.105c-.168,2.552-.171,2.436-3.821,2.523-2.189.052-2.119-1.242-2.1-2.7,0-.347-.025-.695-.038-1.042.185-2.113-.24-4.2-.259-6.3-.13-14.96-.85-29.9-1.247-44.852-.388-14.6-.958-29.2-1.308-43.8-.322-13.479-.93-26.949-1.216-40.424-.333-15.658-.969-31.3-1.36-46.957-.05-2.021-.538-2.539-2.57-2.533q-46.27.1-92.54.051c-.772,0-1.545.038-2.317.058q.028-6.108.056-12.215c2.185.43,4.254-.346,6.358-.659,3.458-.514,6.536-2.17,9.716-3.506l55.82-.013a4.322,4.322,0,0,0,2.434.447q12.576-.008,25.153.01a7.692,7.692,0,0,0,2.661-.433c1.473.007,2.956.124,4.418-.005,1.636-.145,2.135.369,2.126,2.069-.073,12.706-.034,25.413-.034,38.118q0,80.135,0,160.269C395.592,373.845,395.64,374.475,395.666,375.105Z" transform="translate(10.504 6.325)" fill="#fecd98"/>
      <path id="Path_5724" data-name="Path 5724" d="M218.079,69.825a3.528,3.528,0,0,0-.789-3.08c1.072-.108,2.268.393,3.149-.667.108-.131.416-.257.531-.2,4.7,2.466,9.829.968,14.73,1.549,2.983.352,5.991-.525,9-.081q-.075,1.518-.15,3.034c-4.339-.189-8.557-1.3-12.926-1.467a47.617,47.617,0,0,0-12.709.9A3.72,3.72,0,0,1,218.079,69.825Z" transform="translate(7.956 2.412)" fill="#f2ae8e"/>
      <path id="Path_5725" data-name="Path 5725" d="M196.754,8.664a2.085,2.085,0,0,0-.412-.083c-21.554,0-43.108-.035-64.662.019-4.945.012-8.668,3.344-9.658,8.267l-.012.435q.022,18.8.037,37.6-.009-18.8-.037-37.6c-.654.783-.15,1.761-.442,2.605q.014,14.9.027,29.8.04,3.261.077,6.525a.886.886,0,0,0,.168-.13.9.9,0,0,1-.172.135l-.055.1a4.125,4.125,0,0,1,.293,2.257q.056,34.054.084,68.11a6.1,6.1,0,0,1-.061.626c.481,6.427,5.805,9.59,10.937,9.539,8.214-.083,16.429-.011,24.645-.005.639-1.348,1.673-2.579,1.253-4.24-8.147.012-16.3-.088-24.439.079-5.223.108-8.505-3.365-8.487-8.606.126-34.415.08-68.831.04-103.246a7.941,7.941,0,0,1,3.536-7.158,6.188,6.188,0,0,1,3.58-.954c12.29-.075,24.58-.084,36.871-.1a2.485,2.485,0,0,1,.753.257,2.31,2.31,0,0,1,1.617-.013,2.5,2.5,0,0,1,.753-.252q16.566.03,33.133.092a2.414,2.414,0,0,1,.6.162c.758-.457,1.619-.05,2.4-.288,1.364-.962,1.52-2.64,2.331-3.93Q204.1,8.385,196.754,8.664Z" transform="translate(4.451 0.312)" fill="#282f39"/>
      <path id="Path_5726" data-name="Path 5726" d="M205.589,15.5c-.619-.926-.591-2.291-1.878-2.762.758-.457,1.619-.05,2.4-.288q.079.446.158.893c-.709.132-.814.557-.562,1.155Z" transform="translate(7.459 0.456)" fill="#fefefe"/>
      <path id="Path_5727" data-name="Path 5727" d="M256.029,30.392c1.505-.726,3.041-.668,3.152,1.229.221,3.772.424,7.6-1.263,11.21a3.072,3.072,0,0,1-1.469,1.659,14,14,0,0,0-3.8,2.454c.143-2.88,1.225-5.574,1.675-8.4.428-2.693.891-5.378,1.116-8.1Z" transform="translate(9.251 1.097)" fill="#f2ae8e"/>
      <path id="Path_5728" data-name="Path 5728" d="M203.518,42.689a6.815,6.815,0,0,1-.985-2.674c-.038-.813.35-1.689-.348-2.407q.022-1.706.042-3.411a1.235,1.235,0,0,0,.383-1.123,2.447,2.447,0,0,1,1.331-2.379c.979-.575,1.025.953,1.811.906.831,3.205.858,6.543,1.746,9.765a26.147,26.147,0,0,1,1.338,4.98,2.931,2.931,0,0,0-2.77-1.277C205.8,43.646,205.491,42.279,203.518,42.689Z" transform="translate(7.403 1.119)" fill="#f2ae8e"/>
      <path id="Path_5729" data-name="Path 5729" d="M256.108,21.248c.172,1.375.611,2.766-.248,4.077C255.648,23.948,255.3,22.562,256.108,21.248Z" transform="translate(9.359 0.778)" fill="#d0bbb0"/>
      <path id="Path_5730" data-name="Path 5730" d="M255.862,16.107c.833,1.019.421,2.134.252,3.232C255.336,18.316,255.639,17.208,255.862,16.107Z" transform="translate(9.359 0.59)" fill="#d0bbb0"/>
      <path id="Path_5731" data-name="Path 5731" d="M256.027,14.586a.844.844,0,0,1-.317.081,3.191,3.191,0,0,1-.622-2.126c.3-.063.609-.17.848.141Q255.981,13.633,256.027,14.586Z" transform="translate(9.34 0.457)" fill="#d0bbb0"/>
      <path id="Path_5732" data-name="Path 5732" d="M255.935,30.429l-.59.053a1.332,1.332,0,0,1,.326-1.513Z" transform="translate(9.346 1.061)" fill="#d0bbb0"/>
      <path id="Path_5733" data-name="Path 5733" d="M205.515,30.072c-.535-.4-.457-.9-.2-1.414A.988.988,0,0,1,205.515,30.072Z" transform="translate(7.51 1.049)" fill="#f2ae8e"/>
      <path id="Path_5734" data-name="Path 5734" d="M205.644,14.464c-.252-.6-.147-1.023.562-1.155A.979.979,0,0,1,205.644,14.464Z" transform="translate(7.525 0.487)" fill="#e7e7e7"/>
      <path id="Path_5735" data-name="Path 5735" d="M256,14.578q-.047-.952-.091-1.9l1.331.062Z" transform="translate(9.37 0.464)" fill="#fefefe"/>
      <path id="Path_5736" data-name="Path 5736" d="M304.011,12.737c-.456.752-.914.845-1.376.005A1.489,1.489,0,0,1,304.011,12.737Z" transform="translate(11.081 0.46)" fill="#fefefe"/>
      <path id="Path_5737" data-name="Path 5737" d="M340.646,124.877c-.121-.352-.139-.675.252-.88C341.292,124.428,341.068,124.681,340.646,124.877Z" transform="translate(12.47 4.54)" fill="#8f714f"/>
      <path id="Path_5738" data-name="Path 5738" d="M302.733,131.328H333.8v.223H302.723Z" transform="translate(11.084 4.809)" fill="#1d1b28"/>
      <path id="Path_5739" data-name="Path 5739" d="M344.18,49.017h0a6,6,0,0,0,.026-2.7l-.115-.805h0l.227-5.828-.369-.387c.507-.839.156-1.8.384-2.679q-.272-1.9-.546-3.8a3.738,3.738,0,0,0,.451-2.431q0-5.475,0-10.948c-.01-6.845-4.051-10.863-10.934-10.909-4.976-.033-9.953-.092-14.928-.14-.764.048-1.528.137-2.293.137q-30.06.012-60.121.01c-.839,0-1.676.068-2.515.1.409,1.414,1.484,2.547,1.705,4.041.3-.063.609-.17.848.141l1.331.062a11.171,11.171,0,0,1,1.436-.185q22.036-.05,44.072-.069c.538,0,1.127-.188,1.6.256a1.489,1.489,0,0,1,1.376-.005,35.8,35.8,0,0,1,6.5-.177c6.74-.037,13.48.012,20.219-.023a7.168,7.168,0,0,1,7.461,5.442q.011,12.02.022,24.039l.686.028a10.347,10.347,0,0,0,1.056,1.726A10.347,10.347,0,0,1,340.7,42.2l-.686-.028q.033,2.329.065,4.656c.651.006,1.073.25,1.154.847-.081-.6-.5-.841-1.154-.846-.01.437-.137.891.181,1.282q-.092.61-.182,1.221c-.01,1.6-.029,3.207-.029,4.811,0,23.433-.1,46.865.072,70.3.04,5.518-3.726,8.282-8.28,8.213-9.96-.15-19.923-.03-29.885-.02.016,1.7,1.136,2.909,1.9,4.277,9.94-.013,19.881-.057,29.821-.026,4.845.015,9.558-3.33,10.163-7.775-.121-.352-.139-.675.252-.88.368-4.125.137-8.26.149-12.39q.078-26.5.078-52.99Q344.248,55.933,344.18,49.017Zm-39.653,87.035.01-.223H335.6v.223ZM341.9,37.638a2.8,2.8,0,0,0-.779,2.078A2.8,2.8,0,0,1,341.9,37.638Zm-.613,10.325c-.029.672-.076,1.344-.1,2.017.023-.673.069-1.346.1-2.018Z" transform="translate(9.28 0.308)" fill="#282f39"/>
      <path id="Path_5740" data-name="Path 5740" d="M306.586,267.3c4.271-2.394,4.9-6.526,5.076-10.815.341-8.237-.623-16.387-1.733-24.525-.918-6.733-2.164-13.406-3.459-20.073a5.254,5.254,0,0,0-3.039-4.1c-3.409-1.731-5.1-4.835-5.655-8.582-.153-1.036.077-1.574,1.274-1.559q10.322.134,20.646.173c1.179,0,1.44.515,1.329,1.553a10.608,10.608,0,0,1-6.237,8.811c-1.58.777-2.007,1.5-1.6,3.335q2.06,9.214,3.618,18.539c1.7,10.313,3.165,20.659,1.548,31.15-.948,6.148-4.908,9.807-10.155,12.418-.984.489-2.135.691-2.744,1.759-1.582-.96-2.71.506-4.062.767-7.58,1.464-15.166,2.8-22.938,2.629a8.627,8.627,0,0,0-4.4.852,6.047,6.047,0,0,0-3.3-.36c-7.506.325-15.013.341-22.518-.017-1.377-.065-1.983.176-1.98,1.78q.078,36.758.006,73.518c0,1.415.446,1.959,1.811,2.191a53.217,53.217,0,0,1,13.582,4.2c2.52,1.174,4.939,2.566,7.4,3.859.132.423.447.256.72.223a3.845,3.845,0,0,0,.872,1.13,43.058,43.058,0,0,1,6.6,6.181c2.333,2.828,2.454,4.628.144,7.756-.66.895.03,1.032.614,1.273-.041,1.5,1.068,2.849.307,4.484a5.056,5.056,0,0,1-4.221,3.312,4.687,4.687,0,0,1-4.682-2.2,4.969,4.969,0,0,1,.07-5.384c.379-.611.809-.917.049-1.429a2.935,2.935,0,0,1-1.282-2.917c.1-1.238-.635-1.54-1.717-1.537-7.657.016-15.315.027-22.973-.007-1.208-.005-1.613.451-1.556,1.622.072,1.472-.027,2.951.021,4.425.043,1.33-.141,2.532-1.433,3.23-.96.519-.371.9-.005,1.448a5.544,5.544,0,0,1-.054,5.751,4.979,4.979,0,0,1-5.658,1.635c-2.032-.614-3.463-2.363-3.133-4.2a14.258,14.258,0,0,0-.489-7.6c-.5-1.441-.132-3.2-.075-4.815.037-1.07-.335-1.507-1.447-1.5q-13.277.044-26.556.008c-1.2,0-1.642.555-1.578,1.687.024.416.118,1.059-.1,1.222-2.227,1.659-.591,3.479-.369,5.286a4.648,4.648,0,0,1-2.428,4.751,4.983,4.983,0,0,1-5.528-.55c-1.544-1.421-2.4-3.1-1.591-5.248a4.043,4.043,0,0,1,.563-1.346c1.07-1.151.161-1.368-.7-1.648-.088-.476-.143-.96-.27-1.425a5.947,5.947,0,0,1,1.492-6.01,56.344,56.344,0,0,1,9.369-8.158l1.234-.853c1,.009,1.591-.826,2.387-1.229a59.31,59.31,0,0,1,16.432-5.48c1.2-.216,1.571-.757,1.569-1.973q-.051-36.942,0-73.882c0-1.384-.426-1.792-1.8-1.8-6.592-.042-13.182-.183-19.772-.288-2.931-.156-5.855-.068-8.8-.384-8.313-.89-16.7-1.14-24.844-3.347-.849-.23-1.722-1.044-2.752-.5-2.115-1.355-4.609-1.9-6.737-3.269-2.867-1.846-5.473-4-6.882-7.09a24.374,24.374,0,0,1-1.822-8.787c-.448-8.108.754-16.069,2.151-24.023,1.32-7.518,3.035-14.946,4.744-22.376.293-1.274-.3-1.623-1.184-2.017-3.806-1.7-5.806-4.792-6.8-8.713-.359-1.414.019-1.877,1.484-1.867q10.213.076,20.428,0c1.355-.007,1.9.228,1.521,1.788-.957,3.958-2.922,7.034-6.759,8.731a3.188,3.188,0,0,0-1.92,2.451c-1.976,7.889-3.362,15.89-4.669,23.9a111.845,111.845,0,0,0-1.47,25.154c.257,4.078,2.909,7.294,6.309,7.7l-.01-.016c.205.843.428.3.648.007a.9.9,0,0,0,.247.138c.833,1.791,2.644,1.925,4.2,2.344a90.79,90.79,0,0,0,15.813,2.713c5.7.491,11.368,1.243,17.1,1.085,5.375.006,10.75.023,16.126.016,5.485-.008,5.485-.019,5.392-5.441,1.888-.015,3.78-.117,5.661-.015,1.5.082,1.895-.5,1.877-1.931-.074-5.943-.042-11.887-.05-17.83q.006-6.985.011-13.97c0-2.387-.027-4.776.026-7.163.025-1.088-.2-1.646-1.479-1.695-2.339-.09-3.167-1.048-3.17-3.45q-.025-18.331,0-36.66c0-2.387,1.255-3.675,3.6-3.706q4.845-.064,9.691,0a3.678,3.678,0,0,1,3.949,3.95q.034,18.12,0,36.239c0,2.259-1.123,3.483-3.38,3.634-1.172.078-1.623.536-1.6,1.678.039,2.387.021,4.776.025,7.163q0,7,0,14c-.006,5.828.048,11.658-.054,17.485-.032,1.8.624,2.354,2.327,2.258,1.749-.1,3.509.007,5.264.023-.007,1.333.06,2.672-.043,4-.1,1.238.433,1.492,1.567,1.55,8.762.45,17.528.482,26.3.31C285.179,272.3,296.284,272.171,306.586,267.3Z" transform="translate(5.457 6.609)" fill="#282f39"/>
      <path id="Path_5741" data-name="Path 5741" d="M230.591,231.783q0,6.986-.011,13.97-29.32-.014-58.641-.037c-2.928,0-5.869-.22-8.566,1.278a73.119,73.119,0,0,1,1.49-17.305,9.511,9.511,0,0,1,3.937-6.1,37.3,37.3,0,0,1,8.639-4.471c-.092,6.468,6.622,12.875,13.317,12.746C204.03,231.613,217.312,231.787,230.591,231.783Z" transform="translate(5.982 8.023)" fill="#8d7601"/>
      <path id="Path_5742" data-name="Path 5742" d="M250.586,239.485" transform="translate(9.175 8.769)" fill="#8d7601"/>
      <path id="Path_5743" data-name="Path 5743" d="M250.569,235.4c.428-.616,2-.678,1.057-1.766-.6-.7-1.6-.285-2.278.26a2.124,2.124,0,0,0-.691,2.46Z" transform="translate(9.1 8.541)" fill="#8d7601"/>
      <path id="Path_5744" data-name="Path 5744" d="M263.474,231.784l.646-.009c4.481.025,8.974.268,13.44.019,5.55-.312,10.977-6.288,11.143-11.831.033-1.12.051-2.24.077-3.36a24.723,24.723,0,0,1,13.5,10.244c1.495,2.4,1.194,5.447,1.372,8.208.276,4.262.139,8.55.177,12.826-1.631-.917-3.17-2.063-5.168-2.062l-63.054.042q0-7,0-14,8.641.047,17.278.09Z" transform="translate(8.627 7.931)" fill="#8d7601"/>
      <path id="Path_5745" data-name="Path 5745" d="M260.651,231.332" transform="translate(9.544 8.47)" fill="#8d7601"/>
      <path id="Path_5746" data-name="Path 5746" d="M257.273,231.33l1.13-.024" transform="translate(9.42 8.469)" fill="none"/>
      <path id="Path_5747" data-name="Path 5747" d="M246.8,244.1c.718-.254.228-.938.125-1.462-.3-1.534.862-2.73,2.182-2.075Z" transform="translate(9.037 8.802)" fill="#8d7601"/>
      <path id="Path_5748" data-name="Path 5748" d="M245.408,236.412c-.5-.324-1.043-.823-1.693-.251-.614.539-.319,1.149-.082,1.728Z" transform="translate(8.91 8.638)" fill="#8d7601"/>
      <path id="Path_5749" data-name="Path 5749" d="M165.11,271.2c1.03-.541,1.9.273,2.752.5,8.146,2.207,16.531,2.457,24.844,3.347,2.943.315,5.867.228,8.8.383q-.058,1.678-.114,3.354c-2.723.833-3.466,1.8-3.3,4.188.047.676.078,1.247.97,1.269.8.019,1.143-.338,1.128-1.116-.017-.877.047-1.715,1.2-1.823-.03,15.341-.036,30.682-.1,46.022-.025,5.455.187,10.916-.236,16.365-.527.388-.592.8-.056,1.232l0,1.372a6.117,6.117,0,0,0,0,4.527l-.078,7.307a.8.8,0,0,0-.343-.12.482.482,0,0,0-.357.023c-4.816,1.259-9.7,1.1-14.613.861-1.706-.082-3.031-1.546-4.806-1.053-2.352-11.786-4.744-23.564-7.042-35.36-1.737-8.916-3.477-17.835-4.99-26.79C167.387,287.553,166.316,279.365,165.11,271.2Z" transform="translate(6.046 9.923)" fill="#8d7601"/>
      <path id="Path_5750" data-name="Path 5750" d="M163.489,246.056c2.7-1.5,5.637-1.281,8.566-1.278q29.321.042,58.641.037c.007,5.943-.024,11.887.05,17.83.018,1.434-.373,2.013-1.877,1.931-1.881-.1-3.773,0-5.661.015q-10.768.006-21.534.016-15.145-.033-30.29-.065c-2.292-.005-4.6.18-6.816-.667a.924.924,0,0,1-.248-.138l-.647-.007.01.016c-.444-1.361-2.088-1.874-2.438-3.225C159.914,255.393,159.2,250.324,163.489,246.056Z" transform="translate(5.866 8.962)" fill="#208443"/>
      <path id="Path_5751" data-name="Path 5751" d="M22.509,303.455c.759.2,1.014.895,1.432,1.442.912,1.2,1.594,2.265,3.251.46,1.76-1.919,4.342-1.651,6.16.2,1.715,1.748,3.3,3.623,4.992,5.388.833.869.221,1.329-.336,1.893-.717.729-1.109.369-1.65-.294-1.369-1.678-2.858-3.258-4.269-4.9a2.329,2.329,0,0,0-3.528-.352c-.832.627-1.315,1.439-.389,2.474,1.631,1.82,3.208,3.689,4.8,5.543.425.5,1.263.97.345,1.688-.739.578-1.47.994-2.33-.046-2.94-3.552-5.972-7.028-8.935-10.562-.47-.561-1.1-1.192-.659-2.055A1.438,1.438,0,0,1,22.509,303.455Z" transform="translate(0.778 11.111)" fill="#f2d9cc"/>
      <path id="Path_5752" data-name="Path 5752" d="M51.915,295.954a7.689,7.689,0,0,0,4.6,0c1.95.032,3.9.053,5.851.1,1.7.04,2.958,1.159,2.806,2.629a2.415,2.415,0,0,1-2.776,2.4c-4.043-.081-8.089-.063-12.133-.086a5.724,5.724,0,0,0,.823-.633c.494-.541,1.745-.777.886-1.922-.57-.76-1.069-1.237-2.247-.64-1.535.779-2.458-.218-2.842-1.733Z" transform="translate(1.717 10.836)" fill="#1d1b28"/>
      <path id="Path_5753" data-name="Path 5753" d="M40.856,309.437a3.627,3.627,0,0,1-3.194-1.052c-1.773-1.882-3.489-3.818-5.279-5.682-.816-.849-.256-1.31.307-1.9.7-.726,1.262-.447,1.729.195a60.114,60.114,0,0,0,4.664,5.108c1.207,1.31,2.192.719,3.245-.161s.968-1.631.044-2.621c-1.57-1.679-2.954-3.534-4.509-5.229-.915-1-.169-1.468.427-2.041.794-.765,1.237-.075,1.694.446,1.8,2.044,3.543,4.133,5.391,6.127a1.959,1.959,0,0,1,.325,2.633C44.458,307.4,42.841,309.027,40.856,309.437Z" transform="translate(1.171 10.828)" fill="#f2d9cc"/>
      <path id="Path_5754" data-name="Path 5754" d="M17.955,314.454c.016-1.934,2.616-4.562,4.488-4.606.9-.022.945.652,1.186,1.21.261.605.251,1.039-.494,1.311a12.358,12.358,0,0,0-2.069,1.018,1.417,1.417,0,0,0-.545,1.685c.207.844.968.779,1.552.647a13.254,13.254,0,0,0,2.566-.887,3.317,3.317,0,0,1,3.994.987,3.222,3.222,0,0,1,.62,3.873,7.741,7.741,0,0,1-4.455,3.929,1.133,1.133,0,0,1-1.606-.556,1.266,1.266,0,0,1,.581-1.787c.976-.535,2.129-.827,2.8-1.8.341-.488.813-1.017.345-1.714a1.287,1.287,0,0,0-1.829-.423q-.955.434-1.94.805C20.311,319.222,17.929,317.525,17.955,314.454Z" transform="translate(0.657 11.345)" fill="#f2d9cc"/>
      <path id="Path_5755" data-name="Path 5755" d="M46.944,296.066c.385,1.516,1.307,2.512,2.842,1.733,1.179-.6,1.677-.12,2.247.64.858,1.144-.392,1.381-.886,1.922a5.724,5.724,0,0,1-.823.633c-.759.031-1.517.064-2.275.091-2.683.093-2.951-.178-2.888-2.911.011-.865.87-1.293,1.065-2.063Z" transform="translate(1.653 10.841)" fill="#8f714f"/>
      <path id="Path_5756" data-name="Path 5756" d="M51.677,290.712c-.166.031-.332.073-.508.1-.394-.073-.84-.01-1.1-.435C50.619,290.442,51.231,290.2,51.677,290.712Z" transform="translate(1.833 10.632)" fill="#d0bbb0"/>
      <path id="Path_5757" data-name="Path 5757" d="M65.209,229.278a2.191,2.191,0,0,1-2.426,2.3c-2.592-.031-5.183-.01-7.775-.01-2.519,0-5.038-.01-7.557.01a2.036,2.036,0,0,1-2.322-2.3c-.041-1.586.653-2.674,2.218-2.7q7.775-.14,15.539-.01A2.358,2.358,0,0,1,65.209,229.278Z" transform="translate(1.652 8.294)" fill="#1d1b28"/>
      <path id="Path_5758" data-name="Path 5758" d="M55.118,197.394c-2.52,0-5.039-.027-7.558.009a2.1,2.1,0,0,1-2.436-2.41c0-1.589.728-2.577,2.333-2.593q7.663-.073,15.324,0a2.357,2.357,0,0,1,2.434,2.6,2.246,2.246,0,0,1-2.541,2.406C60.156,197.364,57.637,197.395,55.118,197.394Z" transform="translate(1.652 7.043)" fill="#1d1b28"/>
      <path id="Path_5759" data-name="Path 5759" d="M46.948,296.243l-.718.046c-.173-.22-.336-.45-.523-.657a2.7,2.7,0,0,1,1.354-4.359c.725-.221,1.037.327,1.381.714,1.206,1.358,2.365,2.757,3.541,4.14Z" transform="translate(1.649 10.663)" fill="#f2ae8e"/>
      <path id="Path_5760" data-name="Path 5760" d="M103.69,251.47v.01a7.572,7.572,0,0,1,1.451.145A7.583,7.583,0,0,0,103.69,251.47Z" transform="translate(3.797 9.208)" fill="#fecd98"/>
      <path id="Path_5761" data-name="Path 5761" d="M340.406,53.994c0-1.6.019-3.207.029-4.811q.09-.611.182-1.221c-.318-.391-.192-.845-.181-1.282q-.033-2.329-.065-4.658-.009-12.02-.022-24.039a7.168,7.168,0,0,0-7.461-5.442c-6.739.035-13.479-.015-20.219.023a35.8,35.8,0,0,0-6.5.177c-.456.752-.914.845-1.376.005-.475-.444-1.064-.257-1.6-.256q-22.035.019-44.072.069a11.314,11.314,0,0,0-1.435.183q-.622.922-1.241,1.843a.844.844,0,0,1-.317.081l.171,1.574c.833,1.019.421,2.134.252,3.232l-.006,2.1c.172,1.375.611,2.766-.248,4.077q-.1,1.962-.2,3.925l.264,1.462c1.505-.726,3.041-.668,3.152,1.229.221,3.772.424,7.6-1.263,11.21a3.069,3.069,0,0,1-1.469,1.659,14,14,0,0,0-3.8,2.454c-.393,1.257-.941,2.453-1.355,3.708-2.059,6.247-4.309,12.426-7.892,18.012q-.075,1.518-.15,3.034c1.712.076,2.5.83,2.741,2.674.313,2.435,1.822,3.462,4.3,3.786,4.027.525,8.06,1.031,12.058,1.733,6.013,1.055,11.3,3.514,15.121,8.512,2.889,3.78,5.046,8.014,7.415,12.111,4.18,7.227,8.319,14.478,12.117,21.918,1.613,3.161,3.314,6.276,4.975,9.411,9.962-.01,19.925-.131,29.885.02,4.555.068,8.321-2.7,8.28-8.213C340.307,100.86,340.4,77.427,340.406,53.994ZM319.127,67.654c.011-.011.021-.023.031-.034C319.148,67.631,319.139,67.642,319.127,67.654Z" transform="translate(8.919 0.456)" fill="#f6ebe5"/>
      <g id="Group_3873" data-name="Group 3873" transform="translate(175.07 13.05)">
        <path id="Path_5762" data-name="Path 5762" d="M168.886,12.742c.545.822,1.085.845,1.617-.013A2.31,2.31,0,0,0,168.886,12.742Z" transform="translate(-168.886 -12.589)" fill="#e7e7e7"/>
        <path id="Path_5763" data-name="Path 5763" d="M209.162,46.216a2.932,2.932,0,0,0-2.768-1.277,4.66,4.66,0,0,1-.81,1.776,4.662,4.662,0,0,0,.809-1.775c-.261-1.422-.574-2.79-2.548-2.379a6.827,6.827,0,0,1-.986-2.674h0c-.038-.813.35-1.689-.348-2.407q.022-1.706.042-3.411c-2.379,0-4.759.019-7.138,0-1.079-.009-1.738.338-1.75,1.545-.044,4.606.2,9.219-.394,13.81-.189,1.46.541,1.975,1.969,1.957,4.337-.05,8.678-.058,13.015.011a2.37,2.37,0,0,0,2.2-1.264Z" transform="translate(-167.994 -11.803)" fill="#e7e7e7"/>
      </g>
      <path id="Path_5764" data-name="Path 5764" d="M293.917,320.046c-.613,3.584-1.164,7.179-1.85,10.749-1.65,8.586-3.36,17.161-5.055,25.739-.19.96-.432,1.909-.65,2.864a22.307,22.307,0,0,1-10.467,1.464c-3.436-.424-6.862-.936-10.293-1.41q-.1-1.306-.194-2.611a13.277,13.277,0,0,0,.437-4.7q.306-6.044.611-12.087.446-8.914.886-17.829.742-15.2,1.473-30.409c1.153-1.576.612-3.282.381-4.963l.237-5.2a.946.946,0,0,0,.015-1.589c0-1.269-.366-2.571.344-3.775a8.637,8.637,0,0,1,4.4-.851c7.773.174,15.358-1.165,22.938-2.629,1.353-.261,2.481-1.727,4.063-.767-1.057,10.224-2.521,20.393-4.145,30.541ZM270.27,351.26a3.282,3.282,0,0,0,3.4-3.644c-.018-.743-.023-1.415-1.046-1.413-.841,0-1.08.47-1.054,1.2.037,1.051-.3,1.763-1.511,1.765-.836,0-1.88-.06-1.733,1.182C268.47,351.544,269.571,351.168,270.27,351.26Z" transform="translate(9.718 9.949)" fill="#8d7601"/>
      <path id="Path_5765" data-name="Path 5765" d="M235.608,244.829l63.054-.042c2,0,3.537,1.144,5.168,2.062,3.332,4.78,3.069,11.07-.687,16.486a19.33,19.33,0,0,1-8.011,1.233c-7.932-.052-15.864.018-23.8.039l-28.19-.011c-1.755-.017-3.515-.122-5.264-.024-1.7.1-2.359-.457-2.327-2.258C235.656,256.487,235.6,250.657,235.608,244.829Z" transform="translate(8.625 8.963)" fill="#208443"/>
      <path id="Path_5766" data-name="Path 5766" d="M270.084,263.952c7.932-.022,15.864-.091,23.8-.039a19.33,19.33,0,0,0,8.011-1.233l.277,1.611c-10.3,4.871-21.408,5-32.452,5.508Q269.9,266.875,270.084,263.952Z" transform="translate(9.876 9.618)" fill="#8d7601"/>
      <path id="Path_5767" data-name="Path 5767" d="M164.414,263.2c2.211.847,4.524.661,6.816.667q15.145.036,30.29.064.008,2.706.016,5.411c-5.737.158-11.406-.594-17.1-1.085a90.79,90.79,0,0,1-15.813-2.713C167.058,265.124,165.247,264.99,164.414,263.2Z" transform="translate(6.02 9.637)" fill="#8d7601"/>
      <path id="Path_5768" data-name="Path 5768" d="M163.551,263.059l.647.007C163.979,263.364,163.756,263.9,163.551,263.059Z" transform="translate(5.988 9.632)" fill="#f2d9cc"/>
      <path id="Path_5769" data-name="Path 5769" d="M250.579,239.478l.007.007" transform="translate(9.175 8.769)" fill="none"/>
      <path id="Path_5770" data-name="Path 5770" d="M290.908,219.573c-.01.415.01.84.021,1.254-.021,1.12-.041,2.239-.073,3.359-.166,5.546-5.6,11.527-11.144,11.838l-8.749.052h-.176l-15.757.1q-8.63-.047-17.28-.083c0-2.395.021-4.779-.021-7.163-.021-1.151.435-1.607,1.607-1.679,2.249-.156,3.369-1.379,3.379-3.639q.031-18.115,0-36.24a3.685,3.685,0,0,0-3.95-3.949q-4.851-.062-9.692,0c-2.343.031-3.6,1.316-3.607,3.711q-.016,18.333.01,36.655c0,2.4.829,3.359,3.162,3.452,1.285.052,1.513.612,1.482,1.7-.052,2.384-.021,4.768-.021,7.163-13.279,0-26.568-.176-39.837.083-6.7.124-13.414-6.282-13.32-12.75q0-15.86.01-31.731-.031-7.153-.073-14.305.031-17.788.083-35.587c0-3.649.041-7.3-.01-10.947A29.6,29.6,0,0,1,198.359,102.3a28.333,28.333,0,0,1,7.878-1.14c18.39.01,36.779-.021,55.179.031a29.2,29.2,0,0,1,13.435,3.41,2.761,2.761,0,0,1,2.063,1.223,29.164,29.164,0,0,1,12.719,16.254c1.317,3.887,1.285,7.837,1.285,11.828q.031,22.811.052,45.632-.031,6.111-.052,12.211-.016,7.883-.01,15.767Z" transform="translate(6.477 3.704)" fill="#208443"/>
      <path id="Path_5771" data-name="Path 5771" d="M256.863,233.871c-.091.578-.319,1.089-.991,1.111a.672.672,0,0,1-.728-.8,1.218,1.218,0,0,1,1.036-1.14C256.719,232.957,256.838,233.41,256.863,233.871Z" transform="translate(9.342 8.533)" fill="#8d7601"/>
      <path id="Path_5772" data-name="Path 5772" d="M253.867,235.774" transform="translate(9.295 8.633)" fill="#8d7601"/>
      <path id="Path_5773" data-name="Path 5773" d="M200.225,278.513q0,1.258,0,2.518c-1.156.108-1.219.945-1.2,1.822.016.778-.328,1.135-1.128,1.116-.893-.022-.924-.593-.97-1.269C196.759,280.313,197.5,279.346,200.225,278.513Z" transform="translate(7.21 10.198)" fill="#8f714f"/>
      <path id="Path_5774" data-name="Path 5774" d="M199.739,343.636a7.186,7.186,0,0,1,0,4.527A6.117,6.117,0,0,1,199.739,343.636Z" transform="translate(7.298 12.582)" fill="#8f714f"/>
      <path id="Path_5775" data-name="Path 5775" d="M199.8,341.124a.844.844,0,0,1-.056,1.232C199.2,341.92,199.27,341.512,199.8,341.124Z" transform="translate(7.3 12.49)" fill="#8f714f"/>
      <path id="Path_5776" data-name="Path 5776" d="M270.167,348.63c-.7-.092-1.8.283-1.941-.909-.147-1.242.9-1.18,1.733-1.182,1.212,0,1.549-.714,1.511-1.765-.026-.731.214-1.2,1.054-1.2,1.023,0,1.028.67,1.046,1.413A3.282,3.282,0,0,1,270.167,348.63Z" transform="translate(9.821 12.58)" fill="#8f714f"/>
      <path id="Path_5777" data-name="Path 5777" d="M265.432,354c-1.021-1.868-.824-3.976.439-4.7A13.3,13.3,0,0,1,265.432,354Z" transform="translate(9.695 12.79)" fill="#e7e7e7"/>
      <path id="Path_5778" data-name="Path 5778" d="M268.7,291.279c-.053-1.669-.323-3.354.381-4.964C269.311,288,269.852,289.7,268.7,291.279Z" transform="translate(9.835 10.484)" fill="#8f714f"/>
      <path id="Path_5779" data-name="Path 5779" d="M269.3,281.359a1.354,1.354,0,0,1,.015-1.589A.946.946,0,0,1,269.3,281.359Z" transform="translate(9.851 10.244)" fill="#8f714f"/>
    </g>
  </g>
</svg>
