<svg xmlns="http://www.w3.org/2000/svg" xmlns:xlink="http://www.w3.org/1999/xlink" width="1076" height="485" viewBox="0 0 1076 485">
  <defs>
    <clipPath id="clip-path">
      <rect id="Rectangle_185" data-name="Rectangle 185" width="1076" height="485" rx="50" transform="translate(102 3074)" fill="#fff1d9"/>
    </clipPath>
  </defs>
  <g id="Cash_Background" data-name="Cash Background" transform="translate(-102 -3074)" clip-path="url(#clip-path)">
    <g id="Artwork_11" data-name="Artwork 11" transform="translate(640 3316.5)">
      <g id="Group_402" data-name="Group 402" transform="translate(-467.026 -197.62)">
        <g id="Group_391" data-name="Group 391">
          <g id="Group_390" data-name="Group 390">
            <g id="Group_382" data-name="Group 382" transform="translate(336.401 18.269)">
              <path id="Path_1511" data-name="Path 1511" d="M468.541,92.569c2.684,2.709,4.152,6.51,7.64,8.495.814-2.513.846-2.537-.588-4.461a180.058,180.058,0,0,0-16.311-19.259c-.607-.612-1.714-1.123-.98-2.126s1.5-.052,2.3.3c4.34,1.919,8.83,1.246,11.026-1.686,2.635-3.516,1.59-6.75-.95-9.81-.366-.44-.775-.909-.328-1.687,1.243-.536,1.749.678,2.365,1.307a138.7,138.7,0,0,1,21.811,29.154,7.667,7.667,0,0,1-2.436,10.219c-6.116,4.063-4.005,4.671-14.236.183-.18,4.206,3.388,6.619,4.441,10.086l-.972.78L467.839,93.2Zm14.905-4.19c-.274-2.6-2.026-3.875-4.4-4.193a2.306,2.306,0,0,0-2.862,2.567c.154,2.476,1.958,3.6,4.121,4.008C481.976,91.076,483.157,90.263,483.447,88.379Z" transform="translate(-413.76 -28.773)" fill="#ffe6c5"/>
              <path id="Path_1512" data-name="Path 1512" d="M464.327,55.924c-2.766,1.747-3.895.462-5.246.049-3.475-1.063-6.74-.716-9.206,1.845-2.12,2.2-3.319,5.031-.876,7.975.472.569.4.966-.133,1.47-.859.811-1.169.137-1.718-.414a225.051,225.051,0,0,0-28.062-23.3c-3.371-2.434-2.055-7.513,2.639-10.023,5.466-2.924,10.643-3.643,16.157.874,7.554,6.188,15.342,12.087,22.559,18.687A42.024,42.024,0,0,0,464.327,55.924Zm-22.08-8.041a4.279,4.279,0,0,0-4.262-3.7c-1.7-.124-3.128.7-2.857,2.536a4.442,4.442,0,0,0,4.3,3.848C441.179,50.732,442.214,49.821,442.247,47.883Z" transform="translate(-406.86 -23.534)" fill="#ffe6c5"/>
              <path id="Path_1513" data-name="Path 1513" d="M450.614,40.376c-5.932-4.3-11.833-8.649-17.806-12.893-3.813-2.709-7.187-3.686-11.622,0-4.3,3.574-8.28,7.827-13.591,10.153-.112.049.089.814.145,1.244q-.273.319-.563.623c-2.06-.81-3.813-1.463-.817-3.646,5.6-4.079,11.074-8.334,16.479-12.668,1.963-1.574,3.459-1.56,5.579-.222A189.66,189.66,0,0,1,451.49,39.577Z" transform="translate(-404.758 -21.981)" fill="#ffe6c5"/>
              <path id="Path_1514" data-name="Path 1514" d="M504.666,100.108c4.161,6.71,4.163,6.713-1.912,11.38-4.392,3.374-8.865,6.648-13.152,10.151-2.114,1.727-3.042,1.252-3.554-1.176l.972-.78c3.568,1.143,4.486-2.653,6.511-4,3.275-2.18,6.2-5.078,9.761-6.913,4.922-2.537,1.353-5.268.458-7.975Z" transform="translate(-418.487 -35.175)" fill="#ffe6c5"/>
              <path id="Path_1515" data-name="Path 1515" d="M481.208,64.677,469.731,52.671l.793-.843a88.689,88.689,0,0,1,11.527,12.019Z" transform="translate(-415.731 -27.022)" fill="#ffe6c5"/>
              <path id="Path_1516" data-name="Path 1516" d="M424.394,54.616l-8.868-6.494a6.564,6.564,0,0,0,.639-.632c3.012,2.073,6.2,3.912,8.7,6.656C424.713,54.306,424.555,54.462,424.394,54.616Z" transform="translate(-406.577 -26.289)" fill="#ffe6c5"/>
              <path id="Path_1517" data-name="Path 1517" d="M496.878,83.838l-5.359-7.3.8-.91,5.477,7.458Q497.338,83.461,496.878,83.838Z" transform="translate(-419.411 -31.041)" fill="#ffe6c5"/>
              <path id="Path_1518" data-name="Path 1518" d="M484.383,66.289a26.3,26.3,0,0,1,5.343,6.416l-.789.87-5.4-6.456Z" transform="translate(-418.063 -29.464)" fill="#ffe6c5"/>
              <path id="Path_1519" data-name="Path 1519" d="M468.739,51.812l-4.879-4.254.876-.814,4.8,4.226Z" transform="translate(-414.74 -26.163)" fill="#ffe6c5"/>
              <path id="Path_1520" data-name="Path 1520" d="M451.516,77.434c2.36,1.592,4.084,3.818,5.917,5.937a5.641,5.641,0,0,0-.665.578l-5.805-5.9Q451.252,77.752,451.516,77.434Z" transform="translate(-412.561 -31.346)" fill="#ffe6c5"/>
              <path id="Path_1521" data-name="Path 1521" d="M503.876,92.52a21.353,21.353,0,0,1,3.653,6.307l-.914.686L503,93.247Z" transform="translate(-421.35 -33.894)" fill="#ffe6c5"/>
              <path id="Path_1522" data-name="Path 1522" d="M414.521,47.478l-4.943-3.145q.312-.315.592-.657l4.99,3.171A6.545,6.545,0,0,1,414.521,47.478Z" transform="translate(-405.572 -25.645)" fill="#ffe6c5"/>
              <path id="Path_1523" data-name="Path 1523" d="M443.312,69.291l3.181,3.18a6.19,6.19,0,0,0-.622.559l-3.126-3.15A7.291,7.291,0,0,0,443.312,69.291Z" transform="translate(-411.174 -29.971)" fill="#ffe6c5"/>
              <path id="Path_1524" data-name="Path 1524" d="M463.2,46.951l-3.265-3,.876-.8,3.265,2.984Z" transform="translate(-414.076 -25.556)" fill="#ffe6c5"/>
              <path id="Path_1525" data-name="Path 1525" d="M501.779,89.192l1.736,2.766-.877.727q-.888-1.386-1.774-2.773Z" transform="translate(-420.989 -33.332)" fill="#ffe6c5"/>
              <path id="Path_1526" data-name="Path 1526" d="M499.6,85.883l1.809,2.75-.914.72-1.8-2.713Z" transform="translate(-420.624 -32.773)" fill="#ffe6c5"/>
              <path id="Path_1527" data-name="Path 1527" d="M464.084,92.254l-2.117-2.407q.284-.287.573-.57l2.232,2.347Z" transform="translate(-414.42 -33.346)" fill="#ffe6c5"/>
              <path id="Path_1528" data-name="Path 1528" d="M467.992,95.774,470.1,98.24l-.7.632-2.089-2.453Z" transform="translate(-415.323 -34.443)" fill="#ffe6c5"/>
              <path id="Path_1529" data-name="Path 1529" d="M465.2,92.1l1.538,2.01c-.2.2-.4.4-.608.6l-1.617-1.977Z" transform="translate(-414.85 -33.823)" fill="#ffe6c5"/>
              <path id="Path_1530" data-name="Path 1530" d="M447.128,73.117a2.919,2.919,0,0,1,1.83,1.789q-.315.256-.613.533-.919-.883-1.838-1.763A6.181,6.181,0,0,1,447.128,73.117Z" transform="translate(-411.809 -30.617)" fill="#ffe6c5"/>
              <path id="Path_1531" data-name="Path 1531" d="M450.583,77.681q-.931-.941-1.863-1.881c.2-.183.4-.361.612-.531a2.857,2.857,0,0,1,1.805,1.8Q450.874,77.388,450.583,77.681Z" transform="translate(-412.183 -30.98)" fill="#ffe6c5"/>
              <path id="Path_1532" data-name="Path 1532" d="M491.268,76.263l-1.234-1.384.789-.87,1.249,1.344Z" transform="translate(-419.16 -30.768)" fill="#ffe6c5"/>
              <path id="Path_1533" data-name="Path 1533" d="M428.018,56.324l1.43,1.282a4.444,4.444,0,0,0-.559.645l-1.43-1.371Q427.744,56.608,428.018,56.324Z" transform="translate(-408.592 -27.781)" fill="#ffe6c5"/>
              <path id="Path_1534" data-name="Path 1534" d="M408.232,42.31l1.616,1.135q-.28.343-.592.657l-1.587-1.17Q407.96,42.63,408.232,42.31Z" transform="translate(-405.25 -25.414)" fill="#ffe6c5"/>
              <path id="Path_1535" data-name="Path 1535" d="M430.9,58.884a7.885,7.885,0,0,1,.785.726c-.522.726-.9.165-1.3-.193C430.557,59.24,430.729,59.062,430.9,58.884Z" transform="translate(-409.086 -28.213)" fill="#ffe6c5"/>
              <path id="Path_1536" data-name="Path 1536" d="M430.179,59.245q-.5-.367-1-.733a4.444,4.444,0,0,1,.559-.645l.96.845Q430.44,58.979,430.179,59.245Z" transform="translate(-408.883 -28.041)" fill="#ffe6c5"/>
              <path id="Path_1537" data-name="Path 1537" d="M467.168,96.207l-.708-1.09c.206-.2.408-.395.608-.6l.78,1.043Z" transform="translate(-415.179 -34.231)" fill="#ffe6c5"/>
              <path id="Path_1538" data-name="Path 1538" d="M427.246,56.741l-1.05-.772c.161-.154.319-.31.474-.47l1.134.688C427.623,56.374,427.436,56.559,427.246,56.741Z" transform="translate(-408.379 -27.641)" fill="#ffe6c5"/>
              <path id="Path_1539" data-name="Path 1539" d="M458.612,84.577l.81.939q-.319.284-.617.588l-.857-.948A5.635,5.635,0,0,1,458.612,84.577Z" transform="translate(-413.741 -32.552)" fill="#ffe6c5"/>
              <path id="Path_1540" data-name="Path 1540" d="M461.807,89.65q-.394-.507-.787-1.016.258-.269.531-.523l.829.969Q462.092,89.364,461.807,89.65Z" transform="translate(-414.26 -33.149)" fill="#ffe6c5"/>
              <path id="Path_1541" data-name="Path 1541" d="M498.579,86.423l-.612-1.07q.46-.378.922-.754l.592,1.066Z" transform="translate(-420.5 -32.556)" fill="#ffe6c5"/>
              <path id="Path_1542" data-name="Path 1542" d="M442.182,68.263l.939.855a7.266,7.266,0,0,1-.566.588l-.936-.873Q441.911,68.558,442.182,68.263Z" transform="translate(-410.984 -29.797)" fill="#ffe6c5"/>
              <path id="Path_1543" data-name="Path 1543" d="M460.538,86.956l.845.96q-.273.254-.531.523l-.827-.989Q460.277,87.2,460.538,86.956Z" transform="translate(-414.092 -32.954)" fill="#ffe6c5"/>
              <path id="Path_1544" data-name="Path 1544" d="M440.309,67.7c-.25-.284-.759-.758-.71-.825.559-.767.892-.1,1.264.268Q440.585,67.42,440.309,67.7Z" transform="translate(-410.642 -29.503)" fill="#ffe6c5"/>
              <path id="Path_1545" data-name="Path 1545" d="M441.008,67.268q.487.415.976.828-.271.294-.562.57l-.968-.84Q440.729,67.546,441.008,67.268Z" transform="translate(-410.787 -29.629)" fill="#ffe6c5"/>
              <path id="Path_1546" data-name="Path 1546" d="M459.848,87.239l-.87-.944q.3-.3.618-.588.384.519.765,1.038Q460.1,86.987,459.848,87.239Z" transform="translate(-413.915 -32.743)" fill="#ffe6c5"/>
            </g>
            <g id="Group_383" data-name="Group 383" transform="translate(0.727 48.488)">
              <path id="Path_1547" data-name="Path 1547" d="M81.084,58.341c4,6.234,7.684,11.383,10.755,16.872,7.827,13.988,5.208,27.576-7.017,38-8.867,7.557-19.671,10.745-30.652,13.5-9.031,2.266-18.165,4.187-26.657,8.2-9.44,4.458-17.62,10.329-22.506,20.672a159.289,159.289,0,0,1-3.742-29.51c-.157-3.305.385-6.692-.14-9.921-1.361-8.379,2.931-12.446,10.012-15.6C22,95.715,33.633,94.2,45.021,91.582a68.744,68.744,0,0,0,14.914-5.037C71.418,80.934,79.169,72.408,81.084,58.341Zm1.091,5.407C77.457,79.035,66.527,86.932,52.556,91.389a107.847,107.847,0,0,1-11.794,2.936C28.965,96.668,17.1,98.692,6.6,105.173a6.427,6.427,0,0,0-3.557,5.66C2.437,120.872,4,130.8,4.3,140.788c.086,2.784.185,5.829,1.595,8.615,3.32-3.557,5.881-7.543,9.495-9.945,11.827-7.861,25.345-11.6,39.038-14.807,13.078-3.06,25.071-7.576,34.216-18.683,6.432-7.812,7.7-20.246,1.917-29.267C87.9,72.549,84.985,68.525,82.175,63.748Z" transform="translate(-0.875 -58.341)" fill="#ffe6c5"/>
              <path id="Path_1548" data-name="Path 1548" d="M8.229,123.4c-2.384-4.721,3.859-8.271,4.485-13.455.128-1.062,3.484-2.024,5.48-2.522q12.894-3.224,25.87-6.12C54.208,99.019,63.8,95.434,72.1,89.061c3-2.3,6.309-4.484,7.355-8.668.706-2.827,3.771-2,5.721-2.74,2.036-.776,1.418,1.743,2.022,2.7a45.935,45.935,0,0,1,2.729,5.678c.939,2.081,1.731,4.1.02,6.295a4.332,4.332,0,0,0-.6,4.333c2.015,4.094-.4,6.862-2.517,9.743-7.212,9.825-17.984,13.405-29.057,16.378-10.958,2.942-21.979,5.588-32.261,10.678-3.4,1.681-5.728,4.7-9.294,6.08-3.259,1.257-6.5-.257-6.83-3.644C9.025,132.157,8.693,128.414,8.229,123.4Zm52.94-11.334c.048-5.847-4.049-10.559-9.171-10.919s-8.27,5.35-8.724,10.035c-.5,5.126,4.387,10.25,9.2,10.407C57.236,121.741,61.125,117.483,61.17,112.062Zm-35.388,3.424c-2.224.231-3.592,1.449-3.491,3.76a3.289,3.289,0,0,0,3.535,3.31,3.307,3.307,0,0,0,3.524-3.747C29.254,116.72,27.926,115.638,25.782,115.486ZM75.469,98.344c-2.654.076-4.521.486-4.35,3.2a2.944,2.944,0,0,0,3.277,2.95,3.554,3.554,0,0,0,3.729-3.662C78.219,98.724,76.943,97.968,75.469,98.344Z" transform="translate(-2.026 -61.578)" fill="#ffe6c5"/>
            </g>
            <g id="Group_384" data-name="Group 384" transform="translate(135.673 202.016)">
              <path id="Path_1549" data-name="Path 1549" d="M235.5,260.817c7.02,4.385,6.612,2.526,5.015,10.77-5.7,29.413-20.612,53.267-43.739,72.147-1.821,1.487-3.172,2.142-5.409.478-4.579-3.408-9.431-6.45-14.169-9.643l1.069-.909c3.907,2.519,7.952,4.853,11.676,7.62,2.648,1.967,4.409,1.747,6.984-.322,11.48-9.223,19.632-21.238,27.681-33.206,6.39-9.5,10.224-20.363,13-31.511,1.3-5.216,2.532-10.449-2.863-14.341Z" transform="translate(-165.599 -246.064)" fill="#ffe6c5"/>
              <path id="Path_1550" data-name="Path 1550" d="M174.841,331.572l-11.6-7.645c2.549-3.725,6.4-6.112,9.523-9.26,19.061-19.234,32.261-41.647,37.537-68.428.173-.878.471-1.733.871-3.172l5.919,4.1-1.076.972c-2.171-1.394-3.476-2.118-4.362,1.623-5.955,25.161-18.323,46.8-36.478,65.2-2.594,2.629-7.242,4.564-7.358,7.99-.141,4.135,5.5,4.886,8.092,7.7Z" transform="translate(-163.242 -243.066)" fill="#ffe6c5"/>
              <path id="Path_1551" data-name="Path 1551" d="M227.815,248l16.051,10.649q-.38.541-.76,1.083l-16.368-10.76Z" transform="translate(-173.966 -243.9)" fill="#ffe6c5"/>
              <path id="Path_1552" data-name="Path 1552" d="M200.373,294.51c-.693-1.611.77-2.451,1.391-3.492a144.332,144.332,0,0,0,13.2-28.556,8.311,8.311,0,0,1,3.315-4.274c2.914-2.2,4.887-1.469,6.819.6a7.2,7.2,0,0,0,2.639,1.42A12.493,12.493,0,0,1,234.286,274c-3.792,18.156-12.716,33.81-23.914,48.218-3.719,4.786-8.514,8.792-13.117,12.812-2.655,2.319-7.017,1.405-9.156.483-4.944-2.133-10.7-4.467-11.659-11.3-.165-1.183-.288-1.907.6-2.711,8.792-7.991,15.828-17.454,22.669-27.081.087-.123.5-.013.765-.012.465,8.172,3.986,13.213,10.169,14,3.12.4,6.149.171,7.881-3.441a9.988,9.988,0,0,0-3.33-12.53C210.224,289.083,206.078,289.665,200.373,294.51Zm-3.607,19.432c-2.3.275-3.615,1.432-3.564,3.8a3.289,3.289,0,0,0,3.409,3.421,3.387,3.387,0,0,0,3.769-3.544C200.407,315.3,198.953,314.168,196.766,313.942Zm27.3-35.493c-.878-1.655-1.006-3.834-3.433-3.607-2.2.207-3.643,1.474-3.67,3.738-.032,2.585,1.994,3.014,3.994,3.2C223.534,282.018,223.208,279.668,224.062,278.45Z" transform="translate(-165.451 -245.394)" fill="#ffe6c5"/>
            </g>
            <g id="Group_385" data-name="Group 385" transform="translate(132.318)">
              <path id="Path_1553" data-name="Path 1553" d="M254.06,41.81c-32.3-9.183-63.673-8.353-94.8,5.026,0-11.032.064-21.538-.052-32.041-.023-2.14,1.115-2.781,2.7-3.526A119.37,119.37,0,0,1,219.773.184a123.726,123.726,0,0,1,30.967,5.634c2.381.755,3.409,1.74,3.374,4.357C253.981,20.549,254.06,30.927,254.06,41.81Zm-93.043,1.172c.942.165,1.11.253,1.229.208,28.612-10.845,57.733-12.141,87.295-4.56,2.747.7,2.928-.391,2.892-2.63-.124-7.826-.265-15.66-.008-23.478.107-3.265-1.2-4.353-4.066-5.2-19.55-5.824-39.321-6.089-59.293-2.818-3.551.582-6.473,3.3-9.94,3.384-5.8.144-10.592,2.928-15.744,4.811-1.48.542-2.443,1.3-2.419,3.241C161.083,24.955,161.018,33.977,161.018,42.982Z" transform="translate(-159.206 0)" fill="#ffe6c5"/>
              <path id="Path_1554" data-name="Path 1554" d="M249.9,24.453c0,1.354.006,2.708,0,4.062-.023,5.245-2.81,7.5-7.817,6.453a142.529,142.529,0,0,0-67.8,1.813c-5.851,1.6-8.473-.289-8.757-6.386-.209-4.494-1.489-9.028,2.6-12.927,1.125-1.075,2.052-2.292,3.531-2.937,23.706-10.346,48.053-8.822,72.516-3.679,3.9.82,4.384,5.076,5.524,8.221.578,1.6.1,3.575.1,5.381ZM198.78,20.011c.089,5.563,4.048,10.414,8.57,10.5,4.751.091,8.835-4.982,8.669-10.77-.164-5.692-3.9-9.633-9.067-9.57C202.052,10.231,198.689,14.281,198.78,20.011Zm-14.713,6.842c2.246-.36,3.724-1.6,3.724-3.8a3.733,3.733,0,1,0-7.461.176C180.4,25.526,182.049,26.5,184.067,26.853ZM233.8,20.867a3.655,3.655,0,1,0-7.285.6,3.4,3.4,0,0,0,3.644,3.294C232.433,24.726,233.723,23.369,233.8,20.867Z" transform="translate(-160.213 -1.157)" fill="#ffe6c5"/>
            </g>
            <g id="Group_386" data-name="Group 386" transform="translate(341.464 316.355)">
              <path id="Path_1555" data-name="Path 1555" d="M497.909,446.714c-38.641-27.5-47.389-31.068-87.059-35.446,4.495-9.773,8.964-19.415,13.354-29.093.982-2.165,2.8-1.408,4.3-1.4,25.811.115,49.032,8.177,69.974,23.054,4.664,3.314,10.865,6.288,12.631,11.214,1.829,5.1-3.531,10.288-5.684,15.454C503.171,435.9,500.515,441.134,497.909,446.714Zm-84.121-37.689c.62.342.741.461.869.471a140.085,140.085,0,0,1,80.651,32.846c1.63,1.361,2.3,1.221,3.152-.763,2.081-4.825,4.428-9.533,6.621-14.31,1.629-3.547,4.686-7.274,4.358-10.654-.342-3.511-5.4-4.917-8.425-7.235A149.163,149.163,0,0,0,468.056,390.3c-12.443-5.227-25.717-7.328-39.224-7.689-1.326-.036-2.8-.34-3.534,1.254Q419.518,396.461,413.789,409.024Z" transform="translate(-410.85 -380.639)" fill="#ffe6c5"/>
              <path id="Path_1556" data-name="Path 1556" d="M461.749,417.269a1.9,1.9,0,0,1-2.106-.159c-9.859-4.959-20.9-5.741-31.278-8.875-3.5-1.059-5.479-4.423-4.094-7.847.844-2.088,1.669-4.185,2.537-6.262,1.864-4.462,7.286-6.614,12.132-6.42,9.529.379,18.53,2.746,27.458,5.695,12.687,4.19,23.972,11.077,34.991,18.436,3.5,2.338,5.269,9.032,3.6,12.99-1.167,2.768-2.4,5.508-3.649,8.241-2.041,4.471-5.635,5.337-9.58,2.363a152.184,152.184,0,0,0-27.054-16.168c-1.118-.525-2.633-.485-3.034-2.069,8.511.542,13.549-3.274,13.919-10.687.185-3.7-.906-6.914-4.549-8.573s-6.77-.342-9.432,2.23C456.805,404.8,456.893,410.663,461.749,417.269ZM444.665,396.5c-2.119.3-3.656,1.311-3.753,3.653a3.653,3.653,0,0,0,7.3.282C448.289,398.083,446.868,396.943,444.665,396.5Zm42.459,25.2a3.6,3.6,0,0,0,3.275-3.7,3.356,3.356,0,0,0-3.7-3.551c-2.173.015-3.249,1.338-3.31,3.375C483.328,420.031,484.39,421.456,487.124,421.692Z" transform="translate(-413.041 -381.831)" fill="#ffe6c5"/>
            </g>
            <g id="Group_387" data-name="Group 387" transform="translate(235.486 99.086)">
              <path id="Path_1557" data-name="Path 1557" d="M370.655,119.22c3.173,10.193,6.169,20.084,9.376,29.906.69,2.115-.592,2.7-1.771,3.533a117.136,117.136,0,0,1-81.129,21.292c-2.845-.291-4.45-1.147-5.315-4.243-2.5-8.954-5.475-17.778-8.479-27.343C315.394,145.289,344.1,136.981,370.655,119.22ZM285.64,144.2c2.614,8.452,5.131,16.1,7.3,23.848.826,2.955,2.242,3.9,5.274,4.225,15.7,1.666,30.8-.964,45.82-5.311a108.9,108.9,0,0,0,30.923-14.7c3.1-2.093,3.452-3.751,2.261-7.021-2.413-6.624-4.54-13.372-6.37-20.179-.817-3.038-1.805-2.659-3.887-1.376-3.707,2.286-7.515,4.413-11.341,6.5-11.663,6.346-24.489,9.505-37.078,13.263-3.531,1.055-7.438,2.114-10.967,1.638C300.394,144.113,293.285,145.886,285.64,144.2Z" transform="translate(-283.337 -119.22)" fill="#ffe6c5"/>
              <path id="Path_1558" data-name="Path 1558" d="M315,171.349c-4.183.013-8.467.624-12.561-.489-6.266-1.7-6.22-7.537-7.81-12.386-.914-2.786-.412-4.613,1.523-6.717,1.168-1.269,2.3-1.153,3.563-1.221a141.494,141.494,0,0,0,64.1-18.689c3.526-2.035,6.967-.465,8.359,3.682,1.627,4.85,3.074,9.571,1.588,14.924a5.59,5.59,0,0,1-3.03,3.874,185.661,185.661,0,0,1-34.364,14.52A54.665,54.665,0,0,1,315,171.349Zm12.418-16.615c-.094,5.66,4.146,10.939,8.974,11.171,4.178.2,7.706-3.7,7.846-8.677.156-5.6-4.182-10.939-9-11.07C330.814,146.037,327.505,149.668,327.42,154.734Zm-13.537,8.52c2.078-.085,3.411-1.058,3.412-3.242a3.306,3.306,0,0,0-3.635-3.615,3.362,3.362,0,0,0-3.459,3.826C310.338,162.313,311.741,163.331,313.883,163.254Zm45.849-14.972c-.262-2.1-1.484-3.437-3.437-3.478a3.228,3.228,0,0,0-3.6,3.571c.084,2.154,1.674,2.965,3.6,3.072C358.479,151.568,359.466,150.26,359.732,148.282Z" transform="translate(-285.17 -121.203)" fill="#ffe6c5"/>
            </g>
            <g id="Group_388" data-name="Group 388" transform="translate(0 317.708)">
              <path id="Path_1559" data-name="Path 1559" d="M90.8,419.366c-24.015-1.916-45.126-10.672-62.96-27.025h0a.919.919,0,0,0-.5-.505l-.864-.9h0c-1.948-2.289-4.053-4.466-5.8-6.9-1.86-2.591-2.763-2.23-4.234.419-4.956,8.925-10.012,17.8-15.337,26.509-1.729,2.827-1.323,4.616.578,7.057,17.807,22.868,41.778,33.477,70.093,35.676,2.386.185,3.5-.875,4.563-2.734,5.353-9.391,10.733-18.767,16.245-28.065C94.049,420.412,93.771,419.6,90.8,419.366ZM27.372,393.1l-.181.3a84.836,84.836,0,0,0,6.863,6.213,84.836,84.836,0,0,1-6.863-6.213h0Zm-1.123-.575h0l-.45-.456Zm59.658,38.245-.919,1.671q-1.051,1.708-2.1,3.414a35.761,35.761,0,0,1-4.6,8.072,11.561,11.561,0,0,1-2.657,4.569l-.556,1.154c-.583,1.9-1.857,2.38-3.795,2.239-27.75-2.032-51.047-12.693-68.4-35.028-1.344-1.73-2.171-3.257-.07-4.937q.754-1.474,1.507-2.949,1.29-2.265,2.583-4.528l.852.593c2.746-4.7,6.215-8.948,8.471-13.956,1.513-3.359,3.494-1.712,5.167-.15,5.019,4.685,8.934,10.617,15.061,14.036,15.11,8.431,30.791,15.342,48.238,17.35,1.657.191,4.789-.534,3.143,3.168l.76.686Z" transform="translate(0 -382.267)" fill="#ffe6c5"/>
              <path id="Path_1560" data-name="Path 1560" d="M75.381,455.678c-.584,1.9-1.858,2.38-3.8,2.239-27.75-2.032-51.047-12.693-68.4-35.028-1.344-1.73-2.171-3.257-.07-4.936l.81.648c-.924,1.85.695,2.75,1.541,3.844a60,60,0,0,0,17.486,15.579c3.659,2.114,6.8,5.157,10.508,7.15,11.528,6.19,23.974,9.445,36.967,10.685,1.464.14,2.993.508,4.182-.812Z" transform="translate(-0.311 -388.294)" fill="#ffe6c5"/>
              <path id="Path_1561" data-name="Path 1561" d="M98.629,446.609a35.761,35.761,0,0,1-4.6,8.072l-.8-.751,4.59-7.99Z" transform="translate(-15.745 -393.02)" fill="#ffe6c5"/>
              <path id="Path_1562" data-name="Path 1562" d="M93.491,456.3a11.562,11.562,0,0,1-2.657,4.569l-.776-.655c.942-1.519.226-3.974,2.635-4.665Z" transform="translate(-15.21 -394.644)" fill="#ffe6c5"/>
              <path id="Path_1563" data-name="Path 1563" d="M105.9,434.958l-2.684,4.6-.734-.711a11,11,0,0,1,2.657-4.57Z" transform="translate(-17.308 -391.05)" fill="#ffe6c5"/>
              <path id="Path_1564" data-name="Path 1564" d="M5.19,413.483l2.585-4.527.852.593A11.415,11.415,0,0,1,6,414.143Z" transform="translate(-0.877 -386.774)" fill="#ffe6c5"/>
              <path id="Path_1565" data-name="Path 1565" d="M101.667,442.506l-2.105,3.413-.81-.669,2.1-3.393Z" transform="translate(-16.678 -392.331)" fill="#ffe6c5"/>
              <path id="Path_1566" data-name="Path 1566" d="M3.379,417.354q.754-1.475,1.507-2.95l.805.659L4.189,418Z" transform="translate(-0.571 -387.694)" fill="#ffe6c5"/>
              <path id="Path_1567" data-name="Path 1567" d="M103.012,440.482l-.919,1.671-.811-.648,1-1.734Z" transform="translate(-17.105 -391.979)" fill="#ffe6c5"/>
              <path id="Path_1568" data-name="Path 1568" d="M90.723,461.822q-.278.577-.555,1.154l-.767-.631.546-1.179Z" transform="translate(-15.099 -395.592)" fill="#ffe6c5"/>
              <path id="Path_1569" data-name="Path 1569" d="M66.8,449.685c-5.411-2.471-11.877-3.542-18.079-5.525a81.824,81.824,0,0,1-34.733-21.815c-2.675-2.793-2.617-5.7-2.9-8.865-.321-3.616,6.5-12.229,9.914-13.4,2.34-.8,3.293.482,4.638,1.585,15.736,12.886,33.245,22,53.544,25.194,3.123.491,5.26,3.5,3.974,6.2a75.7,75.7,0,0,1-6.839,12.149C74.33,447.943,71.1,449.5,66.8,449.685ZM39.97,437.7c5.487.137,10.823-4.78,12.125-10.43,1.441-6.254-2.272-10.21-7.964-8.482-4.857,1.474-9.454,7.76-9.136,12.743C35.221,435.067,36.857,437.5,39.97,437.7Zm21.971.736c2.409-.307,3.956-1.7,4.079-4.006a2.672,2.672,0,0,0-3.091-2.984,3.861,3.861,0,0,0-3.77,3.705C58.936,437.155,60.078,438.143,61.941,438.44ZM27.362,414.463c-1.742.679-4.171.284-4.263,3.077-.066,1.986.948,3.233,2.884,3.22a3.959,3.959,0,0,0,4.2-3.785C30.5,414.655,28.4,415.149,27.362,414.463Z" transform="translate(-1.87 -385.233)" fill="#ffe6c5"/>
            </g>
            <g id="Group_389" data-name="Group 389" transform="translate(202.536 312.435)">
              <path id="Path_1570" data-name="Path 1570" d="M273.115,389.889C284.109,382.4,296.406,378.332,309.38,376c2.009-.361,2.782.529,2.943,2.34q-.186.189-.367.381c-4.476-1.233-8.7-.076-13,1.132A107.306,107.306,0,0,0,273.9,390.817Z" transform="translate(-248.661 -375.923)" fill="#ffe6c5"/>
              <path id="Path_1571" data-name="Path 1571" d="M329.41,400.365c1.442,1.851,2.735,3.5-1.17,3.94-3.074.344-6.1,1.144-9.142,1.741l.042.076c1.741-2.671,4.837-1.862,7.267-2.739,1.45-.523,3.059-.451,2.55-2.672Q329.179,400.533,329.41,400.365Z" transform="translate(-256.427 -380.051)" fill="#ffe6c5"/>
              <path id="Path_1572" data-name="Path 1572" d="M306.8,410.466l-12.317,5.805q-.263-.315-.544-.614c3.767-2.7,8.066-4.274,12.362-5.855Q306.554,410.135,306.8,410.466Z" transform="translate(-252.179 -381.645)" fill="#ffe6c5"/>
              <path id="Path_1573" data-name="Path 1573" d="M291.366,418.036q-3.891,2.467-7.783,4.933-.267-.324-.549-.63c2.227-2.237,5.087-3.479,7.8-4.958Q291.1,417.709,291.366,418.036Z" transform="translate(-250.336 -382.924)" fill="#ffe6c5"/>
              <path id="Path_1574" data-name="Path 1574" d="M278.817,426.719l-2.779,1.774q-.3-.308-.619-.606a17.809,17.809,0,0,1,6.329-4.54q.282.307.549.63Q280.559,425.35,278.817,426.719Z" transform="translate(-249.05 -383.932)" fill="#ffe6c5"/>
              <path id="Path_1575" data-name="Path 1575" d="M246.05,415.666l1.316-2.349,3.684-3.6.647.731-4.975,5.826Z" transform="translate(-244.09 -381.63)" fill="#ffe6c5"/>
              <path id="Path_1576" data-name="Path 1576" d="M321.385,380.959a12.477,12.477,0,0,1,2.807,5.332q-.187.171-.383.332a11.192,11.192,0,0,1-2.76-5.386Z" transform="translate(-256.756 -376.773)" fill="#ffe6c5"/>
              <path id="Path_1577" data-name="Path 1577" d="M256.4,404.791l3.928-3.324.787.771-3.994,3.257Z" transform="translate(-245.837 -380.237)" fill="#ffe6c5"/>
              <path id="Path_1578" data-name="Path 1578" d="M326.893,391.8a13.338,13.338,0,0,1,2.758,5.362l-.34.3a10.082,10.082,0,0,1-2.738-5.406Z" transform="translate(-257.689 -378.604)" fill="#ffe6c5"/>
              <path id="Path_1579" data-name="Path 1579" d="M252.065,409l3.6-3.534.721.7-3.674,3.561Z" transform="translate(-245.106 -380.912)" fill="#ffe6c5"/>
              <path id="Path_1580" data-name="Path 1580" d="M264.032,398.379l3.726-2.745.714.886-3.674,2.645Z" transform="translate(-247.127 -379.252)" fill="#ffe6c5"/>
              <path id="Path_1581" data-name="Path 1581" d="M314.1,408.721l-4.781,1.444q-.251-.33-.5-.664c1.544-.637,3-1.56,4.768-1.477Q313.843,408.372,314.1,408.721Z" transform="translate(-254.691 -381.343)" fill="#ffe6c5"/>
              <path id="Path_1582" data-name="Path 1582" d="M268.515,395.143l3.823-2.416.786.928-3.9,2.374Z" transform="translate(-247.884 -378.761)" fill="#ffe6c5"/>
              <path id="Path_1583" data-name="Path 1583" d="M261.122,401.04l2.419-2.1.765.786-2.4,2.088Z" transform="translate(-246.636 -379.81)" fill="#ffe6c5"/>
              <path id="Path_1584" data-name="Path 1584" d="M318.331,407.1c-.721,1.327-2.236.781-3.265,1.381q-.254-.348-.511-.7c1.19-.72,2.308-1.892,3.818-.609Z" transform="translate(-255.66 -381.104)" fill="#ffe6c5"/>
              <path id="Path_1585" data-name="Path 1585" d="M330.207,398.248q.51.881,1.021,1.76c-.153.111-.3.227-.452.346-.9-.3-.89-1.063-.909-1.809Z" transform="translate(-258.246 -379.693)" fill="#ffe6c5"/>
              <path id="Path_1586" data-name="Path 1586" d="M325.848,389.577c.758.4.787,1.131.857,1.846l-.319.253c-.9-.3-.869-1.065-.919-1.8Q325.656,389.726,325.848,389.577Z" transform="translate(-257.502 -378.229)" fill="#ffe6c5"/>
              <path id="Path_1587" data-name="Path 1587" d="M324.752,387.374c.752.388.785,1.133.91,1.832q-.191.148-.381.3c-.9-.3-.875-1.065-.913-1.8Q324.565,387.544,324.752,387.374Z" transform="translate(-257.317 -377.857)" fill="#ffe6c5"/>
              <path id="Path_1588" data-name="Path 1588" d="M320.215,378.833c.889.28.926,1.026.965,1.768l-.335.276c-.829-.256-.829-1.009-1-1.661Q320.03,379.022,320.215,378.833Z" transform="translate(-256.553 -376.414)" fill="#ffe6c5"/>
              <path id="Path_1589" data-name="Path 1589" d="M294.229,417.461l-1.279.485q-.269-.327-.536-.656l1.271-.443Q293.967,417.145,294.229,417.461Z" transform="translate(-251.92 -382.834)" fill="#ffe6c5"/>
              <path id="Path_1590" data-name="Path 1590" d="M260.143,443.548l-2.557,3.043a5.25,5.25,0,0,1-1.856-3.311c.144-.127.289-.253.436-.375,1.072,1.717,2.138.887,3.2-.009Z" transform="translate(-245.725 -387.234)" fill="#ffe6c5"/>
              <path id="Path_1591" data-name="Path 1591" d="M244.833,421.541c-2.236-2-.764-3.341.819-4.667l.671.611q-.458,1.762-.914,3.524Z" transform="translate(-243.692 -382.839)" fill="#ffe6c5"/>
              <path id="Path_1592" data-name="Path 1592" d="M246.91,425.963a5.223,5.223,0,0,1-1.845-3.582l.575-.532c1.72,1,1.645,2.527,1.217,4.157Z" transform="translate(-243.924 -383.679)" fill="#ffe6c5"/>
              <path id="Path_1593" data-name="Path 1593" d="M251.939,436.111q-.908-1.764-1.814-3.527c.131-.133.266-.262.4-.388a4.808,4.808,0,0,1,1.861,3.575C252.242,435.888,252.091,436,251.939,436.111Z" transform="translate(-244.778 -385.427)" fill="#ffe6c5"/>
              <path id="Path_1594" data-name="Path 1594" d="M248.617,429.818c-.571-.952-1.435-1.773-1.343-3.019l-.053.042c1.864.007,1.721,1.44,1.888,2.653Q248.869,429.664,248.617,429.818Z" transform="translate(-244.288 -384.515)" fill="#ffe6c5"/>
              <path id="Path_1595" data-name="Path 1595" d="M264.643,439.083l-.608,1.205-1.156.662-.659-.677L264,438.441Z" transform="translate(-246.821 -386.481)" fill="#ffe6c5"/>
              <path id="Path_1596" data-name="Path 1596" d="M253.291,438.595l-.982-1.758c.151-.109.3-.223.449-.339.893.293.913,1.041.929,1.789Q253.491,438.444,253.291,438.595Z" transform="translate(-245.147 -386.153)" fill="#ffe6c5"/>
              <path id="Path_1597" data-name="Path 1597" d="M254.413,440.761q-.46-.9-.922-1.8.2-.15.4-.306c.862.286.885,1.037.971,1.753Q254.637,440.584,254.413,440.761Z" transform="translate(-245.347 -386.517)" fill="#ffe6c5"/>
              <path id="Path_1598" data-name="Path 1598" d="M255.54,442.919q-.469-.9-.939-1.8c.149-.116.3-.235.443-.355.813.332.824,1.084.933,1.784C255.829,442.667,255.684,442.792,255.54,442.919Z" transform="translate(-245.534 -386.873)" fill="#ffe6c5"/>
              <path id="Path_1599" data-name="Path 1599" d="M249.919,432.22q-.506-.93-1.014-1.856c.165-.1.328-.209.489-.322.932.274.95,1.021.928,1.79C250.185,431.959,250.05,432.087,249.919,432.22Z" transform="translate(-244.572 -385.063)" fill="#ffe6c5"/>
              <path id="Path_1600" data-name="Path 1600" d="M261.7,442.427q-.408.464-.814.928l-.774-.652.861-.952Z" transform="translate(-246.465 -387.04)" fill="#ffe6c5"/>
              <path id="Path_1601" data-name="Path 1601" d="M262.7,441.321l-.826.918-.726-.676.893-.92Z" transform="translate(-246.639 -386.853)" fill="#ffe6c5"/>
              <path id="Path_1602" data-name="Path 1602" d="M268.933,434.905l-2.837,2.561-.641-.644a6.481,6.481,0,0,1,2.842-2.586Z" transform="translate(-247.367 -385.771)" fill="#ffe6c5"/>
              <path id="Path_1603" data-name="Path 1603" d="M271.825,432.215l-2.315,2.23-.637-.669,2.347-2.263Z" transform="translate(-247.945 -385.311)" fill="#ffe6c5"/>
              <path id="Path_1604" data-name="Path 1604" d="M275.605,429.415l-.794,1.04-1.333.47q-.312-.312-.623-.624l2.13-1.492Q275.3,429.107,275.605,429.415Z" transform="translate(-248.617 -384.854)" fill="#ffe6c5"/>
              <path id="Path_1605" data-name="Path 1605" d="M265.911,437.991,265,438.9l-.644-.641.91-.909Z" transform="translate(-247.182 -386.296)" fill="#ffe6c5"/>
              <path id="Path_1606" data-name="Path 1606" d="M273.283,431.228l-.981.834-.6-.7.962-.755Q272.971,430.917,273.283,431.228Z" transform="translate(-248.422 -385.158)" fill="#ffe6c5"/>
              <path id="Path_1607" data-name="Path 1607" d="M283.675,409.122c2.122-3.591,2.74-6.6,1.828-9.636-1.144-3.807-4.8-4.481-7.926-5.3a4.091,4.091,0,0,0-4.757,2.567,8.822,8.822,0,0,0,1.366,9.326c1.986,2.5,4.675,3.529,9.2,3.058-9.067,5.694-16.853,10.711-23.513,17.3-1.055,1.045-3.815.067-5.1-1.868-4.672-7.02-5.774-11.112,1.428-18.231,12.51-12.366,27.778-19.259,44.372-23.9,1.986-.555,2.968.609,4.4,1.367,4.317,2.279,5.138,6.846,6.975,10.628.576,1.186.133,4.161-2.206,4.73C300.967,401.3,292.682,404.706,283.675,409.122ZM267,411.545a2.776,2.776,0,0,0-2.749-2.857,2.949,2.949,0,1,0,.11,5.888A2.793,2.793,0,0,0,267,411.545Zm31.138-17.165c-.2-1.541-.922-2.889-2.671-2.935a3.21,3.21,0,0,0-3.054,2.886c-.327,1.722,1.082,2.752,2.717,2.851C296.878,397.289,297.775,396.084,298.135,394.38Z" transform="translate(-244.931 -376.999)" fill="#ffe6c5"/>
            </g>
          </g>
        </g>
        <g id="Group_401" data-name="Group 401" transform="translate(491.956 6.082)">
          <g id="Group_400" data-name="Group 400">
            <g id="Group_392" data-name="Group 392" transform="translate(16.6 283.393)">
              <path id="Path_1608" data-name="Path 1608" d="M647.7,372.445c-2.684-2.708-4.151-6.51-7.64-8.495-.814,2.514-.847,2.538.588,4.461a179.857,179.857,0,0,0,16.31,19.258c.607.613,1.714,1.124.981,2.127s-1.5.052-2.3-.3c-4.34-1.919-8.83-1.246-11.026,1.686-2.635,3.516-1.59,6.75.951,9.81.366.44.775.909.327,1.687-1.243.535-1.749-.678-2.364-1.307a138.7,138.7,0,0,1-21.812-29.155A7.666,7.666,0,0,1,624.149,362c6.115-4.064,4-4.672,14.235-.183.18-4.206-3.387-6.619-4.442-10.086l.973-.781q6.741,10.431,13.483,20.861Zm-14.905,4.19c.274,2.6,2.026,3.876,4.4,4.194a2.306,2.306,0,0,0,2.862-2.567c-.154-2.476-1.958-3.6-4.121-4.008C634.262,373.937,633.08,374.752,632.791,376.634Z" transform="translate(-613.382 -348.745)" fill="#ffe6c5"/>
              <path id="Path_1609" data-name="Path 1609" d="M649.95,412.219c2.766-1.748,3.895-.462,5.247-.049,3.475,1.063,6.74.716,9.206-1.845,2.119-2.2,3.318-5.031.875-7.976-.472-.569-.4-.966.133-1.47.859-.81,1.169-.136,1.719.415a224.911,224.911,0,0,0,28.061,23.3c3.371,2.434,2.055,7.513-2.639,10.024-5.465,2.924-10.643,3.642-16.157-.874-7.553-6.189-15.341-12.088-22.559-18.687A41.61,41.61,0,0,0,649.95,412.219Zm22.08,8.04a4.279,4.279,0,0,0,4.262,3.7c1.7.124,3.128-.7,2.857-2.536a4.443,4.443,0,0,0-4.3-3.848C673.1,417.411,672.063,418.322,672.03,420.26Z" transform="translate(-618.323 -357.114)" fill="#ffe6c5"/>
              <path id="Path_1610" data-name="Path 1610" d="M663.743,431.438c5.932,4.3,11.833,8.649,17.806,12.893,3.813,2.709,7.188,3.687,11.622,0,4.3-3.575,8.28-7.828,13.592-10.153.111-.049-.09-.814-.145-1.244q.272-.32.563-.623c2.059.81,3.812,1.463.816,3.646-5.6,4.08-11.074,8.334-16.479,12.669-1.962,1.574-3.459,1.56-5.579.222a189.51,189.51,0,0,1-23.071-16.615Z" transform="translate(-620.504 -362.338)" fill="#ffe6c5"/>
              <path id="Path_1611" data-name="Path 1611" d="M614.812,370.859c-4.161-6.71-4.162-6.712,1.912-11.38,4.392-3.374,8.865-6.649,13.152-10.151,2.113-1.727,3.042-1.252,3.555,1.175l-.973.781c-3.568-1.144-4.486,2.653-6.511,4-3.275,2.181-6.2,5.079-9.761,6.914-4.922,2.536-1.352,5.268-.458,7.975Z" transform="translate(-611.896 -348.297)" fill="#ffe6c5"/>
              <path id="Path_1612" data-name="Path 1612" d="M640.142,408.264l11.478,12.007-.794.843A88.741,88.741,0,0,1,639.3,409.1Z" transform="translate(-616.524 -358.424)" fill="#ffe6c5"/>
              <path id="Path_1613" data-name="Path 1613" d="M697.561,419.489l8.868,6.493a6.626,6.626,0,0,0-.638.632c-3.013-2.073-6.2-3.912-8.7-6.656C697.242,419.8,697.4,419.642,697.561,419.489Z" transform="translate(-626.283 -360.32)" fill="#ffe6c5"/>
              <path id="Path_1614" data-name="Path 1614" d="M625.7,390.046l5.36,7.3-.8.91-5.476-7.458Z" transform="translate(-614.071 -355.348)" fill="#ffe6c5"/>
              <path id="Path_1615" data-name="Path 1615" d="M638.213,407.783a26.345,26.345,0,0,1-5.342-6.416l.788-.871,5.4,6.456Z" transform="translate(-615.438 -357.112)" fill="#ffe6c5"/>
              <path id="Path_1616" data-name="Path 1616" d="M653.962,422.711l4.879,4.254-.876.815-4.8-4.226Z" transform="translate(-618.866 -360.864)" fill="#ffe6c5"/>
              <path id="Path_1617" data-name="Path 1617" d="M671.023,396.794c-2.36-1.592-4.084-3.818-5.916-5.936a5.865,5.865,0,0,0,.664-.578l5.805,5.9Q671.286,396.476,671.023,396.794Z" transform="translate(-620.882 -355.387)" fill="#ffe6c5"/>
              <path id="Path_1618" data-name="Path 1618" d="M619.057,381.611A21.361,21.361,0,0,1,615.4,375.3l.914-.685q1.809,3.132,3.615,6.265Z" transform="translate(-612.488 -352.742)" fill="#ffe6c5"/>
              <path id="Path_1619" data-name="Path 1619" d="M708.2,427.3l4.944,3.144q-.313.317-.593.657l-4.99-3.17A6.626,6.626,0,0,1,708.2,427.3Z" transform="translate(-628.052 -361.639)" fill="#ffe6c5"/>
              <path id="Path_1620" data-name="Path 1620" d="M679.781,405.5l-3.182-3.179a6.12,6.12,0,0,0,.622-.56l3.126,3.151A7.145,7.145,0,0,0,679.781,405.5Z" transform="translate(-622.823 -357.326)" fill="#ffe6c5"/>
              <path id="Path_1621" data-name="Path 1621" d="M659.815,427.83l3.265,3-.875.8-3.265-2.983Z" transform="translate(-619.841 -361.729)" fill="#ffe6c5"/>
              <path id="Path_1622" data-name="Path 1622" d="M621.535,385.651l-1.736-2.767.877-.726q.888,1.386,1.774,2.773Z" transform="translate(-613.231 -354.015)" fill="#ffe6c5"/>
              <path id="Path_1623" data-name="Path 1623" d="M623.7,388.965l-1.81-2.75.914-.72q.9,1.355,1.8,2.713Z" transform="translate(-613.583 -354.579)" fill="#ffe6c5"/>
              <path id="Path_1624" data-name="Path 1624" d="M659.2,382.694l2.118,2.406q-.285.287-.573.57-1.116-1.173-2.231-2.347Z" transform="translate(-619.769 -354.106)" fill="#ffe6c5"/>
              <path id="Path_1625" data-name="Path 1625" d="M655.295,379.15q-1.056-1.234-2.113-2.466l.7-.632,2.089,2.453Z" transform="translate(-618.868 -352.984)" fill="#ffe6c5"/>
              <path id="Path_1626" data-name="Path 1626" d="M658.2,382.921q-.77-1-1.538-2.009.3-.3.608-.6l1.617,1.978Z" transform="translate(-619.456 -353.704)" fill="#ffe6c5"/>
              <path id="Path_1627" data-name="Path 1627" d="M676.227,401.964a2.923,2.923,0,0,1-1.83-1.789q.315-.257.613-.533.92.881,1.839,1.763A6.3,6.3,0,0,1,676.227,401.964Z" transform="translate(-622.451 -356.968)" fill="#ffe6c5"/>
              <path id="Path_1628" data-name="Path 1628" d="M672.779,397.382q.931.941,1.863,1.881-.3.274-.612.531a2.861,2.861,0,0,1-1.805-1.8Q672.488,397.676,672.779,397.382Z" transform="translate(-622.084 -356.587)" fill="#ffe6c5"/>
              <path id="Path_1629" data-name="Path 1629" d="M632.172,398.832l1.233,1.384-.788.87-1.25-1.345Z" transform="translate(-615.184 -356.831)" fill="#ffe6c5"/>
              <path id="Path_1630" data-name="Path 1630" d="M695.43,418.837,694,417.555a4.357,4.357,0,0,0,.559-.646l1.43,1.371Q695.7,418.553,695.43,418.837Z" transform="translate(-625.762 -359.884)" fill="#ffe6c5"/>
              <path id="Path_1631" data-name="Path 1631" d="M715.18,432.879l-1.617-1.136q.281-.342.593-.657l1.586,1.171Q715.452,432.558,715.18,432.879Z" transform="translate(-629.066 -362.278)" fill="#ffe6c5"/>
              <path id="Path_1632" data-name="Path 1632" d="M692.686,416.45a7.758,7.758,0,0,1-.784-.726c.521-.726.9-.165,1.3.193Q692.945,416.181,692.686,416.45Z" transform="translate(-625.407 -359.625)" fill="#ffe6c5"/>
              <path id="Path_1633" data-name="Path 1633" d="M693.365,416.028l1,.733a4.393,4.393,0,0,1-.559.645l-.96-.845Q693.1,416.293,693.365,416.028Z" transform="translate(-625.567 -359.736)" fill="#ffe6c5"/>
              <path id="Path_1634" data-name="Path 1634" d="M656.4,379l.708,1.09q-.308.294-.608.6l-.78-1.043Z" transform="translate(-619.298 -353.483)" fill="#ffe6c5"/>
              <path id="Path_1635" data-name="Path 1635" d="M696.28,418.559l1.05.773c-.161.153-.319.31-.474.47q-.567-.344-1.134-.687Q695.995,418.832,696.28,418.559Z" transform="translate(-626.053 -360.163)" fill="#ffe6c5"/>
              <path id="Path_1636" data-name="Path 1636" d="M664.942,390.666l-.81-.94q.319-.284.618-.588l.857.949A5.865,5.865,0,0,1,664.942,390.666Z" transform="translate(-620.718 -355.194)" fill="#ffe6c5"/>
              <path id="Path_1637" data-name="Path 1637" d="M661.771,385.589l.787,1.017q-.259.269-.532.523l-.829-.97Q661.485,385.876,661.771,385.589Z" transform="translate(-620.222 -354.595)" fill="#ffe6c5"/>
              <path id="Path_1638" data-name="Path 1638" d="M624.967,388.759l.612,1.07-.921.754-.592-1.066Z" transform="translate(-613.951 -355.13)" fill="#ffe6c5"/>
              <path id="Path_1639" data-name="Path 1639" d="M681.366,407q-.469-.429-.939-.855a7.145,7.145,0,0,1,.566-.588l.936.873Q681.638,406.7,681.366,407Z" transform="translate(-623.47 -357.966)" fill="#ffe6c5"/>
              <path id="Path_1640" data-name="Path 1640" d="M663.039,388.3l-.845-.96q.273-.254.532-.523l.827.988C663.384,387.969,663.213,388.134,663.039,388.3Z" transform="translate(-620.39 -354.802)" fill="#ffe6c5"/>
              <path id="Path_1641" data-name="Path 1641" d="M683.287,407.613c.249.285.758.758.709.825-.559.768-.891.1-1.264-.268Q683.01,407.893,683.287,407.613Z" transform="translate(-623.859 -358.314)" fill="#ffe6c5"/>
              <path id="Path_1642" data-name="Path 1642" d="M682.534,408l-.976-.828q.271-.293.562-.569l.969.839Q682.812,407.723,682.534,408Z" transform="translate(-623.661 -358.144)" fill="#ffe6c5"/>
              <path id="Path_1643" data-name="Path 1643" d="M663.725,388l.869.944q-.3.3-.618.588l-.765-1.037C663.385,388.335,663.556,388.17,663.725,388Z" transform="translate(-620.562 -355.002)" fill="#ffe6c5"/>
            </g>
            <g id="Group_393" data-name="Group 393" transform="translate(345.96 243.43)">
              <path id="Path_1644" data-name="Path 1644" d="M1023.383,397.453c-4-6.234-7.683-11.383-10.755-16.873-7.827-13.987-5.207-27.576,7.017-38,8.867-7.558,19.672-10.745,30.652-13.5,9.031-2.266,18.165-4.188,26.658-8.2,9.439-4.457,17.619-10.328,22.506-20.671a159.411,159.411,0,0,1,3.742,29.51c.156,3.3-.385,6.692.139,9.92,1.361,8.38-2.931,12.447-10.012,15.6-10.866,4.837-22.494,6.354-33.884,8.97a68.8,68.8,0,0,0-14.914,5.037C1033.049,374.86,1025.3,383.386,1023.383,397.453Zm-1.091-5.408c4.718-15.286,15.647-23.183,29.619-27.64a108.093,108.093,0,0,1,11.794-2.937c11.8-2.341,23.667-4.366,34.162-10.846a6.43,6.43,0,0,0,3.558-5.66c.605-10.039-.953-19.968-1.259-29.955-.085-2.785-.184-5.829-1.595-8.614-3.319,3.557-5.881,7.543-9.495,9.945-11.827,7.86-25.344,11.6-39.038,14.806-13.077,3.061-25.071,7.576-34.216,18.684-6.432,7.813-7.7,20.246-1.917,29.266C1016.567,383.245,1019.482,387.269,1022.291,392.045Z" transform="translate(-1008.184 -300.213)" fill="#ffe6c5"/>
              <path id="Path_1645" data-name="Path 1645" d="M1098.705,339.462c2.383,4.721-3.86,8.271-4.486,13.455-.128,1.062-3.484,2.024-5.479,2.522q-12.894,3.224-25.87,6.12c-10.146,2.281-19.735,5.865-28.036,12.238-3,2.3-6.309,4.483-7.354,8.668-.707,2.827-3.772,2-5.721,2.74-2.037.776-1.418-1.743-2.023-2.7a45.986,45.986,0,0,1-2.729-5.678c-.938-2.082-1.73-4.1-.02-6.295a4.332,4.332,0,0,0,.6-4.333c-2.016-4.094.4-6.862,2.517-9.743,7.213-9.825,17.984-13.406,29.057-16.379,10.958-2.941,21.98-5.588,32.261-10.677,3.4-1.681,5.728-4.7,9.294-6.08,3.258-1.257,6.5.257,6.829,3.644C1097.909,330.7,1098.241,334.445,1098.705,339.462ZM1045.764,350.8c-.048,5.847,4.049,10.559,9.171,10.919s8.27-5.351,8.725-10.036c.5-5.126-4.387-10.25-9.2-10.406C1049.7,341.118,1045.809,345.375,1045.764,350.8Zm35.388-3.424c2.225-.231,3.593-1.449,3.491-3.76a3.536,3.536,0,0,0-7.058.437C1077.68,346.138,1079.009,347.22,1081.152,347.372Zm-49.687,17.142c2.655-.076,4.521-.485,4.35-3.2a2.943,2.943,0,0,0-3.276-2.95,3.554,3.554,0,0,0-3.73,3.662C1028.714,364.135,1029.991,364.889,1031.465,364.514Z" transform="translate(-1009.5 -304.041)" fill="#ffe6c5"/>
            </g>
            <g id="Group_394" data-name="Group 394" transform="translate(230.534 88.012)">
              <path id="Path_1646" data-name="Path 1646" d="M875.289,197.59c-7.02-4.384-6.612-2.526-5.015-10.77,5.7-29.414,20.613-53.268,43.739-72.147,1.822-1.488,3.172-2.143,5.41-.478,4.579,3.408,9.43,6.45,14.169,9.643l-1.07.91c-3.907-2.519-7.951-4.854-11.675-7.62-2.649-1.968-4.41-1.747-6.984.321-11.48,9.223-19.633,21.239-27.682,33.207-6.391,9.5-10.224,20.363-13,31.511-1.3,5.216-2.532,10.448,2.864,14.341Z" transform="translate(-869.302 -113.214)" fill="#ffe6c5"/>
              <path id="Path_1647" data-name="Path 1647" d="M938.071,126l11.6,7.646c-2.55,3.725-6.4,6.111-9.524,9.26-19.06,19.235-32.261,41.647-37.536,68.427-.174.879-.472,1.734-.871,3.172l-5.919-4.1,1.076-.973c2.172,1.395,3.476,2.119,4.362-1.623,5.955-25.16,18.323-46.8,36.478-65.2,2.595-2.629,7.242-4.565,7.359-7.99.14-4.135-5.5-4.887-8.093-7.7Z" transform="translate(-873.78 -115.373)" fill="#ffe6c5"/>
              <path id="Path_1648" data-name="Path 1648" d="M892.558,225.165l-16.052-10.65.76-1.082,16.367,10.759Z" transform="translate(-870.518 -130.14)" fill="#ffe6c5"/>
              <path id="Path_1649" data-name="Path 1649" d="M911.648,164.859c.692,1.611-.771,2.45-1.392,3.492a144.338,144.338,0,0,0-13.2,28.556,8.3,8.3,0,0,1-3.315,4.274c-2.913,2.2-4.887,1.469-6.819-.6a7.2,7.2,0,0,0-2.639-1.42,12.493,12.493,0,0,1-6.543-13.789c3.792-18.157,12.715-33.81,23.914-48.219,3.719-4.785,8.513-8.792,13.116-12.812,2.656-2.318,7.017-1.405,9.156-.482,4.944,2.133,10.7,4.467,11.659,11.3.165,1.183.288,1.907-.6,2.711-8.792,7.991-15.828,17.453-22.669,27.081-.087.122-.5.012-.765.012-.465-8.172-3.985-13.214-10.169-14-3.119-.4-6.149-.172-7.881,3.44a9.987,9.987,0,0,0,3.33,12.531C901.8,170.286,905.942,169.7,911.648,164.859Zm3.606-19.433c2.3-.274,3.616-1.431,3.564-3.8a3.288,3.288,0,0,0-3.409-3.42,3.386,3.386,0,0,0-3.768,3.544C911.613,144.072,913.067,145.2,915.254,145.426Zm-27.3,35.494c.879,1.655,1.006,3.834,3.432,3.606,2.2-.206,3.643-1.474,3.671-3.738.031-2.585-1.995-3.014-3.994-3.2C888.486,177.352,888.812,179.7,887.958,180.92Z" transform="translate(-870.68 -114.846)" fill="#ffe6c5"/>
            </g>
            <g id="Group_395" data-name="Group 395" transform="translate(214.867 342.321)">
              <path id="Path_1650" data-name="Path 1650" d="M850.508,424.226c32.3,9.182,63.672,8.353,94.8-5.027,0,11.033-.063,21.538.052,32.042.024,2.14-1.115,2.78-2.7,3.526a119.37,119.37,0,0,1-57.863,11.085,123.74,123.74,0,0,1-30.967-5.634c-2.381-.755-3.408-1.74-3.374-4.358C850.587,445.486,850.508,435.108,850.508,424.226Zm93.043-1.172c-.943-.165-1.111-.253-1.23-.208-28.611,10.844-57.733,12.14-87.294,4.56-2.747-.7-2.928.391-2.892,2.63.125,7.826.265,15.66.008,23.478-.106,3.265,1.2,4.352,4.066,5.2,19.55,5.823,39.321,6.089,59.293,2.818,3.552-.582,6.474-3.3,9.941-3.383,5.8-.145,10.591-2.928,15.743-4.812,1.48-.541,2.444-1.3,2.419-3.241C943.484,441.081,943.55,432.059,943.55,423.054Z" transform="translate(-850.451 -419.199)" fill="#ffe6c5"/>
              <path id="Path_1651" data-name="Path 1651" d="M856.722,444.909c0-1.355,0-2.709,0-4.062.024-5.244,2.81-7.5,7.818-6.453a142.53,142.53,0,0,0,67.8-1.812c5.85-1.6,8.472.288,8.756,6.386.209,4.494,1.489,9.028-2.6,12.927-1.125,1.075-2.052,2.292-3.531,2.937-23.705,10.346-48.053,8.822-72.517,3.679-3.9-.82-4.384-5.077-5.523-8.221-.578-1.6-.1-3.575-.1-5.381Zm51.119,4.441c-.089-5.563-4.048-10.415-8.57-10.5-4.751-.091-8.835,4.983-8.669,10.77.164,5.693,3.9,9.633,9.067,9.571C904.568,459.13,907.932,455.08,907.84,449.35Zm14.713-6.842c-2.246.36-3.724,1.6-3.723,3.8a3.733,3.733,0,1,0,7.46-.176C926.216,443.836,924.571,442.866,922.553,442.509Zm-49.733,5.986a3.654,3.654,0,1,0,7.284-.6,3.4,3.4,0,0,0-3.644-3.294C874.187,444.636,872.9,445.993,872.82,448.494Z" transform="translate(-851.497 -421.368)" fill="#ffe6c5"/>
            </g>
            <g id="Group_396" data-name="Group 396" transform="translate(0 6.728)">
              <path id="Path_1652" data-name="Path 1652" d="M605.5,15.413c38.641,27.5,47.389,31.067,87.06,35.445-4.5,9.774-8.964,19.416-13.355,29.093-.982,2.166-2.8,1.408-4.3,1.4-25.811-.115-49.032-8.176-69.974-23.053-4.663-3.313-10.865-6.287-12.631-11.214-1.828-5.1,3.531-10.288,5.684-15.454C600.233,26.227,602.89,20.991,605.5,15.413ZM689.616,53.1c-.62-.342-.74-.461-.869-.471A140.087,140.087,0,0,1,608.1,19.784c-1.63-1.36-2.3-1.221-3.152.764-2.081,4.824-4.428,9.533-6.621,14.31-1.628,3.547-4.686,7.274-4.358,10.653.342,3.512,5.4,4.918,8.425,7.235a149.15,149.15,0,0,0,32.959,19.082c12.443,5.228,25.717,7.328,39.225,7.689,1.326.036,2.8.34,3.534-1.254Q683.886,65.666,689.616,53.1Z" transform="translate(-591.923 -15.413)" fill="#ffe6c5"/>
              <path id="Path_1653" data-name="Path 1653" d="M645.483,48.23a1.9,1.9,0,0,1,2.106.159c9.859,4.958,20.9,5.74,31.279,8.875,3.5,1.059,5.478,4.422,4.093,7.846-.844,2.089-1.669,4.185-2.537,6.263-1.864,4.461-7.286,6.613-12.132,6.42-9.529-.38-18.53-2.747-27.457-5.695-12.688-4.19-23.973-11.077-34.991-18.436-3.5-2.339-5.27-9.033-3.6-12.99,1.168-2.768,2.4-5.509,3.649-8.241,2.041-4.47,5.634-5.337,9.579-2.362a152.231,152.231,0,0,0,27.054,16.168c1.118.524,2.634.484,3.034,2.069-8.511-.542-13.548,3.275-13.92,10.687-.184,3.7.907,6.914,4.55,8.574s6.77.341,9.432-2.23C650.426,60.695,650.339,54.836,645.483,48.23ZM662.566,69c2.119-.3,3.656-1.311,3.753-3.653a3.653,3.653,0,0,0-7.3-.282C658.943,67.416,660.363,68.555,662.566,69Zm-42.459-25.2a3.6,3.6,0,0,0-3.276,3.7,3.357,3.357,0,0,0,3.7,3.551c2.173-.016,3.249-1.338,3.31-3.375C623.9,45.468,622.842,44.043,620.107,43.806Z" transform="translate(-593.559 -17.594)" fill="#ffe6c5"/>
            </g>
            <g id="Group_397" data-name="Group 397" transform="translate(109.722 234.64)">
              <path id="Path_1654" data-name="Path 1654" d="M733.51,345.068c-3.172-10.192-6.169-20.083-9.376-29.906-.69-2.114.592-2.7,1.771-3.532a117.136,117.136,0,0,1,81.129-21.292c2.844.291,4.449,1.147,5.314,4.242,2.5,8.955,5.475,17.778,8.479,27.343C788.771,319,760.066,327.308,733.51,345.068Zm85.015-24.978c-2.614-8.452-5.13-16.1-7.3-23.847-.827-2.955-2.242-3.9-5.275-4.225-15.7-1.665-30.8.965-45.819,5.312a108.906,108.906,0,0,0-30.924,14.7c-3.1,2.094-3.453,3.752-2.261,7.021,2.413,6.624,4.54,13.372,6.37,20.18.817,3.038,1.805,2.659,3.888,1.375,3.706-2.286,7.514-4.413,11.341-6.5,11.664-6.346,24.49-9.5,37.078-13.263,3.531-1.054,7.439-2.113,10.967-1.637C803.771,320.176,810.88,318.4,818.525,320.09Z" transform="translate(-723.941 -289.637)" fill="#ffe6c5"/>
              <path id="Path_1655" data-name="Path 1655" d="M792.555,295.96c4.183-.012,8.468-.623,12.562.489,6.266,1.7,6.22,7.538,7.811,12.386.913,2.786.412,4.614-1.523,6.718-1.167,1.269-2.3,1.153-3.563,1.221a141.479,141.479,0,0,0-64.1,18.688c-3.526,2.036-6.967.466-8.359-3.682-1.627-4.849-3.074-9.571-1.588-14.924a5.594,5.594,0,0,1,3.031-3.875c10.9-6.149,22.448-10.661,34.363-14.519A54.666,54.666,0,0,1,792.555,295.96Zm-12.418,16.615c.095-5.659-4.146-10.938-8.974-11.171-4.178-.2-7.706,3.7-7.845,8.677-.157,5.6,4.182,10.939,9,11.071C776.744,321.272,780.052,317.641,780.137,312.575Zm13.537-8.519c-2.078.084-3.41,1.058-3.412,3.242a3.305,3.305,0,0,0,3.635,3.614,3.361,3.361,0,0,0,3.459-3.826C797.22,305,795.817,303.978,793.674,304.056Zm-45.849,14.972c.262,2.1,1.484,3.437,3.438,3.477a3.227,3.227,0,0,0,3.6-3.57c-.083-2.155-1.673-2.966-3.594-3.072C749.079,315.741,748.092,317.048,747.825,319.027Z" transform="translate(-725.5 -290.674)" fill="#ffe6c5"/>
            </g>
            <g id="Group_398" data-name="Group 398" transform="translate(348.651)">
              <path id="Path_1656" data-name="Path 1656" d="M1014.07,41.669c24.016,1.916,45.127,10.672,62.959,27.025h0a.92.92,0,0,0,.5.5l.865.9h0c1.947,2.29,4.053,4.466,5.8,6.9,1.86,2.59,2.764,2.229,4.234-.419,4.955-8.925,10.012-17.8,15.338-26.509,1.729-2.827,1.322-4.616-.579-7.058-17.808-22.867-41.778-33.477-70.092-35.676-2.387-.185-3.5.875-4.564,2.735-5.353,9.391-10.733,18.767-16.245,28.065C1010.817,40.622,1011.093,41.431,1014.07,41.669Zm63.423,26.265.181-.3a84.524,84.524,0,0,0-6.863-6.213,84.361,84.361,0,0,1,6.863,6.213h0Zm1.123.575h0l.451.456Zm-59.657-38.246.918-1.671,2.1-3.413a35.751,35.751,0,0,1,4.6-8.073,11.563,11.563,0,0,1,2.656-4.569q.278-.577.556-1.154c.584-1.9,1.858-2.381,3.795-2.239,27.75,2.031,51.047,12.692,68.4,35.028,1.343,1.73,2.171,3.257.069,4.936q-.753,1.475-1.506,2.95-1.29,2.264-2.583,4.527l-.853-.593c-2.746,4.7-6.214,8.948-8.471,13.955-1.513,3.359-3.494,1.712-5.167.151-5.018-4.685-8.935-10.618-15.062-14.037-15.109-8.43-30.791-15.342-48.237-17.35-1.658-.191-4.79.534-3.144-3.167l-.76-.687Z" transform="translate(-1011.42 -7.318)" fill="#ffe6c5"/>
              <path id="Path_1657" data-name="Path 1657" d="M1033.529,11.749c.585-1.9,1.858-2.381,3.8-2.239,27.75,2.031,51.047,12.692,68.4,35.027,1.343,1.73,2.171,3.258.069,4.937l-.81-.649c.924-1.849-.695-2.75-1.54-3.843A60,60,0,0,0,1085.953,29.4c-3.659-2.114-6.8-5.158-10.507-7.151-11.528-6.19-23.974-9.445-36.968-10.684-1.463-.14-2.992-.508-4.182.811Z" transform="translate(-1015.154 -7.684)" fill="#ffe6c5"/>
              <path id="Path_1658" data-name="Path 1658" d="M1024.127,27.167a35.743,35.743,0,0,1,4.6-8.071l.8.75q-2.3,3.994-4.591,7.99Z" transform="translate(-1013.566 -9.307)" fill="#ffe6c5"/>
              <path id="Path_1659" data-name="Path 1659" d="M1029.665,18.167a11.549,11.549,0,0,1,2.656-4.569l.776.654c-.942,1.519-.226,3.974-2.634,4.666Z" transform="translate(-1014.502 -8.379)" fill="#ffe6c5"/>
              <path id="Path_1660" data-name="Path 1660" d="M1017.261,39.52l2.684-4.6.733.711a11.008,11.008,0,0,1-2.657,4.571Z" transform="translate(-1012.407 -11.98)" fill="#ffe6c5"/>
              <path id="Path_1661" data-name="Path 1661" d="M1117.965,61.015l-2.584,4.527-.853-.593a11.409,11.409,0,0,1,2.63-4.594Z" transform="translate(-1028.834 -16.275)" fill="#ffe6c5"/>
              <path id="Path_1662" data-name="Path 1662" d="M1021.594,32.221l2.105-3.413.81.669-2.1,3.393Z" transform="translate(-1013.138 -10.947)" fill="#ffe6c5"/>
              <path id="Path_1663" data-name="Path 1663" d="M1120,57.468q-.753,1.475-1.506,2.95l-.806-.659,1.5-2.94Z" transform="translate(-1029.368 -15.678)" fill="#ffe6c5"/>
              <path id="Path_1664" data-name="Path 1664" d="M1020.49,34.586q.459-.835.918-1.671l.811.649-1,1.733Z" transform="translate(-1012.952 -11.641)" fill="#ffe6c5"/>
              <path id="Path_1665" data-name="Path 1665" d="M1032.861,13.363q.278-.577.556-1.154l.766.63-.546,1.179Z" transform="translate(-1015.041 -8.144)" fill="#ffe6c5"/>
              <path id="Path_1666" data-name="Path 1666" d="M1042.334,15.737c5.41,2.471,11.877,3.543,18.078,5.526a81.824,81.824,0,0,1,34.734,21.815c2.675,2.793,2.616,5.7,2.9,8.866.32,3.616-6.5,12.229-9.914,13.4-2.34.8-3.293-.482-4.639-1.584-15.735-12.886-33.245-22-53.544-25.194-3.123-.492-5.26-3.5-3.974-6.2a75.755,75.755,0,0,1,6.839-12.149C1034.8,17.48,1038.026,15.919,1042.334,15.737Zm26.824,11.982c-5.487-.137-10.823,4.78-12.125,10.43-1.441,6.255,2.272,10.21,7.964,8.483,4.857-1.474,9.454-7.76,9.136-12.744C1073.908,30.355,1072.272,27.92,1069.158,27.719Zm-21.97-.736c-2.409.306-3.956,1.7-4.08,4.005a2.673,2.673,0,0,0,3.092,2.985,3.861,3.861,0,0,0,3.769-3.706C1050.193,28.267,1049.05,27.28,1047.189,26.983Zm34.578,23.977c1.743-.679,4.172-.285,4.263-3.078.066-1.985-.948-3.233-2.884-3.219a3.958,3.958,0,0,0-4.2,3.784C1078.632,50.767,1080.733,50.273,1081.767,50.96Z" transform="translate(-1013.814 -8.74)" fill="#ffe6c5"/>
            </g>
            <g id="Group_399" data-name="Group 399" transform="translate(165.155 17.365)">
              <path id="Path_1667" data-name="Path 1667" d="M842.772,82.637c-10.995,7.487-23.292,11.558-36.266,13.887-2.008.361-2.782-.529-2.943-2.34q.186-.19.367-.382c4.476,1.233,8.7.076,13-1.131a107.307,107.307,0,0,0,25.054-10.962Z" transform="translate(-792.821 -37.246)" fill="#ffe6c5"/>
              <path id="Path_1668" data-name="Path 1668" d="M792.058,74.017c-1.442-1.851-2.735-3.5,1.171-3.939,3.073-.344,6.1-1.144,9.141-1.741l-.042-.076c-1.742,2.671-4.838,1.862-7.268,2.739-1.449.523-3.059.451-2.55,2.671Q792.289,73.85,792.058,74.017Z" transform="translate(-790.638 -34.975)" fill="#ffe6c5"/>
              <path id="Path_1669" data-name="Path 1669" d="M814.435,63.771l12.317-5.805q.263.317.544.615c-3.767,2.7-8.066,4.273-12.362,5.855Q814.686,64.1,814.435,63.771Z" transform="translate(-794.657 -33.236)" fill="#ffe6c5"/>
              <path id="Path_1670" data-name="Path 1670" d="M830.794,56.382q3.891-2.468,7.783-4.934c.178.217.361.426.549.631-2.228,2.236-5.087,3.479-7.8,4.958Q831.063,56.708,830.794,56.382Z" transform="translate(-797.42 -32.135)" fill="#ffe6c5"/>
              <path id="Path_1671" data-name="Path 1671" d="M843.638,47.788l2.779-1.774q.3.309.619.606a17.817,17.817,0,0,1-6.328,4.541c-.189-.2-.372-.414-.549-.631Q841.9,49.158,843.638,47.788Z" transform="translate(-799.001 -31.218)" fill="#ffe6c5"/>
              <path id="Path_1672" data-name="Path 1672" d="M876.656,58.554q-.658,1.174-1.315,2.35l-3.683,3.6-.647-.731,4.976-5.826Z" transform="translate(-804.212 -33.232)" fill="#ffe6c5"/>
              <path id="Path_1673" data-name="Path 1673" d="M801.831,93.442a12.461,12.461,0,0,1-2.807-5.331c.125-.114.253-.224.383-.332a11.187,11.187,0,0,1,2.76,5.386Z" transform="translate(-792.054 -38.271)" fill="#ffe6c5"/>
              <path id="Path_1674" data-name="Path 1674" d="M866.5,69.943l-3.928,3.324-.787-.77,3.994-3.257Z" transform="translate(-802.654 -35.14)" fill="#ffe6c5"/>
              <path id="Path_1675" data-name="Path 1675" d="M796.335,82.605a13.334,13.334,0,0,1-2.758-5.362l.341-.3a10.094,10.094,0,0,1,2.738,5.406Z" transform="translate(-791.134 -36.442)" fill="#ffe6c5"/>
              <path id="Path_1676" data-name="Path 1676" d="M870.911,65.685q-1.8,1.767-3.6,3.534l-.721-.7,3.674-3.561Z" transform="translate(-803.465 -34.416)" fill="#ffe6c5"/>
              <path id="Path_1677" data-name="Path 1677" d="M858.919,76.456,855.194,79.2l-.715-.887,3.675-2.645Z" transform="translate(-801.42 -36.226)" fill="#ffe6c5"/>
              <path id="Path_1678" data-name="Path 1678" d="M808.683,66.4l4.781-1.444q.252.332.5.665c-1.545.637-3,1.56-4.769,1.477Z" transform="translate(-793.686 -34.416)" fill="#ffe6c5"/>
              <path id="Path_1679" data-name="Path 1679" d="M854.4,79.739l-3.823,2.416-.787-.928,3.9-2.374Z" transform="translate(-800.628 -36.763)" fill="#ffe6c5"/>
              <path id="Path_1680" data-name="Path 1680" d="M862.085,73.928l-2.419,2.1-.765-.787,2.4-2.087Z" transform="translate(-802.167 -35.802)" fill="#ffe6c5"/>
              <path id="Path_1681" data-name="Path 1681" d="M804.747,68.071c.721-1.328,2.236-.782,3.266-1.381l.51.7c-1.19.72-2.308,1.892-3.817.608Z" transform="translate(-793.014 -34.71)" fill="#ffe6c5"/>
              <path id="Path_1682" data-name="Path 1682" d="M793.37,76.876l-1.021-1.76c.152-.111.3-.226.451-.346.9.3.89,1.064.91,1.809Z" transform="translate(-790.927 -36.074)" fill="#ffe6c5"/>
              <path id="Path_1683" data-name="Path 1683" d="M797.754,85.549c-.759-.4-.787-1.13-.857-1.845l.318-.253c.9.3.87,1.066.919,1.8C798.009,85.348,797.882,85.45,797.754,85.549Z" transform="translate(-791.695 -37.54)" fill="#ffe6c5"/>
              <path id="Path_1684" data-name="Path 1684" d="M798.838,87.745c-.751-.389-.785-1.133-.909-1.833.127-.1.254-.2.38-.3.9.3.875,1.065.913,1.8C799.091,87.521,798.964,87.632,798.838,87.745Z" transform="translate(-791.869 -37.905)" fill="#ffe6c5"/>
              <path id="Path_1685" data-name="Path 1685" d="M803.367,96.3c-.889-.28-.925-1.026-.965-1.769l.335-.276c.829.257.829,1.01,1,1.662C803.613,96.051,803.491,96.178,803.367,96.3Z" transform="translate(-792.625 -39.366)" fill="#ffe6c5"/>
              <path id="Path_1686" data-name="Path 1686" d="M829.255,57.868l1.279-.484q.269.327.536.656l-1.271.443Q829.518,58.184,829.255,57.868Z" transform="translate(-797.16 -33.138)" fill="#ffe6c5"/>
              <path id="Path_1687" data-name="Path 1687" d="M862.813,31.254l2.557-3.043a5.242,5.242,0,0,1,1.856,3.311q-.214.191-.435.375c-1.073-1.717-2.138-.888-3.2.009Z" transform="translate(-802.827 -28.211)" fill="#ffe6c5"/>
              <path id="Path_1688" data-name="Path 1688" d="M878.486,53.064c2.236,2,.764,3.34-.819,4.666l-.67-.61q.456-1.763.913-3.524Z" transform="translate(-805.223 -32.408)" fill="#ffe6c5"/>
              <path id="Path_1689" data-name="Path 1689" d="M876.527,48.745a5.223,5.223,0,0,1,1.845,3.582l-.575.532c-1.72-1-1.644-2.527-1.216-4.157Z" transform="translate(-805.109 -31.672)" fill="#ffe6c5"/>
              <path id="Path_1690" data-name="Path 1690" d="M871.454,38.645q.908,1.764,1.814,3.528c-.131.132-.266.262-.4.387a4.8,4.8,0,0,1-1.86-3.575C871.152,38.869,871.3,38.756,871.454,38.645Z" transform="translate(-804.211 -29.973)" fill="#ffe6c5"/>
              <path id="Path_1691" data-name="Path 1691" d="M874.852,45.12c.571.952,1.434,1.774,1.343,3.02l.053-.043c-1.864-.006-1.721-1.439-1.887-2.652Q874.6,45.274,874.852,45.12Z" transform="translate(-804.778 -31.067)" fill="#ffe6c5"/>
              <path id="Path_1692" data-name="Path 1692" d="M858.718,35.961l.608-1.205,1.156-.662.659.677-1.779,1.83Z" transform="translate(-802.136 -29.205)" fill="#ffe6c5"/>
              <path id="Path_1693" data-name="Path 1693" d="M870.283,36.531q.49.88.981,1.758-.227.165-.448.34c-.893-.293-.914-1.041-.93-1.79Q870.083,36.681,870.283,36.531Z" transform="translate(-804.022 -29.616)" fill="#ffe6c5"/>
              <path id="Path_1694" data-name="Path 1694" d="M869.163,34.364q.46.9.922,1.8-.2.15-.4.307c-.862-.286-.884-1.037-.97-1.754Q868.94,34.539,869.163,34.364Z" transform="translate(-803.825 -29.25)" fill="#ffe6c5"/>
              <path id="Path_1695" data-name="Path 1695" d="M868.034,32.195q.469.9.939,1.8-.222.175-.443.354c-.812-.332-.824-1.083-.932-1.783Q867.819,32.385,868.034,32.195Z" transform="translate(-803.635 -28.884)" fill="#ffe6c5"/>
              <path id="Path_1696" data-name="Path 1696" d="M873.645,42.89q.506.929,1.015,1.856c-.165.1-.328.209-.489.322-.932-.274-.951-1.022-.929-1.791C873.379,43.152,873.514,43.022,873.645,42.89Z" transform="translate(-804.588 -30.69)" fill="#ffe6c5"/>
              <path id="Path_1697" data-name="Path 1697" d="M861.833,32.8l.815-.928.774.652-.862.951Z" transform="translate(-802.662 -28.829)" fill="#ffe6c5"/>
              <path id="Path_1698" data-name="Path 1698" d="M860.84,33.907l.826-.919.726.676-.893.921Z" transform="translate(-802.494 -29.018)" fill="#ffe6c5"/>
              <path id="Path_1699" data-name="Path 1699" d="M854.213,39.991l2.837-2.561.642.644a6.484,6.484,0,0,1-2.842,2.586Z" transform="translate(-801.375 -29.768)" fill="#ffe6c5"/>
              <path id="Path_1700" data-name="Path 1700" d="M851.428,42.742l2.315-2.23.636.669-2.347,2.262Z" transform="translate(-800.905 -30.288)" fill="#ffe6c5"/>
              <path id="Path_1701" data-name="Path 1701" d="M847.689,45.707q.4-.519.794-1.039l1.334-.47.622.624-2.13,1.491Q847.993,46.016,847.689,45.707Z" transform="translate(-800.273 -30.911)" fill="#ffe6c5"/>
              <path id="Path_1702" data-name="Path 1702" d="M857.627,37.246l.908-.906.643.641-.909.909Z" transform="translate(-801.951 -29.584)" fill="#ffe6c5"/>
              <path id="Path_1703" data-name="Path 1703" d="M850.249,44.029l.981-.834.6.7-.962.756Z" transform="translate(-800.705 -30.742)" fill="#ffe6c5"/>
              <path id="Path_1704" data-name="Path 1704" d="M827.753,57.374c-2.122,3.59-2.739,6.6-1.827,9.636,1.144,3.807,4.8,4.481,7.926,5.3a4.089,4.089,0,0,0,4.757-2.566,8.822,8.822,0,0,0-1.366-9.326c-1.986-2.5-4.674-3.529-9.2-3.059,9.067-5.694,16.853-10.712,23.512-17.305,1.056-1.045,3.816-.066,5.1,1.868,4.672,7.02,5.775,11.112-1.427,18.231-12.51,12.366-27.778,19.259-44.373,23.9-1.985.555-2.967-.61-4.4-1.367-4.317-2.279-5.138-6.847-6.975-10.628-.576-1.186-.133-4.161,2.206-4.731C810.461,65.2,818.746,61.79,827.753,57.374Zm16.678-2.424a2.776,2.776,0,0,0,2.75,2.858,2.949,2.949,0,1,0-.11-5.888A2.793,2.793,0,0,0,844.431,54.951ZM813.293,72.116c.2,1.542.922,2.889,2.671,2.936a3.21,3.21,0,0,0,3.054-2.886c.327-1.722-1.082-2.752-2.716-2.852C814.55,69.208,813.654,70.412,813.293,72.116Z" transform="translate(-792.093 -30.14)" fill="#ffe6c5"/>
            </g>
          </g>
        </g>
      </g>
    </g>
  </g>
</svg>
