<svg xmlns="http://www.w3.org/2000/svg" xmlns:xlink="http://www.w3.org/1999/xlink" width="1076" height="485" viewBox="0 0 1076 485">
  <defs>
    <clipPath id="clip-path">
      <rect id="Rectangle_164" data-name="Rectangle 164" width="1076" height="485" rx="50" transform="translate(102 3074)" fill="#ffd8d7"/>
    </clipPath>
  </defs>
  <g id="Clock_Shadow" data-name="Clock Shadow" transform="translate(-102 -3074)" clip-path="url(#clip-path)">
    <g id="Artwork_10" data-name="Artwork 10" transform="translate(1077.627 3180.048)">
      <path id="Path_1216" data-name="Path 1216" d="M227.678,60.058C216.309,51.248,183.913,69,178.585,72.02A55.213,55.213,0,0,0,85.239,39.873C82.961,34.248,68.562.153,54.166,0,38.476-.159-3.619,5.888.25,22.922c2.846,9.6,18.342,4.545,18.342,4.545S7.047,38.352,15.556,46.251,33.4,44.093,33.4,44.093s-6.351,9.945.555,14.916,13.215-.491,13.215-.491-2.413,9.8,5.074,10.267c6.962.435,12.187-2.289,17.6-1.046a55.245,55.245,0,0,0,103.672,35.786c4.892,2.431,7.312,7.722,12.971,11.652,6.159,4.28,10.351-4.9,10.351-4.9s1.554,8.2,10.055,8.588,9.694-11.35,9.694-11.35,1.076,13.679,12.651,12.768,9.28-16.612,9.28-16.612,9.009,13.584,17.2,7.821C269.331,100.538,240.08,69.668,227.678,60.058Z" transform="translate(-129.627 -67.288)" fill="#f9caca"/>
    </g>
  </g>
</svg>
