<svg xmlns="http://www.w3.org/2000/svg" xmlns:xlink="http://www.w3.org/1999/xlink" width="46" height="46" viewBox="0 0 46 46">
  <defs>
    <clipPath id="clip-path">
      <circle id="Ellipse_163" data-name="Ellipse 163" cx="23" cy="23" r="23" fill="#f5584c"/>
    </clipPath>
  </defs>
  <g id="Grit_Icon" data-name="Grit Icon" transform="translate(23 23)">
    <g id="Group_3152" data-name="Group 3152" transform="translate(-23 -23)">
      <circle id="Ellipse_162" data-name="Ellipse 162" cx="23" cy="23" r="23" fill="#f5584c"/>
      <g id="Group_3151" data-name="Group 3151" clip-path="url(#clip-path)">
        <g id="Group_3150" data-name="Group 3150" transform="translate(7.51 12.064)">
          <path id="Path_4381" data-name="Path 4381" d="M41.691,19.51a1.175,1.175,0,0,0-1.254-.694c-.807.032-1.618.007-2.427.009a.941.941,0,1,0,0,1.868c.809,0,1.619-.023,2.427.009a1.175,1.175,0,0,0,1.254-.694Z" transform="translate(-9.773 -13.216)" fill="#fff" stroke="#fff" stroke-width="1.173"/>
          <path id="Path_4382" data-name="Path 4382" d="M8,20.009a1.175,1.175,0,0,0,1.254.694c.807-.032,1.618-.007,2.427-.009a.941.941,0,1,0,0-1.868c-.809,0-1.619.023-2.427-.009A1.175,1.175,0,0,0,8,19.51Z" transform="translate(-8 -13.216)" fill="#fff" stroke="#fff" stroke-width="1.173"/>
          <path id="Path_4383" data-name="Path 4383" d="M41.7,14.065c-.421-.715-.733-.823-1.538-.533-.779.282-1.561.557-2.337.845a.927.927,0,0,0-.647,1.041.915.915,0,0,0,1.189.738c.924-.306,1.843-.63,2.742-1,.238-.1.4-.391.59-.593Z" transform="translate(-9.786 -12.884)" fill="#fff" stroke="#fff" stroke-width="1.173"/>
          <path id="Path_4384" data-name="Path 4384" d="M8,14.563a1.436,1.436,0,0,0,.93.745c.786.261,1.559.558,2.342.83a.89.89,0,0,0,1-.229.8.8,0,0,0,.194-.943A1.271,1.271,0,0,0,11.9,14.4c-.862-.352-1.745-.653-2.627-.957-.549-.189-.9,0-1.272.622Z" transform="translate(-8 -12.883)" fill="#fff" stroke="#fff" stroke-width="1.173"/>
          <path id="Path_4385" data-name="Path 4385" d="M41.7,24.894a1.436,1.436,0,0,0-.93-.745c-.786-.261-1.56-.556-2.342-.828a.889.889,0,0,0-1,.227.8.8,0,0,0-.194.943,1.271,1.271,0,0,0,.568.567c.862.352,1.745.653,2.627.957.548.189.9,0,1.272-.622Z" transform="translate(-9.785 -13.488)" fill="#fff" stroke="#fff" stroke-width="1.173"/>
          <path id="Path_4386" data-name="Path 4386" d="M8,25.393c.426.718.732.823,1.537.533.779-.282,1.561-.557,2.338-.845a.927.927,0,0,0,.647-1.041.914.914,0,0,0-1.188-.737c-.924.308-1.844.629-2.743,1-.238.1-.4.391-.59.593Z" transform="translate(-8 -13.488)" fill="#fff" stroke="#fff" stroke-width="1.173"/>
          <path id="Path_4387" data-name="Path 4387" d="M30.995,17.662c0,.576.008,1.153,0,1.729a.893.893,0,0,1-.6.868.88.88,0,0,1-.98-.2,1.007,1.007,0,0,1-.293-.791q.007-2.618,0-5.235c0-.1,0-.208,0-.312a.932.932,0,0,0-1.86-.008c-.009.1-.006.207-.006.312v5.3a.926.926,0,0,1-.567.921.879.879,0,0,1-.987-.161,1,1,0,0,1-.318-.812q.006-2.43,0-4.861v-.437c0-.692-.356-1.122-.928-1.127s-.942.428-.943,1.112q0,2.571,0,5.142c0,.094,0,.187,0,.281a.937.937,0,0,1-.925.941.926.926,0,0,1-.941-.955c-.008-1.226,0-2.451-.007-3.677a.928.928,0,0,0-1.4-.845.949.949,0,0,0-.47.888c0,1.205.008,2.41,0,3.615a.928.928,0,0,1-1.285.9.9.9,0,0,1-.579-.881c-.007-.582,0-1.163,0-1.745a.94.94,0,1,0-1.869.009c0,1.735-.03,3.471.016,5.2a8.1,8.1,0,0,0,.358,1.665c.406,1.641.825,3.278,1.225,4.921.05.206.133.257.332.256q5.578-.008,11.155,0c.226,0,.3-.086.364-.278q1.249-3.73,2.508-7.458a9.735,9.735,0,0,0,.377-1.18,2.337,2.337,0,0,0-.473-1.99c-.295-.369-.564-.759-.845-1.138Z" transform="translate(-8.491 -12.851)" fill="#fff" stroke="#fff" stroke-width="1.173"/>
          <path id="Path_4388" data-name="Path 4388" d="M29.108,32.77H17.2c-.821,0-1.16.335-1.161,1.146v2.573H29.108Z" transform="translate(-8.492 -14.07)" fill="#fff" stroke="#fff" stroke-width="1.173"/>
          <path id="Path_4389" data-name="Path 4389" d="M29.236,51.979V38.764H18.054V51.979Z" transform="translate(-8.616 -14.437)" fill="#fff" stroke="#fff" stroke-width="1.173"/>
        </g>
      </g>
    </g>
  </g>
</svg>
