<svg xmlns="http://www.w3.org/2000/svg" xmlns:xlink="http://www.w3.org/1999/xlink" width="46" height="46" viewBox="0 0 46 46">
  <defs>
    <clipPath id="clip-path">
      <circle id="Ellipse_159" data-name="Ellipse 159" cx="23" cy="23" r="23" fill="#1577fb"/>
    </clipPath>
  </defs>
  <g id="Honesty_Icon" data-name="Honesty Icon" transform="translate(14.266 14.266)">
    <g id="Group_3146" data-name="Group 3146" transform="translate(-14.266 -14.266)">
      <circle id="Ellipse_158" data-name="Ellipse 158" cx="23" cy="23" r="23" fill="#1577fb"/>
      <g id="Group_3145" data-name="Group 3145" clip-path="url(#clip-path)">
        <g id="Group_3144" data-name="Group 3144" transform="translate(4.694 11.123)">
          <path id="Path_4376" data-name="Path 4376" d="M13.449,49.93,5,41.481c.227-.21,6.081-6.847,6.32-7.087a7.989,7.989,0,0,0,2.4-5.81c.008-2.484,0-4.967,0-7.45v-.42a2.413,2.413,0,0,1,2.1,2.446q.023,2,0,4.006a1.08,1.08,0,0,0,1.937.79q4.627-4.64,9.271-9.264a1.943,1.943,0,0,1,.758-.466.942.942,0,0,1,1.062.433,1.047,1.047,0,0,1-.029,1.188,2.979,2.979,0,0,1-.309.336q-2.843,2.846-5.688,5.691A1.056,1.056,0,1,0,24.3,27.379q1.2-1.207,2.41-2.41c1.615-1.616,3.226-3.235,4.852-4.839a1.668,1.668,0,0,1,.706-.417.97.97,0,0,1,1.1.5,1.049,1.049,0,0,1-.186,1.262c-.8.811-1.6,1.611-2.406,2.414q-2.484,2.485-4.971,4.968a1.076,1.076,0,0,0-.313,1.153.991.991,0,0,0,.847.7,1.124,1.124,0,0,0,1-.4q2.853-2.861,5.712-5.717a1.147,1.147,0,0,1,1.127-.409,1.037,1.037,0,0,1,.585,1.663,3.7,3.7,0,0,1-.289.306c-1.871,1.872-3.748,3.739-5.607,5.621a1.742,1.742,0,0,0-.429.738.96.96,0,0,0,.49,1.04,1.035,1.035,0,0,0,1.213-.1c.213-.181.4-.39.6-.589q1.431-1.428,2.859-2.856a1.065,1.065,0,0,1,1.585-.083,1.082,1.082,0,0,1-.1,1.568q-4.791,4.8-9.589,9.592a3.217,3.217,0,0,1-2.342.953c-.68,0-1.359.009-2.038,0a1.21,1.21,0,0,0-.939.393C19.813,42.819,13.8,49.576,13.449,49.93Z" transform="translate(-5 -12.237)" fill="#fff" stroke="#fff" stroke-width="0.582"/>
          <path id="Path_4377" data-name="Path 4377" d="M11.81,28.258c-.057-.016-.086-.015-.1-.029a19.121,19.121,0,0,1-3.3-6.421,7.955,7.955,0,0,1,8.194-9.921A7.507,7.507,0,0,1,22.9,15.742a1.209,1.209,0,0,0,2.289,0,7.818,7.818,0,0,1,8.038-3.779,8.024,8.024,0,0,1,6.58,6.461,8.856,8.856,0,0,1-.912,5.55c-.631,1.287-1.423,2.5-2.145,3.738a.792.792,0,0,1-.095.105l-.639-.409a3.323,3.323,0,0,0,1.258-2.935,3.168,3.168,0,0,0-1.85-2.57,3.14,3.14,0,0,0-.727-3.961,3.108,3.108,0,0,0-3.6-.386c-.038-.055-.088-.116-.126-.183a3.148,3.148,0,0,0-5.091-.707q-3.712,3.691-7.406,7.4c-.089.089-.182.174-.337.322,0-.593.009-1.112,0-1.632a4.575,4.575,0,0,0-1.109-3,4.408,4.408,0,0,0-3.389-1.586,1.724,1.724,0,0,0-1.824,1.8q-.007,3.953,0,7.905Z" transform="translate(-5.194 -11.849)" fill="#fff" stroke="#fff" stroke-width="0.582"/>
        </g>
      </g>
    </g>
  </g>
</svg>
