<svg xmlns="http://www.w3.org/2000/svg" xmlns:xlink="http://www.w3.org/1999/xlink" width="46" height="46" viewBox="0 0 46 46">
  <defs>
    <clipPath id="clip-path">
      <circle id="Ellipse_161" data-name="Ellipse 161" cx="23" cy="23" r="23" fill="#fd9a29"/>
    </clipPath>
  </defs>
  <g id="Humble_Go-Getters" data-name="Humble Go-Getters" transform="translate(23 23)">
    <g id="Group_3149" data-name="Group 3149" transform="translate(-23 -23)">
      <circle id="Ellipse_160" data-name="Ellipse 160" cx="23" cy="23" r="23" fill="#fd9a29"/>
      <g id="Group_3148" data-name="Group 3148" clip-path="url(#clip-path)">
        <g id="Group_3147" data-name="Group 3147" transform="translate(8.476 4.515)">
          <path id="Path_4378" data-name="Path 4378" d="M34.263,18.282,36.777,16a14.967,14.967,0,1,1-3.515-3.9c-.813.736-1.608,1.474-2.434,2.175-.079.068-.374-.054-.529-.151a11.623,11.623,0,1,0,3.964,4.166Z" transform="translate(-9.029 -5.062)" fill="#fff"/>
          <path id="Path_4379" data-name="Path 4379" d="M32.113,21.077a8.256,8.256,0,0,1-2.89,10.237,8.338,8.338,0,0,1-10.7-12.671A8.206,8.206,0,0,1,28.566,17.2c-.928.846-1.838,1.693-2.775,2.51a.844.844,0,0,1-.569.081,4.683,4.683,0,1,0,3.905,5.421c.056-.389.029-.789.067-1.18a.734.734,0,0,1,.164-.441C30.255,22.755,31.168,21.936,32.113,21.077Z" transform="translate(-9.467 -5.5)" fill="#fff"/>
          <path id="Path_4380" data-name="Path 4380" d="M39.771,4.809c0,1.443.006,2.726,0,4.01,0,.288.014.488.361.59a.846.846,0,0,1,.514.472c.115.4.351.481.7.479,1.208-.007,2.416,0,3.789,0-.223.25-.331.387-.456.507-.9.866-1.787,1.741-2.71,2.58a1.332,1.332,0,0,1-.788.309c-1.058.035-2.119-.014-3.176.031a1.6,1.6,0,0,0-.943.359q-5.624,5.065-11.212,10.171c-.084.076-.164.156-.253.228a.989.989,0,1,1-1.328-1.461c.943-.874,1.9-1.733,2.849-2.6,2.878-2.62,5.763-5.236,8.625-7.874a1.291,1.291,0,0,0,.359-.819c.042-1.02.008-2.042.026-3.062a.962.962,0,0,1,.183-.618C37.414,7.027,38.543,5.973,39.771,4.809Z" transform="translate(-9.939 -4.809)" fill="#fff"/>
        </g>
      </g>
    </g>
  </g>
</svg>
