<svg xmlns="http://www.w3.org/2000/svg" width="120.239" height="20.81" viewBox="0 0 120.239 20.81">
  <g id="Logo" transform="translate(60.119 10.405)">
    <g id="Group_2563" data-name="Group 2563" transform="translate(-60.119 -10.405)">
      <path id="Path_3101" data-name="Path 3101" d="M48.232,18.88l-.448-.475c.394-.145.27-.485.208-.724a3.9,3.9,0,0,1,.09-1.89c.477-2.037.951-4.076,1.528-6.086.582-2.026,1.851-3.535,4.033-3.755a94.117,94.117,0,0,1,11.817-.1v2.51c-1.9-.893-3.668-.605-5.4-.642-3.861-.081-3.635-.031-4.486,3.539a20.006,20.006,0,0,0-.917,4.366c-.006.47-.049.966.65.959.151.465.519.534.937.52a54.441,54.441,0,0,0,6.806-.187,3.478,3.478,0,0,0-.363.767c-.272,1.366-1.138,1.624-2.415,1.586-2.875-.087-5.754-.034-8.631-.012a6.536,6.536,0,0,1-2.994-.57C48.341,18.532,48.3,18.655,48.232,18.88Z" transform="translate(0 0)" fill="#fcfefc"/>
      <path id="Path_3102" data-name="Path 3102" d="M55.31,16.581c-.7.007-.656-.489-.65-.959a20.006,20.006,0,0,1,.917-4.366c.851-3.57.625-3.62,4.486-3.539,1.729.037,3.493-.251,5.4.642V5.849l.573-.079a3.546,3.546,0,0,1,.5,2.8l-.02.623c.078,1.154-.633.368-1.008.409-2.1-.619-4.232-.272-6.353-.266a.555.555,0,0,0-.611.062.5.5,0,0,0-.484.171l.05.024-.044-.032-.249.136-.071.043-.233.316a.816.816,0,0,0-.3.715c-.038.116-.077.232-.116.348l-.082.424a.405.405,0,0,0-.132.439l-.083.418a3.79,3.79,0,0,0-.369,1.5l-.056.216-.069.219.033.054a.754.754,0,0,0-.168.59,1.061,1.061,0,0,0-.1.169c-.009.02.03.059.047.09-.036.125-.073.249-.11.373l-.078.312C55.662,16.1,55.912,16.738,55.31,16.581Z" transform="translate(0 0)" fill="#142d4b"/>
      <path id="Path_3103" data-name="Path 3103" d="M48.232,18.88c.065-.225.109-.348.418-.195a6.536,6.536,0,0,0,2.994.57c2.877-.022,5.756-.075,8.631.012,1.277.038,2.143-.22,2.415-1.586a3.478,3.478,0,0,1,.363-.767c.229-.258.539-.227.838-.236l-.019.41-.182.291.2.108.439.009.013.48c-.32.707-.682,1.4-.947,2.127a.919.919,0,0,1-1.013.7H58.955a.2.2,0,0,0-.2,0h-2.14l-.444,0-.626,0h-.656a.2.2,0,0,0-.2,0H52.743l-1.271-.016A4.267,4.267,0,0,1,48.232,18.88Z" transform="translate(0 0)" fill="#142d4b"/>
      <path id="Path_3104" data-name="Path 3104" d="M66.033,5.77l-.573.079a94.117,94.117,0,0,0-11.817.1c-2.182.22-3.451,1.729-4.033,3.755-.577,2.01-1.051,4.049-1.528,6.086a3.9,3.9,0,0,0-.09,1.89c.062.239.186.579-.208.724-.584-.337-.342-1.306-1.137-1.481l.131-.414a1.1,1.1,0,0,0,.172.024c.348.164.194-.146.247-.261.511-2.136,1.151-4.242,1.516-6.412A12.5,12.5,0,0,1,50.048,7.1,5.7,5.7,0,0,1,54.6,5.155c3.318-.025,6.636.006,9.954-.019A1.636,1.636,0,0,1,66.033,5.77Z" transform="translate(0 0)" fill="#b3cee6"/>
      <path id="Path_3105" data-name="Path 3105" d="M63.891,16.678c-.3.009-.609-.022-.838.236a54.441,54.441,0,0,1-6.806.187c-.418.014-.786-.055-.937-.52.6.157.352-.483.607-.649.19.57.66.587,1.133.546,2.062-.176,4.191.458,6.191-.515.5-.244.356.422.637.508l.023.021C63.9,16.554,63.893,16.616,63.891,16.678Z" transform="translate(0 0)" fill="#f9fbfa"/>
      <g id="Group_2562" data-name="Group 2562" transform="translate(0 0)">
        <path id="Path_3106" data-name="Path 3106" d="M23.072.885l.216.191.227.175.064.028.153.173.024.037.333.4A11.484,11.484,0,0,1,24.1,4.547c-.778,3.386-1.609,6.763-2.544,10.109a5.707,5.707,0,0,1-5.73,4.542c-4.949.088-9.9-.006-14.85-.024A10.338,10.338,0,0,0,1.8,16.992C2.885,12.655,3.983,8.321,5.05,3.98a7.227,7.227,0,0,0,.376-2.506C5.318.61,5.645.636,6.253.638c4.2.012,8.4,0,12.595.006a18.247,18.247,0,0,1,4.03.193A.348.348,0,0,0,23.072.885ZM9.145,16.492c1.261.506,2.577.11,3.862.232a1.562,1.562,0,0,0,1.834-1.365c.85-3.436,1.719-6.866,2.577-10.3.13-.52.138-1-.522-1.181-.011-.648-.423-.856-.985-.861-1.14-.011-2.28.008-3.419-.01-.493-.008-.655.234-.767.684-.962,3.895-1.962,7.78-2.912,11.678C8.724,15.731,8.4,16.31,9.145,16.492Z" fill="#fcfefc"/>
        <path id="Path_3107" data-name="Path 3107" d="M25.047,6.848l-.1.486c-.189.164-.142.378-.128.585-.025.094-.05.188-.074.283l-.117.359c-.033.165-.065.331-.1.5-.038.12-.076.239-.113.359-.033.165-.065.331-.1.5-.192.156-.151.369-.142.574l-.075.283c-.038.12-.077.239-.115.358l-.1.5c-.191.156-.15.369-.142.574-.024.094-.048.189-.071.284-.194.154-.15.368-.143.572l-.075.284c-.039.119-.077.238-.115.357-.032.166-.064.332-.095.5-.19.155-.156.367-.147.573l-.059.214-.076.216.032.045c-.036.127-.073.254-.11.381a.109.109,0,0,0-.047.155.469.469,0,0,0-.158.486.136.136,0,0,0-.05.174c-.181.111-.185.288-.179.47l-.485.944-.19.336,0-.005-.315.41a8.417,8.417,0,0,1-2.25,1.764.587.587,0,0,0-.528.163l-.071,0-.043.056c-.2,0-.419-.046-.584.13-.176-.121-.327-.016-.482.053l-.852.05h-.652l-.207,0h-.864l-.206,0H12.377l-.866,0a.212.212,0,0,0-.207,0H9.155l-.207,0H7.228a.209.209,0,0,0-.207,0h-.65a.2.2,0,0,0-.206,0H4.882l-.653,0-.419,0-.437,0a.21.21,0,0,0-.206,0c-.558-.011-1.116-.021-1.674-.036-.233-.007-.529.055-.443-.355a.473.473,0,0,0,.237-.5q7.64,0,15.28,0a5.218,5.218,0,0,0,4.956-3.071,27.419,27.419,0,0,0,1.913-6.505c.59-2.506,1.581-4.951,1.36-7.606.294.233.3.612.467.91l.072.463a2.911,2.911,0,0,0,.028,1.3c-.172.17-.124.38-.109.584l-.1.484Z" fill="#24212c"/>
        <path id="Path_3108" data-name="Path 3108" d="M24.8,2.732c.221,2.655-.77,5.1-1.36,7.606a27.419,27.419,0,0,1-1.913,6.505,5.218,5.218,0,0,1-4.956,3.071l-15.281,0-.265.054c-.229-.1-.567.077-.7-.275L.4,19.487c.28.058.4-.173.576-.313,4.95.018,9.9.112,14.85.024a5.707,5.707,0,0,0,5.73-4.542c.935-3.346,1.766-6.723,2.544-10.109a11.539,11.539,0,0,0-.006-2.659h.281Z" fill="#093a6d"/>
        <path id="Path_3109" data-name="Path 3109" d="M.972,19.174c-.173.14-.3.371-.576.313L.219,19.7c-.2-.082-.279-.22-.172-.416,1.462-2.695,1.774-5.735,2.58-8.625.675-2.418,1.2-4.877,1.841-7.3a8.321,8.321,0,0,0,.2-2.43C4.644.307,4.85.008,5.509.009,10.6.019,15.7,0,20.791.029a5.137,5.137,0,0,1,2.1.625.7.7,0,0,0-.015.183,18.247,18.247,0,0,0-4.03-.193C14.65.635,10.452.65,6.253.638c-.608,0-.935-.028-.827.836A7.227,7.227,0,0,1,5.05,3.98C3.983,8.321,2.885,12.655,1.8,16.992A10.338,10.338,0,0,1,.972,19.174Z" fill="#b3cee6"/>
        <path id="Path_3110" data-name="Path 3110" d="M9.145,16.492c-.74-.182-.421-.761-.332-1.123.95-3.9,1.95-7.783,2.912-11.678.112-.45.274-.692.767-.684,1.139.018,2.279,0,3.419.01.562.005.974.213.985.861-.048.247.011.53-.244.705l-.43.013h-.207c-.744-.008-1.491.025-2.23-.038-.67-.058-.891.206-1.044.846-.843,3.531-1.748,7.049-2.631,10.571C9.9,16.364,9.329,16.064,9.145,16.492Z" fill="#142d4b"/>
        <path id="Path_3111" data-name="Path 3111" d="M9.145,16.492c.184-.428.76-.128.965-.518.653.567,1.434.253,2.152.276,1.3.041,1.7-.315,2.019-1.559.355-1.406.753-2.8,1.047-4.22a51.155,51.155,0,0,0,1.324-5.888c.255-.175.2-.458.244-.705.66.18.652.661.522,1.181-.858,3.434-1.727,6.864-2.577,10.3a1.562,1.562,0,0,1-1.834,1.365C11.722,16.6,10.406,17,9.145,16.492Z" fill="#b3cee6"/>
      </g>
      <path id="Path_3112" data-name="Path 3112" d="M118.332,6.2l.434.433.2.258c.014.527.306,1.013.16,1.572-.619,2.371-1.118,4.776-1.841,7.114a4.734,4.734,0,0,1-4.161,3.495,56.933,56.933,0,0,1-6.912.149c-.361,0-.717-.154-.752.4l-.6-.594c.307-.433.037-.78-.157-1.173-.575.4-.5,1.417-1.474,1.387-1.847-.056-3.7-.055-5.545-.077a13.938,13.938,0,0,0,.944-2.587c.424-1.827,1.006-3.62,1.369-5.458.665-3.359,2.15-6.555,2.027-10.07-.013-.364.155-.564.487-.548,2.143.1,4.3-.2,6.431.166-.078,1.964-1.034,3.765-1.139,5.853l.462-.523.066,1.047c.485-.666,1-1.213,1.674-1.21C112.782,5.847,115.587,5.395,118.332,6.2ZM105.85,16.89c1.191.543,2.449.141,3.67.264a1.113,1.113,0,0,0,1.3-.967c.561-2.193,1.133-4.384,1.672-6.583.109-.445.175-.966-.542-1.019-.007-.61-.285-.9-.925-.874-.853.032-1.708.017-2.562.007a1.256,1.256,0,0,0-1.379,1.059c-.55,2.235-1.112,4.468-1.656,6.7A1.191,1.191,0,0,0,105.85,16.89Z" transform="translate(0 0)" fill="#fcfefc"/>
      <path id="Path_3113" data-name="Path 3113" d="M105.458,19.619c.035-.551.391-.395.752-.4a56.933,56.933,0,0,0,6.912-.149,4.734,4.734,0,0,0,4.161-3.495c.723-2.338,1.222-4.743,1.841-7.114.146-.559-.146-1.045-.159-1.572l.145-.206a5.069,5.069,0,0,1,1.1,3.443c-.183.157-.153.365-.141.569a2.961,2.961,0,0,0-.308,1.346.758.758,0,0,0-.166.59c-.1.073-.134.158-.048.265a.75.75,0,0,0-.166.591,1.062,1.062,0,0,0-.1.169c-.009.021.03.06.047.09-.037.125-.074.249-.11.374l-.066.3c-.191.147-.154.353-.144.553l-.07.3c-.19.147-.157.353-.146.553-.088.15-.2.3-.105.485-.037.124-.075.248-.112.372a.16.16,0,0,0-.048.184c-.22.167-.18.432-.25.656l-.6,1.091-.362.429-1.779,1.312a.592.592,0,0,0-.516.158l-.075,0-.05.057-.667.109-.4.077-.212.014-1.509.031-1.267,0-.446,0h-3.21a.212.212,0,0,0-.2,0c-.8-.022-.884-.962-1.528-1.183Z" transform="translate(0 0)" fill="#142d4b"/>
      <path id="Path_3114" data-name="Path 3114" d="M105.458,19.619h0l.006.241-.165.258a.107.107,0,0,0-.058.145l-.294.473-.327.07h-1.06l-.439,0-.418,0h-1.927l-.438,0h-1.92c-.171-.207-.853.315-.637-.446a.417.417,0,0,0,.247-.446c1.873,0,3.747-.016,5.619.006.664.008,1.091-.215,1.216-.894Z" transform="translate(0 0)" fill="#24212c"/>
      <path id="Path_3115" data-name="Path 3115" d="M118.332,6.2c-2.745-.806-5.55-.354-8.329-.369-.677,0-1.189.544-1.674,1.21l-.066-1.047,0,0,.184-.237.246-.333.739-.315c2.026.012,4.056-.046,6.077.066C116.5,5.234,117.675,5.089,118.332,6.2Z" transform="translate(0 0)" fill="#b3cee6"/>
      <path id="Path_3116" data-name="Path 3116" d="M104.858,19.025c-.125.679-.552.9-1.216.894-1.872-.022-3.746-.006-5.619-.006l-.256.052-.647-.056c-.129-.487.368-.5.562-.747,1.848.022,3.7.021,5.545.077.978.03.9-.984,1.474-1.387C104.895,18.245,105.165,18.592,104.858,19.025Z" transform="translate(0 0)" fill="#093a6d"/>
      <path id="Path_3117" data-name="Path 3117" d="M108.69,5.428l-.246.333L108.26,6l0,0-.462.523c.1-2.088,1.061-3.889,1.139-5.853.371-.043.851-.317.852.408l-.056.264Q109.213,3.383,108.69,5.428Z" transform="translate(0 0)" fill="#093a6d"/>
      <path id="Path_3118" data-name="Path 3118" d="M108.69,5.428q.522-2.046,1.046-4.091c.626-.051.56.312.453.728-.261,1.014-.508,2.032-.76,3.048Z" transform="translate(0 0)" fill="#24212c"/>
      <path id="Path_3119" data-name="Path 3119" d="M105.85,16.89a1.191,1.191,0,0,1-.421-1.408c.544-2.237,1.106-4.47,1.656-6.7a1.256,1.256,0,0,1,1.379-1.059c.854.01,1.709.025,2.562-.007.64-.025.918.264.925.874-.059.242.014.534-.26.695l-.864.023h-.207c-2.165-.086-2.255-.01-2.759,2.025-.443,1.789-.911,3.573-1.367,5.359C106.248,16.655,105.942,16.431,105.85,16.89Z" transform="translate(0 0)" fill="#142d4b"/>
      <path id="Path_3120" data-name="Path 3120" d="M111.691,9.28c.274-.161.2-.453.26-.695.717.053.651.574.542,1.019-.539,2.2-1.111,4.39-1.672,6.583a1.113,1.113,0,0,1-1.3.967c-1.221-.123-2.479.279-3.67-.264.092-.459.4-.235.644-.2l2.448,0a1.061,1.061,0,0,0,1.167-.737A50.78,50.78,0,0,0,111.691,9.28Z" transform="translate(0 0)" fill="#b3cee6"/>
      <path id="Path_3121" data-name="Path 3121" d="M45.15,5.953l.4.257c.02.12.063.218.209.215l.007,0,.179.076a.242.242,0,0,1,.019.2,6.816,6.816,0,0,1-.121,1.8c-.54,2.093-1.027,4.2-1.539,6.3-.794,3.25-2.249,4.421-5.549,4.436-2.707.012-5.414.026-8.121-.011-1.62-.023-3.27.2-4.84-.421-.253-.1-.3.063-.334.248a.67.67,0,0,1-.476-.437c.243-.108.226-.322.238-.539a40.22,40.22,0,0,1,2.148-9.515,3.728,3.728,0,0,1,3.7-2.747C35.765,5.779,40.461,5.562,45.15,5.953ZM38.731,8.6c.006-.614-.273-.908-.911-.891-.891.024-1.784.046-2.672-.005a1.392,1.392,0,0,0-1.593,1.224c-.544,2.208-1.112,4.41-1.628,6.624-.106.454-.2,1.034.528,1.17.169.42.528.409.894.406.962-.007,1.925-.025,2.886,0A1.248,1.248,0,0,0,37.6,16.053c.549-2.17,1.1-4.34,1.638-6.514C39.35,9.094,39.361,8.663,38.731,8.6Z" transform="translate(0 0)" fill="#fcfefc"/>
      <path id="Path_3122" data-name="Path 3122" d="M25.464,19.059c.035-.185.081-.348.334-.248,1.57.626,3.22.4,4.84.421,2.707.037,5.414.023,8.121.011,3.3-.015,4.755-1.186,5.549-4.436.512-2.1,1-4.207,1.539-6.3a6.816,6.816,0,0,0,.121-1.8,3.152,3.152,0,0,1,1.041,3.126Q46.223,13,45.438,16.17l-.075.341-.13.414a.089.089,0,0,0-.011.13c-.019.093-.039.185-.058.278a.159.159,0,0,0-.054.184c-.175.109-.175.284-.174.46a5.548,5.548,0,0,1-2.174,2.362c-.172.007-.347.006-.46.172l.018-.011-1.053.239-1.075.068H36.554a.2.2,0,0,0-.2,0l-.44,0a.2.2,0,0,0-.2,0l-.441,0a.2.2,0,0,0-.2,0h-.44a.2.2,0,0,0-.2,0H32.5l-.447,0H28.645l-.437-.046-.215-.009a.447.447,0,0,0-.473-.073l-.379-.109A4.522,4.522,0,0,1,25.464,19.059Z" transform="translate(0 0)" fill="#142d4b"/>
      <path id="Path_3123" data-name="Path 3123" d="M45.15,5.953c-4.689-.391-9.385-.174-14.077-.132a3.728,3.728,0,0,0-3.7,2.747,40.22,40.22,0,0,0-2.148,9.515c-.012.217.005.431-.238.539a2.406,2.406,0,0,1-.342-2.407c.506-2.381,1.073-4.752,1.726-7.1.537-1.931,1.518-3.532,3.779-3.806a.382.382,0,0,0,.424-.168c4.027,0,8.056-.026,12.083.028C43.522,5.183,44.528,5.039,45.15,5.953Z" transform="translate(0 0)" fill="#b3cee6"/>
      <path id="Path_3124" data-name="Path 3124" d="M38.731,8.6c.033.513-.23.688-.716.665s-.995-.008-1.493-.007c-1.46,0-1.682.174-2.042,1.6-.424,1.683-.863,3.362-1.246,5.054-.108.475-.27.775-.779.805-.732-.135-.634-.715-.528-1.169.516-2.214,1.084-4.416,1.628-6.624A1.392,1.392,0,0,1,35.148,7.7c.888.051,1.781.029,2.672.005C38.458,7.693,38.737,7.987,38.731,8.6Z" transform="translate(0 0)" fill="#142d4b"/>
      <path id="Path_3125" data-name="Path 3125" d="M82.944,20.809l-1.3,0a.207.207,0,0,0-.2,0l-.443,0H79.519l-.444,0H73.721l-.414,0h-.659l-1.267,0-.443,0a.2.2,0,0,0-.2,0H70.08l-.414,0c-.838-.012-1.677-.021-2.516-.037-.225,0-.535.084-.456-.338.224-.173.306-.334-.034-.465-.2-.126-.546.119-.638-.263l.587-.5c4.262.01,8.524.051,12.786.022,3.617-.025,2.572.614,4.018-2.74a.7.7,0,0,1,.594-.251.279.279,0,0,0,.2.051l0,0c.342.182-.665.777.241.785l.1.015.089-.052c.331.748-.465,1.233-.445,1.909l-.152.318-.071.2-.118.232-.063.2a.427.427,0,0,0-.173.431.094.094,0,0,0-.062.127l-.184.3-.011.01Z" transform="translate(0 0)" fill="#142d4b"/>
      <path id="Path_3126" data-name="Path 3126" d="M66.609,19.206l-.587.5-.242.038-.2-.258c1.474-2.5,1.765-5.378,2.524-8.1.75-2.7,1.334-5.44,2.033-8.152A8.425,8.425,0,0,0,70.32,1.54a.287.287,0,0,0,0-.507C70.187.2,70.6-.01,71.36,0c2.243.032,4.486.01,6.729.013.423,0,.892-.065,1,.533l-.823.148C76.348.673,74.426.718,72.513.6c-1.091-.064-1.648.144-1.4,1.355a1.566,1.566,0,0,1-.1.625c-.859,3.51-1.7,7.025-2.59,10.527A26.8,26.8,0,0,1,66.609,19.206Z" transform="translate(0 0)" fill="#b3cee6"/>
      <path id="Path_3127" data-name="Path 3127" d="M78.266.694l.823-.148c.147.058.257.138.21.322-.337.118-.165.4-.2.614a3.173,3.173,0,0,0-.826,1.7c-1.021,3.987-2.027,7.978-2.987,11.98a1.454,1.454,0,0,1-.858,1.1,1.788,1.788,0,0,1,.094-1.041C75.755,10.378,76.831,5.49,78.266.694Z" transform="translate(0 0)" fill="#093a6d"/>
      <path id="Path_3128" data-name="Path 3128" d="M74.432,16.268a1.454,1.454,0,0,0,.858-1.1c.96-4,1.966-7.993,2.987-11.98a3.173,3.173,0,0,1,.826-1.7h.1l.094-.027c.225.057.551.028.367.434-.129.287-.253.577-.379.865-.193.1-.2.273-.2.457a1,1,0,0,0-.25.761.522.522,0,0,0-.15.519l-.065.33a.531.531,0,0,0-.148.526l-.066.33a.537.537,0,0,0-.15.526c-.036.16-.073.319-.11.479l-.1.378A3.27,3.27,0,0,0,77.729,8.4a.739.739,0,0,0-.15.592l-.047.037.021.057a.568.568,0,0,0-.147.543c-.038.159-.075.318-.112.478q-.052.19-.1.378c-.035.161-.069.322-.1.483a.739.739,0,0,0-.149.592,6.4,6.4,0,0,0-.5,1.972l-.1.378a3.254,3.254,0,0,0-.318,1.339.744.744,0,0,0-.153.592l-.067.19c-.24.326-.749.09-.965.464C74.668,16.472,74.47,16.511,74.432,16.268Z" transform="translate(0 0)" fill="#24212c"/>
      <path id="Path_3129" data-name="Path 3129" d="M74.831,16.5c.216-.374.725-.138.965-.464,2.557-.053,5.13.284,7.665-.269.516-.113.545.11.546.475a.7.7,0,0,0-.6.251,65.181,65.181,0,0,1-7.565.18C75.507,16.676,75.128,16.79,74.831,16.5Z" transform="translate(0 0)" fill="#f9fbfa"/>
      <path id="Path_3130" data-name="Path 3130" d="M74.831,16.5c.3.3.676.181,1.016.173a65.181,65.181,0,0,0,7.565-.18c-1.445,3.354-.4,2.715-4.017,2.74-4.262.029-8.524-.012-12.786-.022a26.8,26.8,0,0,0,1.811-6.095c.892-3.5,1.731-7.017,2.59-10.527a1.566,1.566,0,0,0,.1-.625C70.865.748,71.422.54,72.513.6c1.913.114,3.835.069,5.753.09-1.435,4.8-2.511,9.684-3.74,14.533a1.788,1.788,0,0,0-.094,1.041C74.47,16.511,74.668,16.472,74.831,16.5Z" transform="translate(0 0)" fill="#fcfefc"/>
      <path id="Path_3131" data-name="Path 3131" d="M95.031,17.976l-.131.618a2.14,2.14,0,0,0,.049,1.545c.046.349.124.679-.45.645-.62-.037-1.245.012-1.869.024h-.413l-.445,0h-.839l-.445,0h-2.34c-.411-.012-.825-.057-1.234-.028-.741.052-.288-.352-.25-.6l.137-.138-.16-.065c-.254-.185-.678.174-.851-.267l.837-.637a45.009,45.009,0,0,0,6.166.169c.613.013,1.025-.191.948-.932a6.82,6.82,0,0,1,.31-2.3Q95.283,10.9,96.529,5.8a.727.727,0,0,0,.184-.1l.485.073-.023.649c-.047.158.023.209.171.189.886.059.07.634.274.9a.212.212,0,0,0-.028.2l-.18.655a.184.184,0,0,0-.033.2L97.2,9.22a2.207,2.207,0,0,0-.243,1.052l-.188.658-.074.406a.448.448,0,0,0-.139.448.188.188,0,0,0-.032.2l-.18.656a.209.209,0,0,0-.031.2.9.9,0,0,0-.187.655.224.224,0,0,0-.026.2.934.934,0,0,0-.185.659,2.2,2.2,0,0,0-.243,1.052l-.053.213c-.2.177-.172.413-.16.643a.942.942,0,0,0-.188.66A2.138,2.138,0,0,0,95.031,17.976Z" transform="translate(0 0)" fill="#142d4b"/>
      <path id="Path_3132" data-name="Path 3132" d="M91.122,5.143,91.083,4.7c.023-.153.138-.348-.159-.359L90.5,4.279l-.017-.412.226-.225,3.821-.022c2.9-.019,2.9-.019,3.286-2.957l.668-.039-.019.651c-.05.143,0,.2.15.185.865.052.153.62.3.908a.186.186,0,0,0-.03.2l-.184.657a.186.186,0,0,0-.03.2c-.035.161-.071.322-.106.484l-.108.371c-.033.161-.065.322-.1.484-.052.123-.105.245-.157.368l-.218.051c-.191-.03-.386-.09-.551.073l-.085-.044-.1.008c-.182-.011-.364-.025-.546-.038Z" transform="translate(0 0)" fill="#142d4b"/>
      <path id="Path_3133" data-name="Path 3133" d="M86.627,19.071l-.837.637c-.19-.048-.658.069-.389-.334,1.846-2.758,2.009-6.053,2.942-9.1A11.542,11.542,0,0,0,88.988,5.8l-.009-.243h0a.378.378,0,0,0,.233-.383l.639,0,.108.247.11-.247h.64c.024.065.048.187.074.188,1.972.024,3.946.156,5.918-.011a.88.88,0,0,1,.057.135,1.025,1.025,0,0,0-.045.2.751.751,0,0,1-.185.1q-2.668-.013-5.336-.026c-1.544-.006-1.542,0-1.554,1.476a3.84,3.84,0,0,1-.047.956C88.609,11.826,88.014,15.557,86.627,19.071Z" transform="translate(0 0)" fill="#b3cee6"/>
      <path id="Path_3134" data-name="Path 3134" d="M90.712,3.642l-.226.225-.469.019q.36-1.6.719-3.207A.8.8,0,0,1,91.656,0c1.887.021,3.774.011,5.66.006a1.2,1.2,0,0,1,1.171.613l-.668.039c-1.835-.011-3.67-.01-5.5-.042-.582-.01-.9.148-1.011.784C91.175,2.162,90.915,2.9,90.712,3.642Z" transform="translate(0 0)" fill="#b3cee6"/>
      <path id="Path_3135" data-name="Path 3135" d="M86.627,19.071c1.387-3.514,1.982-7.245,2.965-10.869a3.84,3.84,0,0,0,.047-.956c.012-1.479.01-1.482,1.554-1.476q2.667.009,5.336.026-1.24,5.1-2.478,10.21a6.82,6.82,0,0,0-.31,2.3c.077.741-.335.945-.948.932A45.009,45.009,0,0,1,86.627,19.071Z" transform="translate(0 0)" fill="#fcfefc"/>
      <path id="Path_3136" data-name="Path 3136" d="M90.712,3.642c.2-.745.463-1.48.592-2.237.109-.636.429-.794,1.011-.784,1.834.032,3.669.031,5.5.042C97.431,3.6,97.431,3.6,94.533,3.62Z" transform="translate(0 0)" fill="#fcfefc"/>
    </g>
  </g>
</svg>
