<svg xmlns="http://www.w3.org/2000/svg" width="182" height="31.499" viewBox="0 0 182 31.499">
  <g id="Logo" transform="translate(91 15.749)">
    <g id="Group_2567" data-name="Group 2567" transform="translate(-91 -15.749)">
      <path id="Path_3174" data-name="Path 3174" d="M48.462,25.644l-.678-.719c.6-.219.409-.734.315-1.1a5.907,5.907,0,0,1,.136-2.861c.722-3.083,1.439-6.17,2.313-9.212.881-3.067,2.8-5.351,6.1-5.684,5.946-.6,11.922-.3,17.887-.153v3.8c-2.882-1.352-5.552-.916-8.169-.972-5.844-.123-5.5-.047-6.79,5.357-.521,2.186-1.359,4.315-1.388,6.609-.009.711-.074,1.462.984,1.452.229.7.786.808,1.418.787,3.433-.109,6.881.256,10.3-.283a5.264,5.264,0,0,0-.549,1.161c-.412,2.068-1.723,2.458-3.655,2.4-4.352-.132-8.71-.051-13.064-.018a9.893,9.893,0,0,1-4.532-.863C48.627,25.117,48.561,25.3,48.462,25.644Z" transform="translate(24.545 2.935)" fill="#fcfefc"/>
      <path id="Path_3175" data-name="Path 3175" d="M55.645,22.134c-1.058.011-.993-.74-.984-1.452.029-2.293.867-4.423,1.388-6.609,1.288-5.4.946-5.479,6.79-5.357,2.617.056,5.287-.38,8.169.972V5.89l.867-.12c1.058,1.273.878,2.764.749,4.246l-.03.943c.118,1.747-.958.557-1.526.619-3.173-.937-6.406-.412-9.616-.4a.84.84,0,0,0-.925.094.754.754,0,0,0-.733.259l.076.036-.067-.048-.377.206-.107.065-.353.478a1.236,1.236,0,0,0-.457,1.082c-.058.176-.117.351-.176.527l-.124.642a.613.613,0,0,0-.2.664l-.126.633a5.736,5.736,0,0,0-.559,2.277l-.085.327-.1.331.05.082a1.142,1.142,0,0,0-.254.893,1.607,1.607,0,0,0-.156.256c-.014.03.045.089.071.136-.054.189-.11.377-.167.565l-.118.472C56.178,21.4,56.556,22.372,55.645,22.134Z" transform="translate(28.075 2.964)" fill="#142d4b"/>
      <path id="Path_3176" data-name="Path 3176" d="M48.232,20.011c.1-.341.165-.527.633-.3a9.893,9.893,0,0,0,4.532.863c4.355-.033,8.713-.114,13.064.018,1.933.058,3.244-.333,3.655-2.4a5.264,5.264,0,0,1,.549-1.161c.347-.391.816-.344,1.268-.357l-.029.621-.275.44.3.163.665.014.02.727c-.484,1.07-1.032,2.119-1.433,3.22a1.391,1.391,0,0,1-1.533,1.066l-.949,0-1,0-1.27,0-1.968,0a.306.306,0,0,0-.306,0l-2.613,0-.627,0-.672,0-.948,0h-.993a.3.3,0,0,0-.307,0H56.035l-.628,0-.347,0L53.136,22.9A6.459,6.459,0,0,1,48.232,20.011Z" transform="translate(24.775 8.567)" fill="#142d4b"/>
      <path id="Path_3177" data-name="Path 3177" d="M75.991,6.1l-.867.12c-5.965-.148-11.941-.448-17.887.153-3.3.333-5.224,2.617-6.1,5.684-.873,3.042-1.591,6.129-2.313,9.212a5.907,5.907,0,0,0-.136,2.861c.094.362.282.876-.315,1.1-.884-.51-.518-1.977-1.721-2.242l.2-.627a1.659,1.659,0,0,0,.26.036c.527.248.294-.221.374-.4.773-3.233,1.742-6.421,2.295-9.706.692-1.385.985-2.961,2.021-4.181a8.62,8.62,0,0,1,6.9-2.943c5.022-.038,10.045.009,15.067-.029A2.476,2.476,0,0,1,75.991,6.1Z" transform="translate(23.961 2.639)" fill="#b3cee6"/>
      <path id="Path_3178" data-name="Path 3178" d="M68.3,17.073c-.453.014-.922-.033-1.268.357-3.421.539-6.869.174-10.3.283-.633.021-1.19-.083-1.418-.787.911.238.533-.731.919-.982.288.863,1,.889,1.715.826,3.121-.266,6.344.693,9.371-.78.76-.369.539.639.964.769l.035.032C68.306,16.885,68.3,16.979,68.3,17.073Z" transform="translate(28.411 8.173)" fill="#f9fbfa"/>
      <g id="Group_2566" data-name="Group 2566" transform="translate(0 0.014)">
        <path id="Path_3179" data-name="Path 3179" d="M34.424,1.018l.327.289.344.265.1.042c.077.088.154.176.232.262l.036.056.5.6a17.383,17.383,0,0,1,.011,4.025c-1.178,5.125-2.435,10.237-3.851,15.3-1.2,4.3-4.19,6.795-8.673,6.875-7.491.133-14.985-.009-22.478-.036a15.648,15.648,0,0,0,1.259-3.3c1.636-6.565,3.3-13.125,4.913-19.7a10.939,10.939,0,0,0,.569-3.793C7.55.6,8.045.641,8.966.644c6.356.018,12.71,0,19.065.009a27.62,27.62,0,0,1,6.1.292A.527.527,0,0,0,34.424,1.018ZM13.343,24.642c1.909.766,3.9.167,5.846.351a2.364,2.364,0,0,0,2.776-2.066c1.287-5.2,2.6-10.393,3.9-15.591.2-.787.209-1.515-.79-1.788-.017-.981-.64-1.3-1.491-1.3-1.726-.017-3.451.012-5.175-.015-.746-.012-.991.354-1.161,1.035-1.456,5.9-2.97,11.776-4.408,17.677C12.706,23.49,12.223,24.366,13.343,24.642Z" transform="translate(0.499 0.308)" fill="#fcfefc"/>
        <path id="Path_3180" data-name="Path 3180" d="M37.381,8.962l-.154.736c-.286.248-.215.572-.194.885-.038.142-.076.285-.112.428l-.177.543c-.05.25-.1.5-.148.752-.058.182-.115.362-.171.543-.05.25-.1.5-.147.752-.291.236-.229.559-.215.869l-.114.428c-.058.182-.117.362-.174.542l-.145.752c-.289.236-.227.559-.215.869-.036.142-.073.286-.107.43-.294.233-.227.557-.216.866l-.114.43c-.059.18-.117.36-.174.54-.048.251-.1.5-.144.755-.288.235-.236.556-.223.867l-.089.324-.115.327.048.068c-.054.192-.11.384-.167.577a.166.166,0,0,0-.071.235.709.709,0,0,0-.239.736.205.205,0,0,0-.076.263c-.274.168-.28.436-.271.711l-.734,1.429-.288.509.008-.008-.477.621a12.74,12.74,0,0,1-3.406,2.67.889.889,0,0,0-.8.247l-.107-.006-.065.085c-.31,0-.634-.07-.884.2-.266-.183-.495-.024-.73.08l-1.29.076-.987,0-.313,0H22.078l-.312,0H19.482l-1.279,0-1.311,0a.321.321,0,0,0-.313,0l-.661,0-1.6,0-.987,0-.313,0h-2.6a.317.317,0,0,0-.313,0H9.112a.307.307,0,0,0-.312,0H8.461l-1.6,0-.988,0-.634,0-.661,0a.318.318,0,0,0-.312,0c-.845-.017-1.689-.032-2.534-.054-.353-.011-.8.083-.671-.537a.716.716,0,0,0,.359-.754q11.564,0,23.129,0a7.9,7.9,0,0,0,7.5-4.648c1.6-3.1,2.11-6.521,2.9-9.846C35.836,10.452,37.336,6.751,37,2.732c.445.353.457.926.707,1.377l.109.7a4.406,4.406,0,0,0,.042,1.972c-.26.257-.188.575-.165.884-.05.244-.1.487-.15.733Z" transform="translate(0.532 1.39)" fill="#24212c"/>
        <path id="Path_3181" data-name="Path 3181" d="M37.366,3.166c.335,4.019-1.166,7.72-2.059,11.513-.786,3.326-1.291,6.746-2.9,9.846a7.9,7.9,0,0,1-7.5,4.648q-11.564,0-23.13,0l-.4.082c-.347-.15-.858.117-1.055-.416l.109-.315c.424.088.61-.262.872-.474,7.493.027,14.987.17,22.478.036,4.483-.08,7.471-2.573,8.673-6.875,1.415-5.065,2.673-10.176,3.851-15.3A17.466,17.466,0,0,0,36.3,1.889l.425,0Z" transform="translate(0.167 0.956)" fill="#093a6d"/>
        <path id="Path_3182" data-name="Path 3182" d="M1.471,29.018c-.262.212-.448.562-.872.474l-.268.33c-.3-.124-.422-.333-.26-.63,2.213-4.079,2.685-8.681,3.905-13.055C5,12.477,5.793,8.755,6.763,5.081a12.6,12.6,0,0,0,.3-3.678C7.029.46,7.341.007,8.339.009,16.049.024,23.76,0,31.471.039a7.776,7.776,0,0,1,3.182.946,1.06,1.06,0,0,0-.023.277,27.62,27.62,0,0,0-6.1-.292C22.175.957,15.821.979,9.465.961c-.92,0-1.415-.042-1.252,1.265A10.939,10.939,0,0,1,7.644,6.02c-1.615,6.571-3.277,13.131-4.913,19.7A15.649,15.649,0,0,1,1.471,29.018Z" transform="translate(0 -0.009)" fill="#b3cee6"/>
        <path id="Path_3183" data-name="Path 3183" d="M9.39,23.419c-1.12-.275-.637-1.152-.5-1.7,1.438-5.9,2.952-11.781,4.408-17.677.17-.681.415-1.047,1.161-1.035,1.724.027,3.45,0,5.175.015.851.008,1.474.322,1.491,1.3-.073.374.017.8-.369,1.067l-.651.02-.313,0c-1.126-.012-2.257.038-3.375-.058-1.014-.088-1.349.312-1.58,1.281-1.276,5.345-2.646,10.67-3.982,16C10.54,23.225,9.668,22.771,9.39,23.419Z" transform="translate(4.453 1.531)" fill="#142d4b"/>
        <path id="Path_3184" data-name="Path 3184" d="M9.145,22.971c.279-.648,1.15-.194,1.461-.784.988.858,2.171.383,3.257.418,1.968.062,2.581-.477,3.056-2.36.537-2.128,1.14-4.241,1.585-6.388.616-2.983,1.739-5.852,2-8.912.386-.265.3-.693.369-1.067,1,.272.987,1,.79,1.788-1.3,5.2-2.614,10.39-3.9,15.591a2.364,2.364,0,0,1-2.776,2.066C13.046,23.138,11.054,23.737,9.145,22.971Z" transform="translate(4.698 1.978)" fill="#b3cee6"/>
      </g>
      <path id="Path_3185" data-name="Path 3185" d="M128.939,9.14l.657.655.3.391c.021.8.463,1.533.242,2.379-.937,3.589-1.692,7.229-2.787,10.768a7.166,7.166,0,0,1-6.3,5.29,86.177,86.177,0,0,1-10.462.226c-.546,0-1.085-.233-1.138.6l-.908-.9c.465-.655.056-1.181-.238-1.776-.87.61-.751,2.145-2.231,2.1-2.8-.085-5.6-.083-8.393-.117a21.1,21.1,0,0,0,1.429-3.916c.642-2.765,1.523-5.479,2.072-8.262,1.007-5.084,3.254-9.922,3.068-15.243-.02-.551.235-.854.737-.829,3.244.156,6.5-.3,9.734.251-.118,2.973-1.565,5.7-1.724,8.859l.7-.792.1,1.585c.734-1.008,1.509-1.836,2.534-1.832C120.538,8.6,124.784,7.92,128.939,9.14ZM110.046,25.32c1.8.822,3.707.213,5.555.4a1.685,1.685,0,0,0,1.969-1.464c.849-3.319,1.715-6.636,2.531-9.964.165-.674.265-1.462-.82-1.542-.011-.923-.431-1.361-1.4-1.323-1.291.048-2.585.026-3.878.011a1.9,1.9,0,0,0-2.087,1.6c-.833,3.383-1.683,6.763-2.507,10.149A1.8,1.8,0,0,0,110.046,25.32Z" transform="translate(50.175 0.247)" fill="#fcfefc"/>
      <path id="Path_3186" data-name="Path 3186" d="M105.461,26.262c.053-.834.592-.6,1.138-.6a86.177,86.177,0,0,0,10.462-.226,7.166,7.166,0,0,0,6.3-5.29c1.094-3.539,1.85-7.179,2.787-10.768.221-.846-.221-1.582-.241-2.379.073-.1.145-.207.219-.312,1.023,1.588,1.921,3.215,1.664,5.212-.277.238-.232.552-.213.861a4.483,4.483,0,0,0-.466,2.037,1.148,1.148,0,0,0-.251.893c-.15.11-.2.239-.073.4a1.135,1.135,0,0,0-.251.895,1.608,1.608,0,0,0-.156.256c-.014.032.045.091.071.136-.056.189-.112.377-.167.566l-.1.457c-.289.223-.233.534-.218.837l-.106.459c-.288.223-.238.534-.221.837-.133.227-.3.448-.159.734-.056.188-.114.375-.17.563a.242.242,0,0,0-.073.279c-.333.253-.272.654-.378.993l-.9,1.651-.548.649-2.693,1.986a.9.9,0,0,0-.781.239l-.114,0-.076.086-1.01.165-.605.117-.321.021-2.284.047-1.918,0-.675,0-2.893,0-1.966,0a.321.321,0,0,0-.307-.006c-1.208-.033-1.338-1.456-2.313-1.791Z" transform="translate(54.167 3.435)" fill="#142d4b"/>
      <path id="Path_3187" data-name="Path 3187" d="M109.425,19.924h-.008l.009.365-.25.391a.162.162,0,0,0-.088.219l-.445.716-.495.106-1.6,0-.665,0-.633,0-1.96,0h-.957l-.663,0H99.075l-.313,0c-.259-.313-1.291.477-.964-.675a.631.631,0,0,0,.374-.675c2.835,0,5.672-.024,8.505.009,1.005.012,1.651-.325,1.841-1.353Z" transform="translate(50.202 9.773)" fill="#24212c"/>
      <path id="Path_3188" data-name="Path 3188" d="M123.506,6.762c-4.155-1.22-8.4-.536-12.607-.559-1.025,0-1.8.823-2.534,1.832l-.1-1.585,0,0,.279-.359.372-.5,1.119-.477c3.067.018,6.139-.07,9.2.1C120.737,5.3,122.511,5.079,123.506,6.762Z" transform="translate(55.609 2.624)" fill="#b3cee6"/>
      <path id="Path_3189" data-name="Path 3189" d="M108.844,19.628c-.189,1.028-.836,1.365-1.841,1.353-2.834-.033-5.67-.009-8.505-.009l-.388.079-.979-.085c-.2-.737.557-.761.851-1.131,2.8.033,5.6.032,8.393.117,1.48.045,1.361-1.489,2.231-2.1C108.9,18.447,109.308,18.972,108.844,19.628Z" transform="translate(49.876 9.17)" fill="#093a6d"/>
      <path id="Path_3190" data-name="Path 3190" d="M109.147,7.919l-.372.5-.279.359,0,0-.7.792c.159-3.161,1.606-5.887,1.724-8.859.562-.065,1.288-.48,1.29.618l-.085.4Q109.938,4.823,109.147,7.919Z" transform="translate(55.373 0.298)" fill="#093a6d"/>
      <path id="Path_3191" data-name="Path 3191" d="M108.69,7.532q.79-3.1,1.583-6.192c.948-.077.848.472.686,1.1-.4,1.535-.769,3.076-1.15,4.614Z" transform="translate(55.83 0.685)" fill="#24212c"/>
      <path id="Path_3192" data-name="Path 3192" d="M106.1,21.606a1.8,1.8,0,0,1-.637-2.131c.823-3.386,1.674-6.766,2.507-10.149a1.9,1.9,0,0,1,2.087-1.6c1.293.015,2.587.038,3.878-.011.969-.038,1.39.4,1.4,1.323-.089.366.021.808-.394,1.052l-1.308.035h-.313c-3.277-.13-3.413-.015-4.176,3.065-.671,2.708-1.379,5.408-2.069,8.112C106.7,21.25,106.239,20.911,106.1,21.606Z" transform="translate(54.121 3.961)" fill="#142d4b"/>
      <path id="Path_3193" data-name="Path 3193" d="M114.691,9.637c.415-.244.3-.686.394-1.052,1.085.08.985.869.82,1.542-.816,3.329-1.682,6.645-2.531,9.964a1.685,1.685,0,0,1-1.969,1.464c-1.848-.186-3.752.422-5.555-.4.139-.695.6-.356.975-.307l3.705.008a1.605,1.605,0,0,0,1.766-1.116A76.865,76.865,0,0,0,114.691,9.637Z" transform="translate(54.371 4.41)" fill="#b3cee6"/>
      <path id="Path_3194" data-name="Path 3194" d="M55.506,6.071l.612.389c.03.182.1.33.316.325l.011,0,.271.115a.367.367,0,0,1,.029.31,10.317,10.317,0,0,1-.183,2.722c-.817,3.168-1.555,6.357-2.33,9.536-1.2,4.919-3.4,6.692-8.4,6.715-4.1.018-8.195.039-12.292-.017-2.452-.035-4.95.31-7.326-.637-.383-.151-.453.1-.506.375a1.014,1.014,0,0,1-.721-.661c.368-.163.342-.487.36-.816.269-4.983,1.815-9.69,3.251-14.4a5.643,5.643,0,0,1,5.6-4.158C41.3,5.808,48.409,5.479,55.506,6.071ZM45.79,10.079c.009-.929-.413-1.374-1.379-1.349-1.349.036-2.7.07-4.044-.008a2.107,2.107,0,0,0-2.411,1.853c-.823,3.342-1.683,6.675-2.464,10.026-.16.687-.309,1.565.8,1.771.256.636.8.619,1.353.615,1.456-.011,2.914-.038,4.368,0a1.89,1.89,0,0,0,2.069-1.63c.831-3.285,1.665-6.569,2.479-9.86C46.727,10.825,46.744,10.173,45.79,10.079Z" transform="translate(12.835 2.94)" fill="#fcfefc"/>
      <path id="Path_3195" data-name="Path 3195" d="M25.464,25.4c.053-.28.123-.527.506-.375,2.376.948,4.874.6,7.326.637,4.1.056,8.195.035,12.292.017,5-.023,7.2-1.8,8.4-6.715.775-3.179,1.512-6.368,2.33-9.536A10.317,10.317,0,0,0,56.5,6.709c1.555,1.235,1.8,2.9,1.576,4.732q-1.19,4.8-2.378,9.589l-.114.516-.2.627a.134.134,0,0,0-.017.2c-.029.141-.059.28-.088.421a.241.241,0,0,0-.082.279c-.265.165-.265.43-.263.7a8.4,8.4,0,0,1-3.291,3.575c-.26.011-.525.009-.7.26l.027-.017-1.594.362-1.627.1H42.25a.3.3,0,0,0-.306,0l-.666,0a.3.3,0,0,0-.306,0l-.668,0a.306.306,0,0,0-.306,0h-.666a.306.306,0,0,0-.306,0l-.671,0-2.242,0-.677,0h-5.16l-.661-.07-.325-.014a.676.676,0,0,0-.716-.11L28,27.69A6.844,6.844,0,0,1,25.464,25.4Z" transform="translate(13.08 3.447)" fill="#142d4b"/>
      <path id="Path_3196" data-name="Path 3196" d="M55.764,6.372c-7.1-.592-14.206-.263-21.308-.2a5.643,5.643,0,0,0-5.6,4.158c-1.436,4.712-2.982,9.419-3.251,14.4-.018.328.008.652-.36.816-1.075-1.081-.77-2.451-.518-3.643.766-3.6,1.624-7.193,2.613-10.742.813-2.923,2.3-5.346,5.72-5.761a.579.579,0,0,0,.642-.254c6.1,0,12.194-.039,18.29.042C53.3,5.206,54.823,4.988,55.764,6.372Z" transform="translate(12.578 2.64)" fill="#b3cee6"/>
      <path id="Path_3197" data-name="Path 3197" d="M42.263,9.064c.05.777-.348,1.041-1.084,1.007-.752-.036-1.506-.012-2.26-.011-2.21,0-2.546.263-3.091,2.428-.642,2.547-1.306,5.089-1.886,7.65-.163.719-.409,1.173-1.179,1.218-1.108-.2-.96-1.082-.8-1.769.781-3.351,1.641-6.684,2.464-10.026A2.107,2.107,0,0,1,36.84,7.707c1.344.077,2.7.044,4.044.008C41.85,7.689,42.273,8.134,42.263,9.064Z" transform="translate(16.362 3.956)" fill="#142d4b"/>
      <path id="Path_3198" data-name="Path 3198" d="M91.636,23.157l-1.966,0a.314.314,0,0,0-.306,0l-.671,0-2.242,0-.672,0-.627,0-.672,0-2.245,0h-.348l-.949,0-1.32,0-.627,0H77.676l-.627,0h-1l-1.918,0-.671,0a.3.3,0,0,0-.306,0l-.993,0-.627,0c-1.268-.018-2.538-.032-3.808-.056-.341-.008-.81.127-.69-.512.339-.262.463-.506-.051-.7-.3-.191-.826.18-.966-.4l.889-.752c6.451.015,12.9.077,19.354.033,5.475-.038,3.893.929,6.082-4.147a1.052,1.052,0,0,1,.9-.38.423.423,0,0,0,.3.077l-.006,0c.518.275-1.007,1.176.365,1.188l.154.023.135-.079c.5,1.132-.7,1.866-.674,2.89l-.23.481-.107.3L93,21.468l-.1.31a.646.646,0,0,0-.262.652.142.142,0,0,0-.094.192l-.279.448-.017.015Z" transform="translate(33.913 8.341)" fill="#142d4b"/>
      <path id="Path_3199" data-name="Path 3199" d="M67.137,29.071l-.889.752-.366.058c-.1-.13-.2-.26-.3-.391,2.231-3.789,2.672-8.14,3.82-12.265,1.135-4.082,2.019-8.234,3.077-12.339a12.752,12.752,0,0,0,.275-2.555.434.434,0,0,0,0-.767C72.553.31,73.174-.015,74.328,0c3.4.048,6.79.015,10.185.02.64,0,1.35-.1,1.514.807q-.622.114-1.246.224c-2.9-.032-5.812.036-8.708-.136-1.651-.1-2.495.218-2.125,2.051a2.371,2.371,0,0,1-.15.946c-1.3,5.313-2.57,10.633-3.92,15.934C69.087,22.955,68.661,26.179,67.137,29.071Z" transform="translate(33.686 0)" fill="#b3cee6"/>
      <path id="Path_3200" data-name="Path 3200" d="M80.261.77q.624-.111,1.246-.224c.223.088.389.209.318.487-.51.179-.25.6-.3.929a4.8,4.8,0,0,0-1.25,2.575c-1.545,6.035-3.068,12.076-4.521,18.134a2.2,2.2,0,0,1-1.3,1.673,2.706,2.706,0,0,1,.142-1.576C76.46,15.428,78.088,8.03,80.261.77Z" transform="translate(38.208 0.281)" fill="#093a6d"/>
      <path id="Path_3201" data-name="Path 3201" d="M74.432,23.876a2.2,2.2,0,0,0,1.3-1.673c1.453-6.058,2.976-12.1,4.521-18.134A4.8,4.8,0,0,1,81.5,1.5l.15,0,.142-.041c.341.086.834.042.556.657-.2.434-.383.873-.574,1.309-.292.148-.309.413-.3.692A1.508,1.508,0,0,0,81.1,5.266a.791.791,0,0,0-.227.786l-.1.5a.8.8,0,0,0-.224.8l-.1.5a.813.813,0,0,0-.227.8c-.054.242-.111.483-.167.725L79.9,9.94a4.95,4.95,0,0,0-.481,2.027,1.119,1.119,0,0,0-.227.9l-.071.056.032.086a.859.859,0,0,0-.223.822c-.058.241-.114.481-.17.724q-.079.288-.159.572c-.053.244-.1.487-.156.731a1.118,1.118,0,0,0-.226.9,9.694,9.694,0,0,0-.758,2.985l-.154.572a4.926,4.926,0,0,0-.481,2.027,1.126,1.126,0,0,0-.232.9l-.1.288c-.363.493-1.134.136-1.461.7C74.789,24.185,74.49,24.244,74.432,23.876Z" transform="translate(38.233 0.748)" fill="#24212c"/>
      <path id="Path_3202" data-name="Path 3202" d="M74.831,16.887c.327-.566,1.1-.209,1.461-.7,3.87-.08,7.765.43,11.6-.407.781-.171.825.167.826.719a1.056,1.056,0,0,0-.9.38c-3.805.539-7.635.177-11.451.272C75.854,17.161,75.281,17.333,74.831,16.887Z" transform="translate(38.438 8.082)" fill="#f9fbfa"/>
      <path id="Path_3203" data-name="Path 3203" d="M79.054,24.663c.45.447,1.023.274,1.538.262,3.816-.1,7.645.266,11.451-.272-2.187,5.077-.605,4.11-6.08,4.147-6.451.044-12.9-.018-19.354-.033,1.524-2.893,1.95-6.117,2.741-9.226,1.35-5.3,2.62-10.621,3.92-15.934a2.371,2.371,0,0,0,.15-.946C73.051.827,73.894.512,75.546.609c2.9.173,5.8.1,8.708.136-2.172,7.26-3.8,14.658-5.661,22a2.706,2.706,0,0,0-.142,1.576C78.508,24.687,78.808,24.628,79.054,24.663Z" transform="translate(34.214 0.305)" fill="#fcfefc"/>
      <path id="Path_3204" data-name="Path 3204" d="M99.778,24.286l-.2.935a3.239,3.239,0,0,0,.074,2.339c.07.528.188,1.028-.681.976-.938-.056-1.885.018-2.829.036l-.625,0-.674,0h-1.27l-.674,0h-.949l-1.642,0-.951,0c-.622-.018-1.249-.086-1.868-.042-1.122.079-.436-.533-.378-.91l.207-.209-.242-.1c-.384-.28-1.026.263-1.288-.4q.633-.484,1.267-.964c3.1.49,6.221.192,9.333.256.928.02,1.551-.289,1.435-1.411a10.323,10.323,0,0,1,.469-3.484q1.864-7.729,3.751-15.454a1.1,1.1,0,0,0,.279-.157l.734.11-.035.982c-.071.239.035.316.259.286,1.341.089.106.96.415,1.362a.321.321,0,0,0-.042.306l-.272.991a.278.278,0,0,0-.05.3l-.274,1a3.341,3.341,0,0,0-.368,1.592l-.285,1-.112.615a.678.678,0,0,0-.21.678.284.284,0,0,0-.048.3l-.272.993a.316.316,0,0,0-.047.3,1.362,1.362,0,0,0-.283.991.34.34,0,0,0-.039.3,1.414,1.414,0,0,0-.28,1,3.327,3.327,0,0,0-.368,1.592l-.08.322c-.309.268-.26.625-.242.973a1.426,1.426,0,0,0-.285,1A3.236,3.236,0,0,0,99.778,24.286Z" transform="translate(44.067 2.924)" fill="#142d4b"/>
      <path id="Path_3205" data-name="Path 3205" d="M91.449,7.464,91.39,6.8c.035-.232.209-.527-.241-.543l-.637-.1-.026-.624.342-.341q2.893-.018,5.784-.033C101,5.13,101,5.13,101.586.683L102.6.624l-.029.985c-.076.216.008.3.227.28,1.309.079.232.938.45,1.374a.281.281,0,0,0-.045.3l-.279.994a.281.281,0,0,0-.045.3c-.053.244-.107.487-.16.733l-.163.562c-.05.244-.1.487-.148.733-.079.186-.159.371-.238.557l-.33.077c-.289-.045-.584-.136-.834.11l-.129-.067-.144.012c-.275-.017-.551-.038-.826-.058Z" transform="translate(46.479 0.321)" fill="#142d4b"/>
      <path id="Path_3206" data-name="Path 3206" d="M87.3,26.209q-.633.481-1.267.964c-.288-.073-1,.1-.589-.506,2.794-4.175,3.041-9.162,4.453-13.773a17.471,17.471,0,0,0,.976-6.775l-.014-.368,0,0a.572.572,0,0,0,.353-.58l.967,0,.163.374.167-.374h.969c.036.1.073.283.112.285,2.985.036,5.973.236,8.958-.017a1.333,1.333,0,0,1,.086.2,1.551,1.551,0,0,0-.068.307,1.136,1.136,0,0,1-.28.157q-4.039-.02-8.077-.039c-2.337-.009-2.334,0-2.352,2.234a5.812,5.812,0,0,1-.071,1.447C90.3,15.243,89.4,20.89,87.3,26.209Z" transform="translate(43.825 2.658)" fill="#b3cee6"/>
      <path id="Path_3207" data-name="Path 3207" d="M91.069,5.51l-.342.341-.71.029q.545-2.427,1.088-4.854A1.208,1.208,0,0,1,92.5.005c2.856.032,5.713.017,8.567.009a1.818,1.818,0,0,1,1.772.928L101.827,1C99.049.984,96.271.986,93.5.937c-.881-.015-1.365.224-1.53,1.187C91.77,3.27,91.376,4.383,91.069,5.51Z" transform="translate(46.238 0.003)" fill="#b3cee6"/>
      <path id="Path_3208" data-name="Path 3208" d="M86.627,25.9c2.1-5.319,3-10.966,4.488-16.452A5.812,5.812,0,0,0,91.186,8c.018-2.239.015-2.243,2.352-2.234q4.037.014,8.077.039-1.878,7.726-3.751,15.454a10.323,10.323,0,0,0-.469,3.484c.117,1.122-.507,1.43-1.435,1.411C92.848,26.1,89.727,26.394,86.627,25.9Z" transform="translate(44.497 2.964)" fill="#fcfefc"/>
      <path id="Path_3209" data-name="Path 3209" d="M90.712,5.194c.307-1.128.7-2.24.9-3.386.165-.963.649-1.2,1.53-1.187,2.776.048,5.554.047,8.331.064-.587,4.447-.587,4.447-4.974,4.476Q93.6,5.179,90.712,5.194Z" transform="translate(46.595 0.319)" fill="#fcfefc"/>
    </g>
  </g>
</svg>
