<svg xmlns="http://www.w3.org/2000/svg" xmlns:xlink="http://www.w3.org/1999/xlink" width="46" height="46" viewBox="0 0 46 46">
  <defs>
    <clipPath id="clip-path">
      <circle id="Ellipse_167" data-name="Ellipse 167" cx="23" cy="23" r="23" fill="#fdb82c"/>
    </clipPath>
  </defs>
  <g id="Loyalty_Icon" data-name="Loyalty Icon" transform="translate(23 23)">
    <g id="Group_3157" data-name="Group 3157" transform="translate(-23 -23)">
      <circle id="Ellipse_166" data-name="Ellipse 166" cx="23" cy="23" r="23" fill="#fdb82c"/>
      <g id="Group_3156" data-name="Group 3156" clip-path="url(#clip-path)">
        <g id="Group_3155" data-name="Group 3155" transform="translate(-6.884 8.853)">
          <path id="Path_4391" data-name="Path 4391" d="M32.132,31.879c-.176,1.755-1.206,2.4-3.148,1.978a2.511,2.511,0,0,1-1.058,1.694,2.232,2.232,0,0,1-1.978.148,1.961,1.961,0,0,1-1.434,1.955,1.869,1.869,0,0,1-1.71-.488c.37-.34.707-.652,1.046-.962s.713-.635,1.061-.962a1.686,1.686,0,0,0,.512-1.754,2.123,2.123,0,0,0-2.588-1.757.84.84,0,0,1-.142,0c-.038-.127-.079-.255-.116-.384a1.993,1.993,0,0,0-2-1.575,1.6,1.6,0,0,0-.413.006c-.411.095-.6-.028-.735-.463a1.883,1.883,0,0,0-2.086-1.42c-.174.007-.347.02-.563.032a2.1,2.1,0,0,0-3.365-1.717q-1.055.969-2.114,1.932c-.139.127-.268.3-.467.081-.17-.183-.5-.249-.325-.645.774-1.731,1.524-3.473,2.282-5.21.561-1.289,1.13-2.576,1.679-3.871a.5.5,0,0,1,.609-.373,9.2,9.2,0,0,0,3.649-.621,6.409,6.409,0,0,1,3.367-.332,5.263,5.263,0,0,1,.69.266c-.185.206-.307.358-.445.492-1.142,1.113-2.293,2.217-3.429,3.338a2.244,2.244,0,0,0-.88,1.862A3.109,3.109,0,0,0,19.095,25.3a3.074,3.074,0,0,0,3.6.68,9.08,9.08,0,0,0,1.2-.635c.6-.411,1.173-.861,1.738-1.321a1.008,1.008,0,0,1,1.451-.018q3.54,3.081,7.078,6.161a1.711,1.711,0,0,0,.573.348c.295.094.259.239.157.45a1.91,1.91,0,0,1-2.19,1.069C32.514,32,32.336,31.936,32.132,31.879Z" transform="translate(6.244 -9.898)" fill="#fff"/>
          <path id="Path_4392" data-name="Path 4392" d="M27.51,16.918a5.447,5.447,0,0,1,2.285.5,6.9,6.9,0,0,0,3.253.641.727.727,0,0,1,.792.472c.651,1.469,1.332,2.925,1.959,4.4.681,1.607,1.306,3.237,1.97,4.851.113.272.084.425-.179.576q-.9.514-1.771,1.077a.434.434,0,0,1-.621-.051q-2.854-2.547-5.724-5.078c-.347-.309-.7-.617-1.041-.928a1.979,1.979,0,0,0-2.422-.233c-.932.569-1.848,1.168-2.785,1.728a3.65,3.65,0,0,1-1.061.46,1.505,1.505,0,0,1-.986-.061,6.83,6.83,0,0,1-1.526-1.183,1.229,1.229,0,0,1-.064-1.611,11.29,11.29,0,0,1,1.593-1.9c1.131-1.01,2.329-1.949,3.534-2.873A4.353,4.353,0,0,1,27.51,16.918Z" transform="translate(5.701 -9.889)" fill="#fff"/>
          <path id="Path_4393" data-name="Path 4393" d="M-7.333,20.012c.225-.637.407-1.264.664-1.858,1.164-2.7,2.347-5.386,3.529-8.075a3.049,3.049,0,0,1,.362-.615c.387-.509,12.032,5.039,12.615,5.3.732.33,1.468.653,2.2.991a1.252,1.252,0,0,1,.744,1.755c-.353.912-.772,1.8-1.171,2.692-.953,2.132-1.946,4.246-2.851,6.4C8.3,27.7,7.71,27.9,6.747,27.627a11.22,11.22,0,0,1-2.474-1.235C4.089,26.285-7.213,20.293-7.333,20.012Z" transform="translate(7.333 -9.431)" fill="#fff"/>
          <path id="Path_4394" data-name="Path 4394" d="M35.5,17.146a.992.992,0,0,1,.594-1.027c.764-.318,1.521-.658,2.289-.968.88-.356,9.067-3.836,9.443-2.967.738,1.7.56,5.619,1.288,7.328.6,1.4,2.078.6,2.694,1.987a1.183,1.183,0,0,1-.167,1.3c-.19.243-7.926,4.266-8.2,4.381-.781.334-1.586.62-2.4.878-.406.129-.695-.169-.923-.457a3.884,3.884,0,0,1-.515-.829q-1.963-4.424-3.9-8.859A4.953,4.953,0,0,1,35.5,17.146Z" transform="translate(4.711 -9.591)" fill="#fff"/>
          <path id="Path_4395" data-name="Path 4395" d="M16.9,34.772a2.776,2.776,0,0,1,.393-.626c.913-.843,1.851-1.658,2.773-2.492a.768.768,0,0,1,.933-.16,3.823,3.823,0,0,1,.894.606,1.021,1.021,0,0,1-.056,1.509c-.821.758-1.663,1.494-2.472,2.264a1.338,1.338,0,0,1-1.567.19A1.488,1.488,0,0,1,16.9,34.772Z" transform="translate(5.85 -10.776)" fill="#fff"/>
          <path id="Path_4396" data-name="Path 4396" d="M21.6,38.394a1.518,1.518,0,0,1-1.5-1.178.972.972,0,0,1,.34-1.036c.91-.769,1.776-1.589,2.684-2.361a1.03,1.03,0,0,1,.7-.244A1.671,1.671,0,0,1,25.207,34.6a.918.918,0,0,1-.259,1.1c-.895.825-1.789,1.651-2.7,2.452A2.015,2.015,0,0,1,21.6,38.394Z" transform="translate(5.656 -10.909)" fill="#fff"/>
          <path id="Path_4397" data-name="Path 4397" d="M10.669,30.574a2.33,2.33,0,0,1,.345-.58c.925-.849,1.875-1.67,2.805-2.512a.782.782,0,0,1,.966-.149,3.506,3.506,0,0,1,.834.562,1.007,1.007,0,0,1-.048,1.556c-.81.75-1.646,1.474-2.443,2.238a1.33,1.33,0,0,1-1.564.2A1.457,1.457,0,0,1,10.669,30.574Z" transform="translate(6.231 -10.52)" fill="#fff"/>
          <path id="Path_4398" data-name="Path 4398" d="M15.251,34.258c-1.02-.066-1.624-.67-1.535-1.605a.749.749,0,0,1,.215-.451c.964-.88,1.94-1.744,2.919-2.607a.771.771,0,0,1,.33-.168,1.6,1.6,0,0,1,1.691,1.619,1.022,1.022,0,0,1-.283.511c-.878.823-1.764,1.64-2.67,2.432A2.2,2.2,0,0,1,15.251,34.258Z" transform="translate(6.045 -10.654)" fill="#fff"/>
        </g>
      </g>
    </g>
  </g>
</svg>
