<svg xmlns="http://www.w3.org/2000/svg" xmlns:xlink="http://www.w3.org/1999/xlink" width="1076" height="485"
     viewBox="0 0 1076 485">
    <defs>
        <clipPath id="clip-path">
            <rect id="Rectangle_164" data-name="Rectangle 164" width="1076" height="485" rx="50"
                  transform="translate(102 3074)" fill="#ffd8d7"/>
        </clipPath>
    </defs>
    <g id="Shadow_birdcage_path" data-name="Shadow birdcage/path" transform="translate(-102 -3074)">
        <g id="Mask_Group_11" data-name="Mask Group 11" clip-path="url(#clip-path)">
            <g id="Artwork_8" data-name="Artwork 8" transform="translate(581.825 3311.5)">
                <g id="Group_373" data-name="Group 373" transform="translate(-465.994 -260.135)">
                    <path id="Path_1223" data-name="Path 1223"
                          d="M63.077,0c0,10.565.033,318.191-.015,328.755-.007,1.371.259,2.124,1.678,2.686a7.087,7.087,0,0,1,3.53,9.894c-.228.439-.5.856-.747,1.283,4.216.757,8.38,1.25,12.411,2.272,15.658,3.97,28.528,11.981,36.884,26.239a51.03,51.03,0,0,1,6.226,18.318c.094.614.2,1.227.318,1.968,19.981-4.066,40.036-3.85,60.231-3.245v55.507c-20.072-.744-40-.72-59.906,3.144,0,.833,0,1.519,0,2.2.008,20.3-.014,40.6.066,60.9.008,2.1-.689,3.613-2.584,4.139-4.88,1.353-9.761,2.938-14.752,3.613-21.382,2.9-42.9,3.028-64.4,2.014-9.9-.466-19.771-1.6-29.612-2.784C8.992,516.5,5.68,515.11,2.38,514,.661,513.419,0,512.08,0,510.126Q.088,453.9.057,397.674c.019-22.4,12.708-41.032,33.513-49.459a72.82,72.82,0,0,1,20.087-5.078c.811-.083,1.618-.2,2.568-.314-.25-.511-.431-.9-.632-1.285a7.07,7.07,0,0,1,3.487-10.171c.994-.436,1.486-.868,1.479-2.055C60.509,318.876,60.53,11.376,60.523.94A7.123,7.123,0,0,0,60.4,0Zm.557,401v50.693c1.047,0,1.929.022,2.81,0,7.945-.221,15.9-.283,23.833-.718a159.852,159.852,0,0,0,29.634-4.016c.991-.244,1.65-.414,1.642-1.772-.085-15.77-.083-31.541-.112-47.312,0-.6-.08-1.194-.128-1.862C102.227,400.436,83.022,401.222,63.634,401ZM49.854,456.155V393.408l-17.6-.841v64.389Zm-33.966,2.464c3.945-.4,7.909-.931,11.889-1.151,1.875-.1,2.257-.757,2.251-2.512-.056-19.271-.026-38.541-.02-57.813v-4.769l-14.121-1.62Zm125.8-67.667c-5.951.935-11.593,1.8-17.215,2.766-.374.065-.859.976-.86,1.494q-.014,23.456.071,46.912c0,.733,0,1.466,0,2.115l18-2.588Zm19.85,49.873V390.157l-17.634.793v50.589Zm2.356-50.342v50.433h17.646V390.484ZM3.357,387.295c-.315,4.049-.88,8.081-.9,12.115-.094,20.17-.045,40.34-.041,60.509,0,.666.057,1.331.084,1.9,3.023-.8,5.865-1.727,8.78-2.245,1.762-.314,2.052-1.08,2.048-2.652q-.069-28.728-.032-57.455v-9.133ZM52.209,393.5v62.57H71.541l-.12-2.087H61.61V398.54h9.777V393.5ZM71.39,494.776V473.8H52.226v20.974Zm2.481-21.1v21.144l17.656.8v-22.8Zm-41.636-.847v22.806l17.63-.829V473.681Zm38.538-96.955c-.925-8.667-1.648-17.161-4.86-25.178a11.766,11.766,0,0,0-1.751-2.933c-1.441-1.8-3.217-1.8-4.635,0a8.511,8.511,0,0,0-1.705,2.949c-1.377,5.4-2.724,10.823-3.844,16.284-.589,2.876-.7,5.852-1.033,8.88Zm37.238,121.411V471.154L93.64,472.716c0,7.5-.017,14.8.049,22.108a1.628,1.628,0,0,0,1.1,1.117C99.143,496.444,103.506,496.845,108.011,497.289ZM89.456,376.66c-1.023-3.236-1.811-6.171-2.874-9-2.541-6.754-6.1-12.866-11.868-17.43a19.212,19.212,0,0,0-8.4-4.112c4.6,9.556,5.432,19.72,6.654,29.832Zm-38.7-.714c1.164-10.194,2.069-20.311,6.565-29.726-10.849,2.052-20.076,15.861-22.763,30.426ZM15.7,497.293c4.323-.433,8.424-.915,12.538-1.219,1.43-.105,1.789-.62,1.775-1.979-.062-6.357-.027-12.715-.027-19.073V472.7L15.7,471.157ZM2.522,468.059v32.425l10.769-2.892c0-8.632.018-17.214-.051-25.8a1.874,1.874,0,0,0-1.157-1.3C8.974,469.629,5.829,468.886,2.522,468.059ZM110.41,497.6l10.655,2.853V468.038l-10.655,2.856V497.6ZM76.892,348.359c1.606,1.795,3.321,3.489,4.78,5.38,4.951,6.416,7.691,13.834,9.618,21.616.153.617.84,1.5,1.367,1.563,4.013.512,8.048.852,12.1,1.248C103.038,366.709,87.3,349.913,76.892,348.359ZM18.644,378.194c3.911-.379,7.492-.839,11.086-1.026,1.828-.1,2.528-.765,2.95-2.547,2.028-8.557,5.288-16.561,11.284-23.2.94-1.04,2.043-1.932,3.07-2.893l-.416-.4C32.533,353.538,23.608,363.8,18.644,378.194ZM71.469,458.7H52.224v12.438H71.469Zm-.5-80.209H52.553v12.364h19C71.349,386.609,71.158,382.568,70.965,378.493Zm-38.77,91.894,17.681.852V458.6l-17.681.833Zm41.67-11.8v12.663c5.672-.283,11.186-.536,16.695-.884a1.6,1.6,0,0,0,1.031-1.16q.133-4.288-.008-8.582a1.6,1.6,0,0,0-1.036-1.158C85.04,459.12,79.527,458.869,73.865,458.587Zm17.546-68.461c-.475-3.468-.928-6.6-1.322-9.732-.136-1.087-.776-1.261-1.7-1.3-3.935-.16-7.865-.384-11.8-.557-1.116-.049-2.235-.008-3.463-.008l.6,12.444Zm-59.124,0,17.7.827c.2-4.353.381-8.323.577-12.594-5.433.271-10.672.511-15.9.841-.353.023-.888.686-.958,1.114C33.2,383.432,32.788,386.566,32.287,390.127ZM5.553,381.155c2.923-.713,5.838-1.514,8.795-2.1a2.4,2.4,0,0,0,2.11-1.971,47.272,47.272,0,0,1,9.525-17.637c2.659-3.03,5.712-5.714,8.3-8.273C23.745,353.444,7.087,370.618,5.553,381.155Zm112.881.05C113.186,366.532,103,356.9,88.967,351c9.2,6.863,15.176,15.931,18.6,26.8a2.3,2.3,0,0,0,1.483,1.118C112.053,379.717,115.085,380.4,118.434,381.205ZM93.763,459.577v10.651L108,468.692v-7.564ZM29.849,470.216V459.581c-4.508.5-8.844.959-13.169,1.5a1.51,1.51,0,0,0-1.033,1.011c-.1,2.135-.048,4.277-.048,6.6Zm77.507-81.873c-.275-1.57-.479-2.867-.732-4.155-.635-3.226-.632-3.313-3.8-3.727-3.5-.456-7.019-.725-10.667-1.09.465,3.677.89,7.031,1.339,10.576Zm-77.121,1.586,1.281-10.617c-4.414.494-8.618.95-12.815,1.463a1.337,1.337,0,0,0-.958.734c-.529,2.186-.96,4.395-1.474,6.842Zm80.176,61.423c0,2.342-.044,4.5.038,6.655a1.6,1.6,0,0,0,.8,1.23c3.266.893,6.561,1.679,9.869,2.5v-12.6ZM73.773,398.661l17.652-.821v-5.277l-17.652.855Zm34.192,60V451.67l-14.227,1.546v3.93ZM93.707,397.71l14.358-1.578-.386-5.371-13.972,1.614Zm16.326-7.24c.121,1.583.255,3.318.41,5.32l10.641-2.133c-.376-2.375-.7-4.417-1-6.314Zm-44.045-52.5a4.133,4.133,0,1,0-4.131,4.143A4.236,4.236,0,0,0,65.987,337.973Zm25.5,118.992v-3.56l-17.668.751v2ZM13.2,461.354c-3.27.854-6.372,1.63-9.447,2.507-.439.125-.739.738-1.1,1.125.359.323.668.821,1.085.941,3.071.879,6.165,1.683,9.466,2.569Zm97.331.2v6.768c3.726-.91,7.494-1.021,11.1-3.371C118.071,462.416,114.268,462.422,110.526,461.554ZM13.895,388.038l1.3-7.014c-3.4.915-6.392,1.687-9.355,2.551-.476.138-.833.686-1.246,1.045.424.418.78,1.064,1.284,1.217C8.463,386.623,11.089,387.282,13.895,388.038Zm94.637-6.766,1.245,6.665c3.291-.931,6.739-.87,9.843-3.336C116.093,382.281,112.375,382.1,108.532,381.272Z"
                          transform="translate(0)" fill="#fbb"/>
                    <path id="Path_1224" data-name="Path 1224"
                          d="M103.224,432.655c64.088,36.83,140.988,47.159,214.528,39.7,15.312-1.553,31.025-4,44.168-12.012s23.2-22.841,21.309-38.114S364.178,394.2,350.005,400.2c-5.461,2.311-9.731,6.867-12.741,11.975-10.725,18.2-4.555,44.36,13.17,55.85,6.582,4.266,14.224,6.576,21.843,8.442,73.214,17.922,164.817,10.7,230.558-26.174s231.89-148.371,284.819-202.036c18.307-18.563,36.618-37.463,50.373-59.61"
                          transform="translate(-6.038 -11.035)" fill="none" stroke="#fbb" stroke-width="1.883"
                          stroke-dasharray="12"/>
                </g>
            </g>
        </g>

    </g>
</svg>
