<svg xmlns="http://www.w3.org/2000/svg" width="527.46" height="271.051" viewBox="0 0 527.46 271.051">
  <g id="Thumbs_Up" data-name="Thumbs Up" transform="translate(263.73 135.526)">
    <path id="Path_89" data-name="Path 89" d="M511.571,139.3c.982-.552,1.951-1.13,2.949-1.651,2.78-1.451,4.061-4,4.6-6.848,1.351-7.142.017-13.592-5.545-18.716-1.742-1.605-3.638-3.044-5.365-4.663-8.766-8.219-19.044-9.462-30.213-6.6-2.66.681-5.271,1.558-7.937,2.212-2.921.716-5.967.986-8.5-.92-4.113-3.1-8.906-4.029-13.749-5.01a47.135,47.135,0,0,1-7.11-1.949c-2.772-1.034-4.451-3.275-3.928-6.215a62.407,62.407,0,0,1,3.206-12.588c3.033-7.452,6.683-14.651,10.024-21.979,5.953-13.053,6.62-26.369,1.491-39.794a29.312,29.312,0,0,0-5-8.508A20.269,20.269,0,0,0,439.5.952c-5.2-2.3-8.507-.381-9.386,5.265a85.6,85.6,0,0,0-.788,11.052,20.436,20.436,0,0,1-4.084,12.184c-3.58,4.749-5.643,10.14-7.665,15.725-1.93,5.331-5.244,10.243-8.444,15.007-3.377,5.027-7.26,9.725-11.067,14.449a59.818,59.818,0,0,0-9.516,16.392,211.872,211.872,0,0,1-16.733,34.492c-3.093,5.111-7.406,8.321-12.907,10.564-7.991,3.257-16.052,3.56-24.538,2.9a148.75,148.75,0,0,0-22.985.47c-31.74,2.489-63.458,3.023-95.189-.083-13.114-1.284-26.29-2.052-39.351-3.732-7.665-.987-15.084-3.822-22.744-4.929-19.039-2.751-38.122-5.277-57.248-7.34q-23.318-2.516-46.777-3.671c-12.965-.638-25.978-.285-38.969-.458-3.112-.041-6.219-.425-9.73-.681,0,1.221.008,2.233,0,3.245Q.729,190.242,0,258.678c-.035,2.964.844,3.963,3.655,4.677a257.627,257.627,0,0,0,53.165,7.271c42.645,1.737,84.9-1.906,126.786-9.808,23.651-4.462,47.11-9.949,70.779-14.3,28.243-5.2,56.611-9.718,84.94-14.44a80.733,80.733,0,0,1,37.423,2.226c3.783,1.158,7.818,1.465,11.686,2.379,7.639,1.805,15.222,3.843,22.867,5.623,4.323,1.006,8.706,2.3,13.088,2.408,14.216.355,28.444.262,42.667.244a59.133,59.133,0,0,0,7.061-.769c12.688-1.556,20.13-10.16,26.414-20.053,2.591-4.078,2.152-6.59-.515-13.53,17.376-6.1,22.588-19.736,12.841-34.361,9.9-2.723,15.756-8.473,14.411-19.477-1.009-8.257-6.033-13.9-14.715-16.327Z" transform="translate(-263.73 -135.526)" fill="#3a86f5"/>
  </g>
</svg>
