<svg xmlns="http://www.w3.org/2000/svg" xmlns:xlink="http://www.w3.org/1999/xlink" width="1076" height="485" viewBox="0 0 1076 485">
  <defs>
    <clipPath id="clip-path">
      <rect id="Rectangle_171" data-name="Rectangle 171" width="1076" height="485" rx="50" transform="translate(102 3074)" fill="#f2f2f2"/>
    </clipPath>
  </defs>
  <g id="Woman_Shadow" data-name="Woman Shadow" transform="translate(-102 -3074)" clip-path="url(#clip-path)">
    <g id="Artwork_7" data-name="Artwork 7" transform="translate(200.083 3435.5)">
      <g id="Group_326" data-name="Group 326" transform="translate(-174.917 -213.785)">
        <path id="Path_488" data-name="Path 488" d="M262.891,48.385l0,.006.045.065Z" transform="translate(16.701 3.074)" fill="#dce8f7"/>
        <path id="Path_489" data-name="Path 489" d="M349.58,5.373c-3.681-1.434-7.109-3.4-10.882-4.69-5.911-2.019-9.635.483-9.58,6.892a.949.949,0,0,1-.532.466c-2.861,1.166-.874,3.573-1.383,5.337h0q-17.48,19.368-34.966,38.73c-1.276,1.412-2.64,2.746-3.963,4.116l-.844.914.081-.053a4.327,4.327,0,0,0-.073.777l-3.561,4.028-1.44.238c-2.5,2.475-4.686,5.278-7.163,7.779,2.477-2.5,4.659-5.3,7.162-7.779a53.727,53.727,0,0,0-2.843-10.662l-1.453-2.09a1.451,1.451,0,0,0-1.15-1.546q-.587-1.185-1.173-2.368c-.269-.3-.538-.592-.807-.887L264,34.8a.39.39,0,0,1-.5-.254c-2.209-1.087-4.39-2.232-6.63-3.249-7.162-3.253-14.182-3.967-21.074.9a17.017,17.017,0,0,1-5.672,2.36,38.086,38.086,0,0,0-12,5.207l.03-.053-.881.884.051-.036a48.69,48.69,0,0,0-3.264,5.7c-2.717,6.6-7.69,10.537-14.332,12.593q-9.24,2.859-18.514,5.6c-15.239,4.5-26.469,13.6-32.484,28.533-2.189,5.434-2.757,10.94,1.174,16.019-3.771,2.648-8.364,3.89-11.9,6.944-.022.265-.164.37-.425.321a2.111,2.111,0,0,0-1.183,1.834,19.522,19.522,0,0,0-1.043,9.6c.58,5,.4,10.077.549,15.122q.027,1.243.053,2.487l0,.266c-8.922,6.374-83.869,66.47-90.535,71.008a5.963,5.963,0,0,0-3.16,2.143v0a2.886,2.886,0,0,0-2.223,1.32l-.312.081a2.594,2.594,0,0,0-1.884,1.549l-.185.049q-1.793.6-3.581,1.207l-.664,1.329-.305.02a27.371,27.371,0,0,0-9.288,5.6l.318.118-.322-.093a3.644,3.644,0,0,0-3.11,1.925l0-.028c-4.475,1.9-8.8,4.038-12.264,7.57l-.009.006a1.482,1.482,0,0,1-1.668,1.587L6.749,241l-.849.8,0-.014c.015.79-.207,1.391-1.136,1.433l-.036-.061q.217,1.415.429,2.826l-2.574-.1A27.162,27.162,0,0,1,0,257.568q.073.812.148,1.623c2.264.58,1.637,2.15,1.245,3.64l.047.011c2.9.769,5.035,2.256,5.241,5.551,2.962.976,4.451,2.93,4.052,6.133l.022.305a1.485,1.485,0,0,1,.71,1.894l-.064.032c.32,1.908.2,3.968,1.864,5.41,2.617,3.7,3.536,7.992,4.274,12.337,2.49,14.661,10.311,25.423,23.583,32.142a37.926,37.926,0,0,1,8.255,5.328l3.366,6.668-.015.063a11.029,11.029,0,0,0,1.858-.442,11.042,11.042,0,0,1-1.859.442q.676,2.162,1.352,4.321-.448.616-.9,1.234-11.5,18.957-23,37.914c-.283.468-.537.954-.8,1.426-2.811-.337-5.406.871-8.139,1.134-2.2.211-2.17,1.489-.666,2.665,1.612,1.261,1.435,2.694,1.085,4.42-2.2,10.817-.4,21.656-.019,32.482.045,1.3.248,3.024,1.954,3.246,1.744.228,2.156-1.387,2.631-2.671.858-2.315,1.872-4.6,1.636-7.165a62.861,62.861,0,0,0,5.291-14.081c1.051-4.011,2.611-7.673,5.815-10.454v0c1.916.705,2.628-.94,3.686-1.9,2.7-2.442,4.5-5.8,7.788-7.634,1.017,2.926-.97,5.1-1.916,7.524-.6,1.536-1.627,3.168.136,4.4,1.746,1.219,3.031-.172,4.186-1.371a15.963,15.963,0,0,0,3.6-4.91c3.966-2.182,6.406-6.008,9.607-9.011,2.346-2.2,5.056-4.013,6.855-6.885.988-1.577,3.326-.044,4.966-.667,3.853.147,6.994-2.108,10.5-3.13,3.534-1.031,6.729-3.173,10.566-3.218a56.222,56.222,0,0,1,9.086,7.027c9.637,8.556,23.685,10.512,34.873,4.477,5.5-2.964,9.477-7.869,13.342-12.673,6.951-8.639,13.608-17.5,18.941-27.275a11.708,11.708,0,0,1,2.793-1.671c8.561-2.257,12.956-8.388,16.107-16.186,6-14.856,12.407-29.55,18.641-44.308,5.376-8.743,9.421-18.15,13.8-27.39.637-1.345,1.4-2.63,2.108-3.944q.577-1.962,1.154-3.923l5.589.847a1.686,1.686,0,0,1,1.732.342,6.945,6.945,0,0,1,1.631-.027c3.772.833,5.525-.221,6.132-4.485,1.155-8.1,3-16.111,4.788-24.11.51-2.29.167-4.941,2.167-6.784a2.553,2.553,0,0,1,.2-.74q-.118-.434-.235-.868c1.6-1.025-.542-2.164.1-3.219q.153-.826.305-1.654c.758-.759.549-1.663.383-2.56l.752-2.491,1.911-9.768h0c3.758-20.016,9.314-39.728,10.167-60.234a8.851,8.851,0,0,1-2.628-5.061,8.851,8.851,0,0,0,2.628,5.061l4.173-4.559.083-.115,4.677-5.708.19-.258c6.79-8.778,13.726-17.435,21.065-25.764,16.63-21.108,29.953-44.459,45.115-66.563.821-1.2,2.042-2.311,1.6-4.04.045-.531.091-1.059.137-1.589,1.028-.429,2.014-.9,2.291-2.139a1.248,1.248,0,0,0-.6-.292,1.085,1.085,0,0,0-.547.066,1.085,1.085,0,0,1,.547-.066,1.248,1.248,0,0,1,.6.292q1.307-1.086,2.615-2.164a1.428,1.428,0,0,1,.254-.618,6.981,6.981,0,0,1,.411-1.321C348.057,8.236,350.636,7.428,349.58,5.373ZM71.86,359.612l1.043-.738a9.7,9.7,0,0,1,1.937-3.427,9.691,9.691,0,0,0-1.937,3.429C72.556,359.12,72.208,359.367,71.86,359.612Zm-6.934,10.155-.022.035Zm57.63-177.689a2.593,2.593,0,0,0,.364.448h0a2.587,2.587,0,0,1-.364-.447Zm14.472-14.018a4.844,4.844,0,0,1,.035,1.258,4.841,4.841,0,0,0-.035-1.252v-.005Zm95.83-86.448,1.136-3.769q-.568,1.884-1.135,3.77-.5.718-1,1.437a9.656,9.656,0,0,0,2.343,5.041,9.653,9.653,0,0,1-2.343-5.04h0Q232.361,92.332,232.859,91.612Zm9.189,14.948a9.449,9.449,0,0,0-3.114-5.438,9.449,9.449,0,0,1,3.114,5.438Zm-1.933,7.244q.362-1.327.766-2.645Q240.477,112.476,240.115,113.8Zm1.8-5.8q.041-.461.084-.921l-.084.921Zm2.576-.617,1.5-2.846-1.5,2.846a29.944,29.944,0,0,1-.808,6.425A29.944,29.944,0,0,0,244.492,107.387Zm5.633-6.668c.316,1.1.082,2.292.287,3.408a.561.561,0,0,0,.186.061.579.579,0,0,1-.188-.061C250.207,103.011,250.441,101.815,250.125,100.719Zm2.5,2.456a.678.678,0,0,0-.207-.027A.678.678,0,0,1,252.621,103.175ZM243.7,47.961l-.045-.045ZM205.666,144.49q-4.151,9.069-8.625,17.975,4.465-8.91,8.625-17.975,9.427-18.39,18.847-36.786Q215.115,126.11,205.666,144.49Zm-7.941,51.77q-.124-.365-.248-.73h0Q197.6,195.894,197.724,196.26ZM84.331,348.718c.381.036.648.32.708.834a1.62,1.62,0,0,1-.76,1.538,1.62,1.62,0,0,0,.759-1.538C84.978,349.038,84.712,348.754,84.331,348.718Zm68.613-159.753a2.234,2.234,0,0,1,1.059-.178,2.236,2.236,0,0,0-1.059.178l-1.575.273Zm4.931-17.97h0c-.189.746-.434,1.483-.68,2.219-.74,2.209-1.5,4.415-.849,6.858h0c-.651-2.443.11-4.649.85-6.858C157.441,172.476,157.686,171.739,157.875,170.994Zm1.137-29.673a8.529,8.529,0,0,0,.271-4.342,8.524,8.524,0,0,1-.271,4.341,34.832,34.832,0,0,0-1.889,8.248A34.761,34.761,0,0,1,159.012,141.32Zm19.121-14.658a.7.7,0,0,1,.371-.084A.7.7,0,0,0,178.133,126.663Zm1,.219,1.983-.223h0l-1.983.223Zm10.916,57.371a6.036,6.036,0,0,0-.875-.363h0a6.061,6.061,0,0,1,.875.364c2.9,1.091,5.678,2.488,8.546,3.656C195.728,186.74,192.949,185.344,190.05,184.253Zm-8.675,6.62h0a10.814,10.814,0,0,1,.43-2.616A10.814,10.814,0,0,0,181.375,190.873Zm-1.661,3.192a29.493,29.493,0,0,1-1.579,2.644C178.5,195.693,178.582,194.455,179.714,194.065Zm-13.635,5.714h0a2.994,2.994,0,0,1-1.175-.333A2.994,2.994,0,0,0,166.078,199.779Zm10.605-1.671c-.193-.032-.369-.073-.554-.111.184.037.361.079.553.111l.01,0Zm-8.991-15.44a5.231,5.231,0,0,0-1.608-1.417A5.231,5.231,0,0,1,167.693,182.668Zm-2.947-1.991a7.461,7.461,0,0,1,1.312.56A7.461,7.461,0,0,0,164.746,180.677Zm16.94,15.861c.01.821.023,1.642.072,2.461-.049-.819-.063-1.64-.072-2.461Zm5.19-9.1c.137-.13.272-.262.406-.394-.134.132-.269.264-.406.394Zm.424-.411c.314-.311.625-.622.958-.906C187.925,186.405,187.614,186.717,187.3,187.028Zm-3.252-3.609a4.4,4.4,0,0,0-.5.638,4.4,4.4,0,0,1,.5-.638,3.2,3.2,0,0,1,2.635-.962h0A3.194,3.194,0,0,0,184.048,183.419Zm-25.842,6.333c-.4-.081-.8-.157-1.194-.241a3.087,3.087,0,0,1-.852-.127,3.087,3.087,0,0,0,.852.127C157.408,189.595,157.808,189.671,158.206,189.752Zm-.073,17.747a26.292,26.292,0,0,0,3.162,2.127,26.292,26.292,0,0,1-3.162-2.127,17.934,17.934,0,0,1-2.775-2.717h0A17.934,17.934,0,0,0,158.133,207.5ZM146.5,191.024h0a14.882,14.882,0,0,1-2.662,1.21A14.882,14.882,0,0,0,146.5,191.024Zm4.479,15.03a6.3,6.3,0,0,0,2.626-.585l1.641-.64-1.64.64A6.3,6.3,0,0,1,150.974,206.054Zm28.919-6.2c.214,1.61.3,3.349,1.878,3.858-1.574-.508-1.664-2.246-1.879-3.856Zm5.066-9.185h0l.826.039h0Zm5.863.784a13.449,13.449,0,0,1-2.053-1.041A13.449,13.449,0,0,0,190.822,191.449Zm-2.1-1.064c-.107-.054-.217-.1-.327-.149C188.5,190.281,188.613,190.331,188.721,190.385Zm3.006,1.969a7.855,7.855,0,0,0-.185-.8h0A8.142,8.142,0,0,1,191.726,192.354Zm-.549-.824c-.071-.011-.141-.031-.213-.048C191.036,191.5,191.106,191.519,191.177,191.529Zm-4.222-9.058c-.085-.01-.162-.009-.242-.014h0c.081.005.157,0,.242.014l.874-2.326Zm-31.121,6.819c-.218-.071-.436-.147-.653-.222C155.4,189.144,155.616,189.219,155.834,189.291Zm-7.88,1.276h0a6.314,6.314,0,0,0,.93-.137A6.314,6.314,0,0,1,147.955,190.567Zm-6.776,11.507-.081-.318h0Zm-9.081-18.2c.04.071.081.143.135.224.619-.993,2.368-.7,2.963-1.279a6.227,6.227,0,0,1-1.478,1.129c-.669-.216-1.42.09-2.341,1.3A3.827,3.827,0,0,0,132.1,183.873Zm-1.819,30.856c-.692,1.054-1.386,2.108-2.06,3.173C128.893,216.837,129.586,215.783,130.279,214.729Zm7.548-13.494a.686.686,0,0,0,.455-.691A.687.687,0,0,1,137.827,201.235Zm-6.918,12.532c2.547-3.894,5-7.837,6.361-12.378h0C135.91,205.93,133.456,209.873,130.908,213.767Zm4.493-31.349a.669.669,0,0,1-.106.264.63.63,0,0,0,.106-.264,2.876,2.876,0,0,1-.42-.144,2.906,2.906,0,0,0,.419.144,5.705,5.705,0,0,0,1.285-1.754A5.694,5.694,0,0,1,135.4,182.418Zm-.766-.325c.012.008.024.014.036.021C134.661,182.107,134.648,182.1,134.636,182.093ZM103.208,325.956l.046-.036c.8-1.177,1.507-2.44,2.342-3.586-.835,1.146-1.541,2.409-2.341,3.587ZM186.015,191.5h0c-.038,2.593-.054,5.186-.123,7.778C185.962,196.683,185.978,194.09,186.015,191.5Zm5.653,1.687-.022.027h0Zm-7.4-103.129-.05-.052Zm-4.161,4.106a4.048,4.048,0,0,0,2.474-.335,4.048,4.048,0,0,1-2.474.335c-.5.21-1.016.388-1.523.585C179.095,94.55,179.613,94.371,180.11,94.161Zm-2.475,32.976-.028.011a21.99,21.99,0,0,0-3.974.583,21.99,21.99,0,0,1,3.974-.583Zm-20.064,31.689-.077-3.81q.038,1.9.079,3.807c-2.375,3.9-1.067,8.229-1.432,12.358h0C156.505,167.05,155.2,162.725,157.571,158.826Zm-3.435,17.054c.029-.138.058-.278.087-.417C154.194,175.6,154.165,175.741,154.136,175.88Zm-14.965,17.731h0a5.967,5.967,0,0,1-.915-1.693A5.944,5.944,0,0,0,139.171,193.611ZM127.9,186.933l-.037,0,.067-.065ZM59.191,335.91c-.148.316-.289.637-.429.958C58.9,336.547,59.043,336.225,59.191,335.91Zm.714,37.023a19.189,19.189,0,0,1-1.75,1.932A19.189,19.189,0,0,0,59.9,372.933Zm3.45-5.377a10.463,10.463,0,0,0-2,2.8,10.486,10.486,0,0,1,2-2.8,12.471,12.471,0,0,1,3.855-2.571h0A12.483,12.483,0,0,0,63.354,367.556Zm110.1-112.466-.015.031Zm.813-1.62a2.406,2.406,0,0,0,.3-.308,2.284,2.284,0,0,1-.3.308Zm.826-2.127c0,.149-.01.3-.023.443C175.083,251.64,175.092,251.492,175.093,251.343Zm22.419-52.552c.055-.817.17-1.633.241-2.448h0C197.682,197.159,197.567,197.974,197.512,198.791Zm6.451-8.94h0l1.428-.047C204.915,189.819,204.439,189.834,203.963,189.851Zm1.391-.292h0a64.685,64.685,0,0,1,14.023,2A64.666,64.666,0,0,0,205.354,189.559Zm22.85,5.856a29.2,29.2,0,0,0-5.893-1.375,29.554,29.554,0,0,1,5.893,1.37Zm-.264,34.019a39.548,39.548,0,0,1-.6,5.689A39.564,39.564,0,0,0,227.94,229.434Zm2.77-37.953a4.842,4.842,0,0,1,.632-.989Zm44.308-144.1c-.089-.057-.173-.129-.26-.194C274.845,47.253,274.929,47.324,275.018,47.381ZM271.23,67.262c0-.035,0-.07.005-.105C271.234,67.191,271.231,67.228,271.23,67.262ZM245.372,45.068h0a3.353,3.353,0,0,1,.373.537A3.24,3.24,0,0,0,245.372,45.068ZM221.407,82.622h0c-3.923.017-7.825-.084-11.723.254C213.582,82.539,217.484,82.64,221.407,82.622Zm-9.98-19.055c.713-1.245,1.393-2.514,2.194-3.694-.8,1.179-1.481,2.448-2.194,3.694h0a38.692,38.692,0,0,1-6.5,3.693q-.976.42-1.989.758,1.013-.337,1.989-.758A38.692,38.692,0,0,0,211.427,63.567Zm-73.568,116.4q.024.753.053,1.509.024,1.689.052,3.383c.005.522.011,1.047.017,1.57q-.01-.785-.018-1.571-.026-1.691-.052-3.383l-.054-1.508c-.222-.472-.049-1.115-.344-1.553C137.808,178.854,137.635,179.5,137.859,179.969ZM13.366,256.3c-.028-.359-.055-.72-.073-1.077.018.357.046.718.073,1.077.041.54.083,1.079.091,1.613C13.449,257.375,13.408,256.835,13.366,256.3Zm.777,22.735h0A115.191,115.191,0,0,0,26.373,270.6,115.191,115.191,0,0,1,14.144,279.03Zm13.671-9.523c1.481-1.123,2.967-2.241,4.475-3.328C30.782,267.266,29.3,268.384,27.814,269.507ZM55.086,377.69c-.473.431-.941.867-1.389,1.321C54.145,378.557,54.613,378.121,55.086,377.69ZM67.32,365.7l-.21.211-.6.684a4.471,4.471,0,0,1-.421.606,4.361,4.361,0,0,0,.42-.605l.6-.685.208-.211.617-.608.2-.225h0l-.2.225Zm1.112-.964a.677.677,0,0,0,.187-.177A.677.677,0,0,1,68.433,364.739Zm.2-.189a.575.575,0,0,0,.093-.256A.575.575,0,0,1,68.633,364.549Zm1.025-.742a2.577,2.577,0,0,0,1.543-2.141l.1-.136h0l-.1.138A2.576,2.576,0,0,1,69.658,363.807Zm3.173-2.727h0a.54.54,0,0,0,.509.168h0A.539.539,0,0,1,72.83,361.08ZM209.813,196.038c.005.368.011.737.016,1.105q-.008-.552-.016-1.107.053-2.253.106-4.508Q209.865,193.783,209.813,196.038Zm2.147,2.554a3.294,3.294,0,0,0,3.476,1.168c.3,1.668.557,3.45,2.4,3.684-1.84-.234-2.1-2.016-2.4-3.684A3.293,3.293,0,0,1,211.96,198.591Zm22.485-12.959h0a63.063,63.063,0,0,1,4.321-9.9A63.163,63.163,0,0,0,234.445,185.632Zm27.9-68.435c.067.414.133.831.2,1.249C262.482,118.028,262.416,117.611,262.349,117.2ZM329.537,13.972a1.649,1.649,0,0,0,.636.539A1.649,1.649,0,0,1,329.537,13.972Z" transform="translate(0 0)" fill="#dce8f7"/>
        <path id="Path_490" data-name="Path 490" d="M205.661,346.2a1.965,1.965,0,1,0,.38,3.91c1.154-.084,1.572-.893,1.566-1.937C207.6,346.92,207.039,346.144,205.661,346.2Z" transform="translate(12.947 21.993)" fill="#dce8f7"/>
        <path id="Path_491" data-name="Path 491" d="M99.7,57.517c-1.008.146-2,.3-.955,1.641Q99.22,58.338,99.7,57.517Z" transform="translate(6.244 3.654)" fill="#dce8f7"/>
        <path id="Path_492" data-name="Path 492" d="M64.583,387.3a5.679,5.679,0,0,0,.108-.78l-.935.322Z" transform="translate(4.05 24.555)" fill="#dce8f7"/>
        <path id="Path_493" data-name="Path 493" d="M27.122,302.824l.245-.14h0Z" transform="translate(1.723 19.229)" fill="#dce8f7"/>
        <path id="Path_494" data-name="Path 494" d="M2.392,231.2h.036v-.009Z" transform="translate(0.152 14.687)" fill="#dce8f7"/>
        <path id="Path_495" data-name="Path 495" d="M6.287,252.393c0-.012,0-.02,0-.032l-.019-.007Z" transform="translate(0.398 16.031)" fill="#dce8f7"/>
      </g>
    </g>
  </g>
</svg>
